<?xml version="1.0" standalone="no"?>
<!DOCTYPE svg PUBLIC "-//W3C//DTD SVG 1.1//EN" "http://www.w3.org/Graphics/SVG/1.1/DTD/svg11.dtd" >
<svg>
<metadata>
Created by FontForge 20090622 at Thu Nov  5 10:21:42 2015
 By deploy user
Copyright (c) 2014 by Kimmy Design. All rights reserved.
</metadata>
<defs>
<font id="CatalinaAvalonSlabBold" horiz-adv-x="428" >
  <font-face 
    font-family="Catalina Avalon Slab Bold"
    font-weight="400"
    font-stretch="normal"
    units-per-em="1000"
    panose-1="0 0 0 0 0 0 0 0 0 0"
    ascent="800"
    descent="-200"
    x-height="729"
    cap-height="763"
    bbox="20.6667 -225 756 984.205"
    underline-thickness="50"
    underline-position="-50"
    unicode-range="U+000D-U+25CA"
  />
<missing-glyph horiz-adv-x="182" 
 />
    <glyph glyph-name=".notdef" horiz-adv-x="182" 
 />
    <glyph glyph-name=".null" horiz-adv-x="0" 
 />
    <glyph glyph-name="nonmarkingreturn" horiz-adv-x="333" 
 />
    <glyph glyph-name="NULL" horiz-adv-x="0" 
 />
    <glyph glyph-name="NULL" horiz-adv-x="0" 
 />
    <glyph glyph-name="CR" unicode="&#xd;" horiz-adv-x="182" 
 />
    <glyph glyph-name="space" unicode=" " horiz-adv-x="182" 
 />
    <glyph glyph-name="exclam" unicode="!" horiz-adv-x="214" 
d="M97 743h1q35 0 54 -5l10 -4q5 -4 5 -18q-4 -60 -7 -83q-10 -85 -14 -158q-1 -10 -9 -122q0 -2 -1.5 -7.5t-1.5 -6.5q-3 -25 -3 -46q0 -3 -0.5 -11t-0.5 -12q-1 -8 -1 -23q-3 -16 -1 -39q1 -6 1 -28q0 -20 -7 -32t-27 -9q-27 3 -21 39q0 1 0.5 3t0.5 4q1 7 -6 40
q-5 25 -5 32v39v40q0 6 -2 26q-2 28 -2 43q0 2 -3 68q-4 54 -2 98v18q0 44 -2 64l-3 25q-3 41 -3 43q0 6 2 9h-1q2 8 14 8q7 2 35 5zM93 104q25 5 40.5 -12t15.5 -42q0 -38 -33 -45h1q-27 -6 -43.5 10.5t-16.5 41.5q0 39 36 47z" />
    <glyph glyph-name="quotedbl" unicode="&#x22;" horiz-adv-x="264" 
d="M84 576q-11 0 -16.5 8t-6.5 15t-1 21q0 25 -7 45q-9 39 -2 64q6 12 20 21t26 5q22 -7 22 -48q0 -8 -3 -38q0 -2 -1 -4t-1 -3q-6 -38 -6 -58q0 -28 -24 -28zM183 576q-23 0 -25 29q0 11 -3 22v-1q-2 6 -2 15q-2 16 -2 32q0 17 2 35q1 21 11 37.5t31 9.5q22 -5 22 -48
q0 -7 -3 -37q0 -2 -0.5 -4.5t-0.5 -3.5q-6 -38 -6 -58q0 -28 -24 -28z" />
    <glyph glyph-name="numbersign" unicode="#" horiz-adv-x="526" 
d="M436 299q20 0 22.5 -18.5t-18.5 -23.5q-9 -2 -32 -2h-20q-3 0 -41 -2q0 -11 -2 -26l-4.5 -32.5t-3.5 -26.5l-3 -20q-7 -43 -5 -72q1 -17 -3 -42v-6l-1 -3q-2 -12 -10.5 -19t-17.5 -5q-19 9 -21 27q-2 22 4 44q0 2 1.5 5.5t1.5 4.5q6 29 6 69v21q2 27 8 73q0 6 1 9
q-15 0 -27 2q-3 0 -9 0.5t-9 0.5q-5 1 -17 1l-4 -10l1 1q-5 -15 -5 -44q0 -33 -2 -42l-4 -13q-5 -17 -5 -22l-4 -50v-16q0 -47 -20 -56q-10 -4 -25 -4.5t-24 3.5q-17 12 -17 42q0 4 3 31v2q1 2 1 3q3 15 13 93q1 4 4.5 36t6.5 50q-3 0 -10.5 0.5t-11.5 0.5h-33q-29 0 -41 8
q-14 10 -10.5 19.5t17.5 14.5q4 1 26 1h20q14 2 46 2h5l4 42q0 1 1 4.5t1 4.5q7 28 5 44q-1 25 4 41q-2 0 -6 0.5t-5 0.5l-29 1q-28 0 -28 -1q-18 -1 -31.5 7t-4.5 27q10 21 56 16l2 -1h2q4 0 22.5 -3t29.5 -3q0 2 0.5 5t0.5 4q0 20 1 28q4 17 4 34q0 22 5 42q6 22 6 33
l5 68q4 35 37 39q41 2 43 -38q1 -11 -3 -30q0 -1 -0.5 -3.5t-0.5 -3.5q0 -11 -4 -23q0 -1 -0.5 -5t-0.5 -6q-1 -16 -4.5 -45.5l-4.5 -37.5q-6 -32 -9 -64q5 0 21 2q2 0 8 0.5t8 0.5h26v6l7 81l10 85q1 6 1 19q0 37 9 50q15 18 30.5 9t14.5 -29q-2 -27 -8 -50l-6 -22
q-2 -11 -4 -39q-2 -32 -4 -48q-3 -15 -3 -35q0 -4 -0.5 -13t-1.5 -16h20q37 0 44 -1h7q11 0 17.5 -0.5t13.5 -6t7 -16.5q0 -23 -39 -20h-24q-26 0 -40 -3q-4 -1 -12 -1q-1 -4 -1 -14l-4 -33q-3 -15 -3 -31l-2 -30l-4 -32q9 -1 24 -1q2 0 6.5 0.5t7.5 0.5q31 2 49 1zM272 305
q11 1 32 1q1 7 5 24q4 16 4 39q0 9 2 21q2 9 4 33v15q-5 0 -7 1h1q-26 3 -54 3q-1 -14 -8 -71q-5 -37 -6 -67q9 -1 27 1z" />
    <glyph glyph-name="dollar" unicode="$" horiz-adv-x="389" 
d="M318 230q13 -37 13 -73q0 -106 -64 -143q-15 -10 -39 -13q0 -4 -0.5 -13.5t-0.5 -12.5q0 -1 0.5 -4.5t0.5 -5.5q2 -37 -1 -46q-3 -14 -17 -14.5t-21 6.5q-10 9 -10 40q0 15 -2 45q0 2 -0.5 5t-0.5 5q-50 15 -79 48q-29 32 -38 88l-1 1v2h-4q-14 -6 -23 3q-5 4 -7 15
q0 5 -2 9q-3 11 7 17t21 7l66 -4q13 0 17 -1t8 -6.5t0 -18.5q-3 -15 -8 -20.5t-20 -4.5h-4l9 -30q5 -23 23 -39t35 -22q62 -13 72 28q5 24 -35 104l-1 4l-38 69l-13 23v-1l-23.5 38.5t-28.5 51.5q-25 62 -29 82l-2 12q-12 42 -11 68q2 97 47 157q3 2 13 15q22 31 38 41l6 4
q2 17 0 34v9q-2 36 10 43q9 8 22 4t17 -19q5 -16 1 -46l-2 -14q5 0 17 -2q19 -6 38 -22q0 9 10 21q4 1 7 3h4q12 6 17.5 -4.5t5.5 -23.5l-3 -63q0 -21 -8 -24h1q-7 -5 -15 -5q-11 0 -19 10q-1 2 -5 14l-2 4q-1 1 -1 2q-17 34 -37 43q-15 7 -27.5 -17.5t-15.5 -46.5
q-6 -34 -6 -51q0 -32 14 -94l-1 1l3 -7q10 -38 37 -86l11 -19q60 -111 74 -160z" />
    <glyph glyph-name="percent" unicode="%" horiz-adv-x="621" 
d="M253 160l2 10q8 35 22 83q2 6 3.5 12.5t3 14.5t2.5 12q2 18 12 45l3 10q11 34 12 41l3 19q2 20 4 28q0 4 4 16l1 4q1 4 3.5 10t4.5 10q0 1 1 4v3q2 18 8 31v-1q1 4 12 43q1 3 4 15l3 17l-1 -2l19 70l4 15q7 45 23 57q15 11 21.5 2.5t8.5 -18.5t1 -20q-13 -59 -16 -70
q-2 -5 -11 -44l-6 -32q-34 -124 -43 -152q-30 -95 -39 -159q-3 -17 -24 -83q-14 -35 -21 -69l-3 -21q-5 -37 -13 -50q-12 -19 -25 -14t-14 26q-2 31 17 94q14 41 14 43zM47 602q-1 7 1 22q0 2 2 7.5t2 7.5q-1 4 5 24q0 1 1 3l1 2l15 29l2 5q13 18 20 22q15 10 49.5 15
t53.5 1h-1q34 -9 58 -46q7 -10 11 -25q1 -3 2.5 -8t2.5 -8q3 -7 3 -28v-13q0 -3 8 -30q5 -17 5 -18q1 -7 1 -22v-22q0 -57 -3 -87q-6 -53 -35 -82q-29 -25 -73 -25q-22 0 -38 8q-23 11 -42.5 30t-24.5 37l-5 12q-15 40 -18 95q0 6 -2 20q0 5 -1 14.5t-1 14.5q0 12 1 17v-1
q2 14 0 29zM218 685l-5 8q-1 1 -3 3.5t-2.5 4t-3 4t-3.5 3t-4 2.5t-4.5 2t-5 0.5t-5.5 -0.5l-6 -1h1q-12 -5 -14 -7t-8 -21q-3 -13 -3 -27q0 -8 -2 -22q-1 -5 -1 -17q0 -17 -1 -25q-2 -10 0 -26v-20q0 -4 0.5 -13t0.5 -14q0 -3 0.5 -7t0.5 -7l3 -18q4 -20 4 -29
q0 -2 -0.5 -8t-0.5 -8q-1 -15 0 -28v-3l1 -2q1 -20 8.5 -39.5t21.5 -16.5q19 3 36 25l4 13q1 2 14 25q3 8 3 23q0 13 1 18q2 11 0 32q-1 3 -1 13q0 14 3 24q4 18 3 26q-1 12 -7 32l-3 13l-4 11q-3 14 -7 37q-2 29 -11 40zM556 91l-8 -25q-2 -4 -2 -6q-3 -9 -15 -28
q-24 -34 -70 -31q-21 1 -44 10.5t-33 20.5l-6 6v-1q-16 16 -27 45q-1 2 -1.5 6t-0.5 6q-7 20 -10 35q-9 32 -9 76q0 18 1 26q2 40 21 104q9 23 27 45l-1 -1l3 4q8 12 44 31q18 8 63 -2l21 -8q2 -1 4 -3.5l4.5 -5.5t4.5 -5l7 -7v1q9 -10 15 -26q2 -3 5 -11.5l4 -11.5l10 -23
l2 -8q8 -37 8 -86q0 -65 -16 -122l-1 -1v-1v-3zM506 348l-5 9q-8 16 -9 17q-5 8 -15 12l-7 -3q-9 -7 -16 -33v-1q-1 -1 -1 -2q-3 -19 -8 -31l-3 -14q-7 -29 -7 -74v-19q0 -7 2 -23q0 -2 1.5 -10.5t1.5 -13.5v-9q0 -23 3 -30q4 -11 2 -25q-1 -6 2 -14l1 -2l1 -2l2 -8
q10 -31 12 -35q6 -9 10 -9q15 10 17 12q4 5 17 31l2 9q16 47 20 82q3 27 2 49v10.5v12v9.5v15q-2 14 -6 26q0 3 -3 8.5t-3 13.5q-3 19 -10 32l-3 11v-1z" />
    <glyph glyph-name="ampersand" unicode="&#x26;" horiz-adv-x="455" 
d="M66 325l11 16v-1l15 40q15 35 35 62l6 7l-4 16l-3 11l-6 20q-2 5 -4 22q-1 3 -5 17.5l-6 21.5l-6 19q-11 26 -9 49q1 26 10 55q8 26 46.5 42t69.5 13q14 -1 24.5 -8.5t16 -16t9.5 -23.5t5 -24t2 -25v-8q4 -58 -34 -123q-6 -10 -1 -22h-1l14 -32q17 -41 23 -62l5 -17
q10 -36 16 -48q1 -3 12 -28q0 2 0.5 24.5t2.5 43t5 24.5q14 14 25.5 9.5t13.5 -23.5q1 -10 1 -51.5t-1 -49.5q-1 -6 -1 -17q-1 -18 -7 -48q-2 -18 6 -34l1 -3q13 -27 22 -65l7 -23q7 -16 20 -41q12 -23 -2 -37t-60 -14q-26 0 -41 17q-6 10 -13 36l-9 18q-40 -54 -93 -57
q-67 -3 -102 58q-25 44 -33 126q-2 24 0 72q1 3 1 10q1 8 7 31q2 7 9 21zM161 376l1 -1q-2 3 -3.5 6.5l-3 7t-2.5 4.5q-56 -85 -54 -193q0 -34 6 -57l17 -43v1q16 -45 48 -48q39 -6 66 34q11 19 19 45q-8 16 -8 22l-4 15l-12 27l1 -1q-25 63 -30 80q-11 36 -30 73zM216 575
q16 41 13 78q0 13 -6 27.5t-15 5.5q-14 -9 -14 -32q0 -10 5 -30q6 -36 13 -62z" />
    <glyph glyph-name="quotesingle" unicode="'" horiz-adv-x="165" 
d="M83 576q-11 0 -16.5 8t-6 15t-0.5 21q0 25 -7 45q-9 39 -2 64q6 12 19.5 21t26.5 5q22 -7 22 -48q0 -8 -3 -38q0 -2 -1 -4t-1 -3q-6 -38 -6 -58q0 -28 -25 -28z" />
    <glyph glyph-name="parenleft" unicode="(" horiz-adv-x="257" 
d="M161 715q-18 -45 -18 -142q0 -33 -1 -50q-1 -18 -1 -52q0 -18 0.5 -38.5t1.5 -45.5t1 -39q0 -5 0.5 -16.5t0.5 -17.5q1 -18 2.5 -52t1.5 -51q1 -18 1 -51v-50q2 -32 7 -59q4 -22 5 -39l2 -25q4 -43 9 -63q5 -16 11 -25q1 -1 3 -1q5 0 9 -2q15 -11 14.5 -25t-11.5 -25
q-8 -11 -23.5 -6t-27 12.5t-19.5 15.5q-23 23 -37 76q-18 70 -29 182q-12 108 -16 198v55q0 61 1 91q1 13 1 41q1 46 10 101q0 3 1 9t1 8q0 9 2 19q1 11 11 31l2 6l5 17q12 38 33 63q21 21 34 23l11 5h-1q8 6 17 7q18 2 30 -20t-8 -33q-8 -4 -11 -4l-12 -3q-8 -11 -13 -25z
" />
    <glyph glyph-name="parenright" unicode=")" horiz-adv-x="251" 
d="M60 -109q8 5 12 6l-1 -1q12 5 14 7t6 10t6 11q0 1 1 4v4q6 26 10 72q0 3 1 11t1 11q2 19 4 55q0 5 1.5 15t1.5 15q0 29 -1 42q-3 28 -2 50v49q0 34 2 52q0 5 -0.5 13t-2 16.5t-1.5 12.5q-3 24 -2 45q1 22 -1 55q-1 13 -1 44q0 43 -3 91q-1 31 -12 99q-4 18 -15 49
q-6 12 -6 14q-14 1 -21.5 11.5t-1.5 27.5q16 29 56 3h-1q39 -22 55 -66q7 -20 11 -67l3 -22q1 -6 3.5 -16t3.5 -12t1.5 -5.5t1.5 -9t2 -8.5l2 -24q0 -5 2 -19t4 -52v1l3 -37q6 -36 6 -74q0 -4 0.5 -12t0.5 -12q2 -18 2 -60v-93q0 -84 -8 -137l-3 -17q-17 -104 -45 -155
q-23 -40 -62 -45q-19 -3 -34 14q-10 22 7 34z" />
    <glyph glyph-name="asterisk" unicode="*" horiz-adv-x="252" 
d="M119 568q-21 6 -21 41q-34 -27 -49 -7q-6 9 4.5 23t25.5 24q-40 15 -30 41q11 26 50 6q2 42 26 42q21 0 26 -46q46 30 51 -6q2 -17 -29 -36q43 -13 29 -41q-11 -22 -52 -3q-2 -16 -9.5 -28t-21.5 -10z" />
    <glyph glyph-name="plus" unicode="+" horiz-adv-x="378" 
d="M157 190l-2 1q-4 2 -7 11q0 15 1 23q2 10 2 14q-1 6 -1 19v19l-2 19v5v2q-3 0 -8.5 0.5t-9.5 0.5h-23q-1 0 -4.5 -0.5t-5.5 -0.5q-50 -7 -50 21q0 13 10.5 21t23.5 7q18 -2 28 -2q3 0 8 -0.5t7 -0.5q8 0 20 -2h4q0 28 -1 37q-1 12 -1 39q1 19 12 30.5t30 11.5h5
q29 0 35 -12q3 -8 -2 -19q-2 -6 -1 -11q0 -6 2 -14q2 -14 2 -20v-39q0 -1 1 -1h23q27 2 43 -2q2 -1 9 -1q16 0 22 -8q16 -27 -35 -37q-18 -3 -46 0h-11q-1 0 -4 1t-5 1q0 -1 -0.5 -3t-0.5 -3t-0.5 -4t-0.5 -4q-2 -15 -1 -23q0 -8 5 -16l2 -5q9 -48 -13 -57q-5 -1 -15 -1
q-2 0 -5 -0.5t-5 -0.5q-24 -4 -35 4z" />
    <glyph glyph-name="comma" unicode="," horiz-adv-x="180" 
d="M78 100q25 11 44 -18q15 -25 10.5 -59t-22.5 -56v1q-23 -28 -41 -16q-5 7 -2 10.5l11 12.5t10 17l-2 18q-17 3 -28 15t-11 26q0 36 31 49z" />
    <glyph glyph-name="hyphen" unicode="-" horiz-adv-x="379" 
d="M319 345q17 -8 12 -25t-22 -20q-9 0 -13 3q-9 0 -25.5 -1t-25.5 -1h-91q-2 0 -7 1t-8 1q-34 2 -52 0q-17 -2 -30 4.5t-8 25.5q7 21 54 14q4 -1 8 -1q27 0 40 1h-1q11 1 33 1q6 0 18 0.5t19 0.5q11 1 37 1h11q38 0 51 -5z" />
    <glyph glyph-name="period" unicode="." horiz-adv-x="185" 
d="M93 4q-23 0 -34.5 14.5t-11.5 35.5t12 36.5t34 15.5t34 -15.5t12 -35.5q0 -22 -12 -36.5t-34 -14.5z" />
    <glyph glyph-name="slash" unicode="/" horiz-adv-x="311" 
d="M79 207l2 10q7 32 22 83q2 7 5 20.5t4 17.5q2 18 12 46l3 9q1 5 4.5 14t5.5 16t2 12l3 19q2 20 4 28q0 7 4 15l9 25q0 1 1 4v3q1 17 8 31v-1q1 4 12 43q1 3 4.5 16.5l9.5 36t11 47.5l4 15q7 46 23 57q15 11 21.5 2.5t8.5 -18t1 -18.5q-11 -53 -16 -72q-4 -11 -11 -44
l-6 -32q-37 -133 -43 -151q-30 -94 -39 -159q-3 -21 -24 -83q-15 -37 -21 -70l-3 -21q-5 -37 -13 -50q-12 -19 -25 -14t-14 26q-2 31 17 94q1 4 7 20t7 23z" />
    <glyph glyph-name="zero" unicode="0" horiz-adv-x="394" 
d="M51 370v3q-2 34 -2 50q-2 58 -2 95v11q0 52 9 75q9 19 13 34h-1q16 41 81 90q24 15 53 15q35 0 57 -17q19 -12 31 -31.5t15.5 -35t8.5 -41.5v1l6 -27q18 -65 23 -155v-56v-28q0 -4 0.5 -9t1.5 -11t1 -9q0 -8 0.5 -24t0.5 -23v-14q-2 -103 -11 -143q-19 -92 -88 -116
q-12 -4 -31 -4q-34 0 -71.5 20t-53.5 48q-16 31 -28 105q-3 23 -8 100q0 3 -0.5 9.5t-0.5 9.5zM256 652q-4 21 -25 32h1l-20 8q-10 -4 -12 -4q-29 -10 -34 -77q-1 -8 2 -44q2 -28 2 -43q0 -5 -3 -38q-2 -26 -2 -44q1 -22 1 -64v-113q0 -45 3 -92q0 -2 6 -31q6 -17 7 -40
q2 -31 20 -52q11 -11 44 3q44 23 49 126l4 45l5 43q1 40 -5 80q-2 28 -4 86q-1 19 -7 64v4q-4 36 -5 47l-4 34q-1 8 -12 42l1 -1q-10 20 -12 29z" />
    <glyph glyph-name="one" unicode="1" horiz-adv-x="305" 
d="M229 720q0 -30 2 -88q0 -38 -1 -49q-2 -28 -2 -39v-44q0 -7 0.5 -21t0.5 -22q-2 -57 -1 -87q2 -23 0 -46q-1 -14 -1 -38q0 -8 0.5 -22.5t0.5 -20.5q0 -7 -0.5 -21t-0.5 -21q-2 -60 -2 -89q2 -15 3 -24q5 -29 3 -38q19 0 25 -14q2 -10 -4 -21t-16 -13q-12 -2 -25 0
q-2 0 -6.5 0.5t-5.5 0.5q-35 0 -41 -1q-3 0 -9 -0.5t-9 -0.5q-1 0 -5.5 -0.5t-6.5 -0.5q-51 -2 -52 24q0 17 7.5 21.5t23.5 3.5q-1 16 1 46q0 2 0.5 8t0.5 9v46v37q1 25 -1 72q-2 32 -2 50q0 22 3 43q2 13 0 53q-1 8 -1 29q0 42 3 84q1 14 1 37q0 35 -1 53v-1q-1 13 -1 39
v16q-21 -32 -48 -27q-12 2 -14.5 10.5t3.5 19t12 18.5t13 15v1l12 14q11 12 15 16t15 10t22 6q1 0 4 0.5t4 0.5q15 0 33 1t33 -7.5t15 -27.5z" />
    <glyph glyph-name="two" unicode="2" horiz-adv-x="348" 
d="M203 758q22 0 52.5 -18t40.5 -37q9 -19 9 -45q0 -23 -5 -48q-2 -20 -9 -51q-7 -25 -12 -55q-3 -24 -11 -51l-13 -43q-5 -43 -21 -81q-3 -12 -5 -16q-2 -6 -19 -70q0 -4 -2 -12.5t-3 -13.5l-9 -47q-13 -84 -27 -121h9q20 -2 30 -2h7q11 0 11 -2q0 4 -1 9q-7 30 -2 32
q12 7 25 3q22 -6 18 -36q-1 -3 1 -10q2 -12 -1 -20l1 2q-4 -25 -39 -25h-22q-65 0 -87 1q-3 1 -13 1q-36 2 -51 13q-11 8 -4 40l4 11q2 29 14 72q1 2 3 7t3 7q8 34 11 49l7 33q8 27 18 76l12 43v-1l12 41q4 11 8 29q11 44 12 47q27 93 41 156q14 53 5 77q-6 6 -7 9h-4
q-5 2 -17 -8h2l-11 -17q-10 -16 -18 -25q-14 -13 -25.5 -5.5t-12.5 26.5q-1 22 31 54q25 26 64 22z" />
    <glyph glyph-name="three" unicode="3" horiz-adv-x="348" 
d="M90 649q-35 0 -15 51q12 28 24 38q18 15 39 15q14 11 32 2q68 -22 85 -43q27 -27 38.5 -69t5.5 -81q-8 -53 -103 -119q6 -4 21 -13l26 -16t12 -9q11 -13 29 -60q16 -66 16 -118q0 -15 -2 -41q0 -2 -0.5 -5t-0.5 -5q-7 -77 -21 -106q-6 -12 -14 -23q-14 -18 -40.5 -32.5
t-51.5 -14.5q-12 0 -36 4q-68 16 -85 72q-5 19 2.5 34.5t28.5 9.5q17 -9 19 -33q0 -2 2 -7q1 -4 0 -4q6 -13 15.5 -17.5t29.5 -9.5l8 -1q7 0 14 8.5t11 17.5q13 39 13 93q0 6 -0.5 17t-0.5 17v32q-2 104 -23 153v-2q-12 26 -19 31q-1 2 -9 4q-12 4 -17 12q-3 2 -4.5 4.5
t-2 4t0 4t1.5 4l3.5 5.5t3.5 6q3 7 8 10q23 12 37 51l8 16q12 22 12 41v14q0 93 -39 112q-24 9 -31 -11q-2 -4 -2 -9q-4 -34 -28 -34z" />
    <glyph glyph-name="four" unicode="4" horiz-adv-x="383" 
d="M204 754q4 0 14 2q66 6 78 -14q7 -15 3 -31l-1 -4q-2 -14 -1 -23q0 -2 0.5 -7.5t0.5 -7.5q2 -34 2 -56q0 -3 -3 -96q0 -7 -0.5 -19t-0.5 -19q-2 -48 -2 -71q0 -29 1 -45q0 -29 4 -57q1 -22 0 -43q10 1 14.5 0.5t12 -3t7 -9t-1.5 -17.5q-7 -15 -32 -17v-7q0 -11 1 -19
q0 -23 -1 -33v1q-2 -31 -1 -48q0 -21 -1 -26q-2 -17 -1 -24q1 -4 13 -4q20 2 27 -11q2 -8 -3 -21t-13 -19q-13 -5 -42 -6t-42 1q-14 2 -18 2q-6 0 -11 -1q-15 -4 -33 -0.5t-21 19.5t2 23q4 3 9.5 5.5t6.5 3.5q3 3 3 1q0 19 2 45v22v43v56h-51q-2 0 -7.5 -1.5t-7.5 -1.5
q-51 -7 -61 15q-7 19 7 55l1 1q1 1 3 12l9 45l4 21t5 24l21 80q5 20 26 83l21 71q1 5 2.5 14t1.5 11q5 29 14 52q3 3 4 11l7.5 22.5t10.5 15t18 4.5zM141 442l-21 -91q-5 -18 -9.5 -38t-7.5 -31.5l-4 -15.5h77v14q2 24 2 70q0 8 0.5 24t0.5 23q0 59 -1 89q-2 23 -2 78v2
l-7 -31q-5 -33 -14 -52q-1 -2 -2.5 -4.5t-1.5 -4.5q-8 -23 -10 -32z" />
    <glyph glyph-name="five" unicode="5" horiz-adv-x="362" 
d="M299 75q-8 -19 -38.5 -40.5t-53.5 -28.5q-38 -9 -66 -5q-34 4 -58 24.5t-29 53.5q-3 24 6 32q5 5 13.5 7.5t13.5 -2.5q3 -8 10 -13l7 -8l4 -12q1 -2 5 -9q16 -18 31 -18q16 0 28 12q15 15 18 21q2 6 2 18v4q0 13 3 24q0 2 1 5l1 3q3 20 3 60v15q0 28 -3 58q-3 75 -3 77
q0 57 -8 92q-9 32 -16 42q-11 19 -31 27q-23 7 -40 -10q-37 -28 -50 1v7l-1 1q-2 2 -0.5 9t1.5 8l1 2v1q-1 10 -1 33q0 32 1 46q0 4 0.5 14t0.5 14q4 27 -1 48q0 1 -0.5 3t-0.5 3v22q8 19 52 16l23 -3q2 -2 4 0q1 0 4.5 0.5t5.5 0.5q6 -2 20 0q78 3 88 -11q11 -6 11 -31
q0 -5 1 -8q9 -26 -8 -37q-6 -6 -20 -3.5t-16 11.5q-1 2 2 15q2 6 2 7t-0.5 1.5t-0.5 2.5v1q-5 0 -8 1q-6 2 -7 2q-14 0 -34 -2q-1 0 0 -4v-8q0 -8 -2 -18q-4 -34 -4 -68q35 0 45 -6l13 -7q35 -23 55 -55q21 -36 30 -126q0 -3 0.5 -7.5t0.5 -6.5l3 -30q7 -46 7 -84
q0 -14 -2 -34q-1 -9 -1 -51q0 -67 -14 -99z" />
    <glyph glyph-name="six" unicode="6" horiz-adv-x="362" 
d="M165 373q-10 -39 -15 -84q23 20 40 28q31 17 68 -3q43 -21 54 -90q4 -24 4 -57q0 -39 -8 -74q-7 -23 -10.5 -33.5t-14.5 -26.5t-27 -24q-14 -8 -26 -9q-8 -1 -14 0q-1 0 -4 2q-2 1 -3 1q-35 -12 -81 14.5t-61 71.5q-9 31 -10 56l-3 26q-7 36 -7 79q0 46 11 87q2 10 7 51
q1 4 2 15t1 15q16 98 39 161q4 11 6 34q7 38 9 44q3 7 10 30q8 17 13 30q4 12 30.5 18.5t42.5 4.5q17 -5 23.5 -20.5t4.5 -31.5q-3 -16 -20 -56l-10 -24l1 1q-5 -13 -15 -61q0 -1 -1 -4.5t-1 -5.5q-1 -7 -4 -18.5t-4 -16.5q-10 -33 -12 -47q0 -3 -1 -8.5t-1 -7.5
q-9 -53 -13 -67zM152 185v-1q-3 -18 -3 -35q0 -53 36 -85q10 -9 27.5 -11.5t28.5 5.5q25 31 28 61q2 19 -2 62l-3 28q-1 17 -2.5 24.5t-7 17.5t-15.5 17q-27 17 -52 -9.5t-33 -59.5q0 -3 -1 -7.5t-1 -6.5z" />
    <glyph glyph-name="seven" unicode="7" horiz-adv-x="375" 
d="M112 725l85 -4q37 0 75 2q5 0 15 0.5t14 0.5q17 0 26 -12q0 -1 1 -5t1 -7q0 -2 -0.5 -6t-0.5 -6q-2 -25 -8 -39l-3 -6q-6 -10 -8 -22l-6 -32q-5 -32 -15 -66q-3 -9 -5 -23t-5 -24l-8 -21l1 1q-7 -17 -8 -24v1q-10 -37 -11 -40q-2 -8 -4.5 -22t-3.5 -18q-15 -63 -20 -77
q-14 -43 -39 -160l-13 -34h1q-10 -28 -12 -39q-2 -17 -19.5 -28.5t-40.5 -13.5q-51 -3 -53 20q-2 15 8 33l-1 -1l3 9q13 42 23 95q8 42 14 63l9 28q14 50 14 51q2 17 9 48l6 27l12 40q1 4 4.5 17t4.5 18q3 11 10.5 36.5t10.5 38.5q15 39 28 97q2 8 12 52q-75 5 -84 5
q0 -5 1 -7v1q6 -21 -6 -30q-10 -8 -23 -3t-15 17q0 9 1 12q3 8 1 12q0 3 -2 19q-1 9 6.5 17.5t17.5 8.5z" />
    <glyph glyph-name="eight" unicode="8" horiz-adv-x="367" 
d="M299 667q8 -15 8 -41v-15q0 -34 -4 -59q-12 -71 -48 -98q41 -37 55 -119q12 -75 9 -138q-4 -86 -27 -132q-28 -48 -60 -62q-55 -15 -90 11q-34 23 -59 61q-26 39 -34 134q-5 58 15 140v-1q7 47 75 108q-29 22 -51.5 54t-26.5 61q-2 20 -2 31q0 71 28 117v-2
q17 28 54 41.5t73 9.5q24 -3 57 -40v1q11 -12 20 -39q1 -4 8 -23zM251 370q-7 30 -24 49q-6 7 -20 10t-20 -3q-13 -11 -17 -46q-5 -23 -7 -31l-6 -22q-8 -26 -4 -60v-26q0 -31 1 -37l14 -66l2 -22q2 -18 4 -27q9 -28 18 -35q2 -3 19 1l10 2q15 6 25 24q1 2 1 5q2 8 8.5 24
t9.5 27q12 34 12 62q0 8 -2 28q-2 16 -2 27q0 56 -22 116zM235 495q18 20 22 73q2 16 2 47q0 25 -1 36q-2 37 -31 58q-29 22 -43 4v1q-8 -11 -10 -32l-3 -19l-4 -22q-1 -10 -1 -31q0 -28 1 -43q0 -3 0.5 -9t0.5 -10q0 -46 23 -60t44 7z" />
    <glyph glyph-name="nine" unicode="9" horiz-adv-x="379" 
d="M48 620v-1q1 51 42 86.5t92 35.5q57 0 75 -13q22 -15 42 -40.5t25 -46.5q1 -4 7 -43q3 -15 -3 -44q-2 -4 -2 -9l-41 -233q-1 -4 -4.5 -20.5t-4.5 -25.5l-6 -33l-16 -74l-3 -12l-13 -66l-3 -18q-6 -47 -10 -53q-8 -11 -39 -11.5t-43 6.5q-23 15 -16 53l17 70v-1
q15 96 34 169v-1q4 19 8 32q21 81 25 107q-19 -14 -47 -14q-45 0 -84 42q-33 41 -33 116q0 28 1 42zM209 660q-32 32 -49 32h-2q-18 0 -30.5 -11t-20 -33t-10.5 -35t-7 -38q-3 -39 22 -78q25 -34 52 -35q28 10 45.5 49t18.5 74q0 54 -19 75z" />
    <glyph glyph-name="colon" unicode=":" horiz-adv-x="187" 
d="M93 7q-22 0 -34 14.5t-12 35.5q0 19 12 33.5t34 14.5t34.5 -15t12.5 -35t-12 -34t-35 -14zM93 457q-21 0 -32.5 15t-11.5 35q0 22 13.5 36.5t37.5 12.5q41 -3 41 -48q0 -20 -12.5 -35.5t-35.5 -15.5z" />
    <glyph glyph-name="semicolon" unicode=";" horiz-adv-x="189" 
d="M91 454q-21 0 -32.5 15t-11.5 36q0 23 14.5 38.5t36.5 14.5q19 -3 30 -18t11 -34q0 -21 -12.5 -36.5t-35.5 -15.5zM101 93q25 0 37 -19q6 -13 4 -32q-1 -5 -1 -15q0 -47 -24 -70q-13 -11 -33.5 -7.5t-11.5 24.5q2 4 9 13l8 18q-16 3 -25 16.5t-8 32.5q5 39 45 39z" />
    <glyph glyph-name="less" unicode="&#x3c;" horiz-adv-x="433" 
d="M381 287q11 -21 -6 -29t-36 -4q-17 5 -49 22l-14 8l-46 17l1 -1l-20 8q-8 3 -32.5 13l-37.5 15q-2 0 -4 1q-15 5 -29 10.5t-32 14.5t-25.5 20t-0.5 22q11 18 51 29q52 15 60 18q14 6 34 9q33 8 37 10q30 13 36 15l27 9q6 2 20 8q41 15 52 14q19 -3 18 -21t-16 -25
q-9 -4 -40 -14l-18 -5q-7 -2 -19 -6t-17 -5l-28 -10q-22 -9 -71 -23q-35 -12 -43 -16q-1 0 -3 -1l5 -2q33 -19 56 -23l33 -10h-1q4 -2 6 -2l9 -2q13 -3 23 -11q27 -22 71 -31l14 -3q28 -5 35 -19z" />
    <glyph glyph-name="equal" unicode="=" horiz-adv-x="384" 
d="M223 475q15 0 24 -3l17 -3q8 0 34 2q25 2 33 -13q5 -10 1 -18.5t-15 -10.5q-10 -3 -33 -3h-50q-4 0 -13 1t-14 1q-37 2 -55 -2q-17 -3 -35 -3q-5 0 -15.5 0.5t-16.5 0.5q-10 1 -21 5.5t-16 13.5t9 21q8 8 32 8h49q27 0 42 1q26 2 43 2zM332 343q20 -30 -31 -33h-25
q-56 0 -85 1q-2 0 -8 0.5t-9 0.5q-44 2 -65 0q-5 0 -9 -1q-36 -7 -44 11q-7 21 5.5 26.5t34.5 4.5h7q5 0 17 0.5t17 0.5h50h97q40 3 48 -11z" />
    <glyph glyph-name="greater" unicode="&#x3e;" horiz-adv-x="439" 
d="M276 439l40 -16h-1q38 -12 62 -30q44 -34 -50 -60q-1 -1 -2 -1q-58 -17 -114 -38l-83 -27q-4 -1 -16 -8q-57 -30 -64 10q-3 19 12 27t38 10l12 2q28 6 60 21q25 11 45 17q62 20 85 28l-35 12l-15 4q-27 6 -59 27l-9 6q-36 22 -71 33l-14 4q-31 6 -41 21q-10 16 -0.5 28.5
t27.5 7.5h-1q18 -4 59 -26h-3l2 -1h2q16 -11 70 -28q36 -11 64 -23z" />
    <glyph glyph-name="question" unicode="?" horiz-adv-x="312" 
d="M216 455q-18 -34 -28 -69q-1 -4 -3 -10.5t-2 -8.5q-11 -49 -11 -50q-3 -35 -3 -72q0 -22 2 -66q2 -36 -25 -40q-19 -6 -61 0q-2 0 -7.5 0.5t-6.5 0.5q-7 34 -7 91v28q0 57 3 113q0 2 0.5 5t0.5 4q0 4 1 9t1.5 8.5t0.5 4.5q8 19 29 46l6 6q1 6 10 22q0 1 5 13l13 24
q25 44 25 70v22q0 30 -4 43q-4 18 -11 25q-1 1 -2 3l-1 1l-4 2q-1 0 -3 -1l-3 -1l1 1q-24 -12 -25 -14q-8 -8 -12 -33q0 -1 -1 -3l-1 -2q-5 -26 -23 -26q-20 0 -22 19q-4 40 16 69q25 27 66 38q17 5 48.5 -3t44.5 -20q40 -42 41 -71q2 -55 -12 -91q-1 -3 -2 -6.5t-2 -6
t-1 -3.5q-2 -15 -10 -30zM127 92q21 0 32.5 -13.5t11.5 -31.5q0 -19 -13.5 -33.5t-35.5 -12.5q-21 1 -31.5 14t-10.5 31t13 32t34 14z" />
    <glyph glyph-name="at" unicode="@" horiz-adv-x="562" 
d="M95 498q32 59 87.5 105.5t115.5 53.5q69 8 130 -28q24 -16 45 -44q9 -15 20 -49l2 -10l6 -22q8 -24 10 -43q0 -10 2 -32l3 -35q0 -38 -14 -74q-13 -44 -23 -62q-49 -75 -107 -80q-55 -7 -72 56q-8 -9 -24 -16l-4 -2l4 1q-16 -11 -31 -8q-30 3 -61 22q-42 26 -42 103
q0 15 4 41q16 93 75 134q36 29 64 23q24 -5 46 -29q1 3 3.5 9.5t2.5 7.5q2 10 10 13l-1 -1q4 2 10 2q20 -2 27 -2q23 -6 29 -8l4 -3q3 -6 3 -13q2 -21 -5 -27q-6 -2 -19 2l-4 2l-3 1q-5 1 -5 -1q0 -1 -0.5 -4t-0.5 -5l-4.5 -17.5l-3.5 -13.5q-6 -14 -9 -33q-5 -25 -6 -41
q-2 -30 -4 -42q-2 -10 -2 -16l-3 -25l-3 -12q-3 -20 -2 -23q2 -32 33 -28q25 5 47 39q37 56 42 143q3 51 -12 99.5t-54 80.5t-92 23q-49 -6 -67 -22q-21 -18 -51 -40q-48 -35 -78 -118q-24 -67 -24 -114q0 -19 3 -37q17 -90 63 -121q47 -27 94 -27q24 0 41 8q15 5 26 15
q20 18 31 15q24 -10 17 -28t-28 -28l-11 -5q-36 -16 -55 -18q-43 -3 -77 6q-85 23 -123 94q-10 20 -20 72q0 1 -0.5 3.5t-0.5 3.5q-1 14 -1 45v32q-3 61 47 152zM270 269l-1 -1q18 17 32 58q15 43 16 70q2 43 -7 62q-2 4 -3 9t-6 7q-10 4 -16.5 3.5t-12 -7.5t-9 -15
t-6 -18.5t-4 -18.5t-2.5 -15.5t-1 -9.5q0 -4 -3 -19q0 -5 -2 -13q-1 -6 -2 -23t-1 -20q-7 -38 6 -53q7 -9 22 4z" />
    <glyph glyph-name="A" unicode="A" horiz-adv-x="479" 
d="M181 1q-26 -2 -63 1q-16 2 -20 2l-7 -2q-31 -4 -40 5q-4 7 -4 18.5t3 18.5q4 7 20 7h7q4 0 5 7q0 4 1 11t1 10q2 23 5 32q9 29 9 52q0 40 13 96l6 21q8 54 11 79l3 29q2 33 6 46q15 74 20 164l6 60l3 28q0 2 0.5 5t0.5 4q5 45 28 56q18 8 43 6q26 0 34 -2q6 3 15 -1
q18 -8 18 -44v-10l23 -154q18 -107 25 -169q2 -24 8 -53l2 -14v1l7 -37v-6q0 -1 1 -2q0 -1 1 -5v-4q3 -13 2 -15q0 -7 2 -17q0 -1 0.5 -4t0.5 -4q6 -36 14 -92q0 -5 9 -65q11 2 18.5 1.5t11 -8t1.5 -22.5q-3 -15 -12 -21q-8 -5 -22 -1l-3 1q-2 0 -5.5 -0.5t-5.5 -0.5h-9
q-1 0 -4 -0.5t-5 -0.5q-34 -2 -38 2q-8 9 -3 26q2 14 7 22h-1q3 4 6 6t4.5 2t5 -1.5t4.5 -1.5l-10 68l-3 32q-5 42 -8 55l-2 13l-6 25l-20 -3l-16 -2l-42 -2q-2 0 -6 0.5t-5 -0.5q-1 -2 -1 -8q-13 -54 -15 -90q0 -4 -3 -22q-2 -14 -2 -22q0 -28 -3 -41l-2 -6t-2 -7
q1 0 2.5 -1t2.5 -1t3 -0.5l2 -0.5q14 -3 14 -24q0 -13 -6 -18.5t-12 -6.5t-18 0h-11zM300 435q-3 42 -17 121q-1 7 -1.5 6.5t0.5 -1.5q0 -3 -1 0q0 2 -1 6l-6 -31q-2 -10 -4 -28.5t-2 -21.5q-3 -32 -4 -36q0 -4 -2.5 -13.5t-3.5 -14.5q-5 -33 -10 -57q-2 -17 -4 -23
q-9 -27 -10 -48q30 2 46 6l34 7l1 1h2q3 0 2 3q-13 54 -19 124z" />
    <glyph glyph-name="B" unicode="B" horiz-adv-x="405" 
d="M57 699q-7 0 -8.5 11t2 23t8.5 14q6 3 23 1q3 -1 10 -1q24 2 38 2q48 0 64 -5q40 -8 81 -36q38 -27 44 -62q5 -21 -2 -67q0 -1 -0.5 -4t-0.5 -5q-11 -68 -84 -114q96 -64 118 -176q9 -52 7 -87q-4 -27 -31 -70q-29 -44 -78 -79q-33 -24 -76 -38q-19 -6 -89 -6h-13
q-12 0 -12 23q-2 29 21 32q-1 10 -1 29q0 27 1 39q0 15 2 27q4 30 3 42q0 11 -2 35q-3 33 -2 41q0 2 0.5 7.5t0.5 8.5q2 39 -1 68q-4 54 -2 82q5 63 5 112q0 27 -1 40q0 5 -0.5 13t-0.5 12q-2 37 -1 55q2 18 -2 32h-13q-2 0 -4.5 0.5t-3.5 0.5zM236 390l-18 18q-2 1 -15 11
q0 -3 2 -15q2 -10 2 -16q1 -15 -1 -37q0 -1 -0.5 -6t-0.5 -6q-1 -15 -1 -47v-15v-18v-14q-1 -11 -1 -34v-83v-23q0 -15 1 -23q1 -4 1 -6q47 26 79.5 69.5t28.5 89.5q-3 43 -27 101q-8 15 -32 37v-1q-2 1 -8 7.5zM264 562q8 22 8 39q0 30 -18.5 55t-49.5 36q-1 -18 -1 -54
q0 -33 1 -48q2 -28 2 -43q0 -6 -0.5 -20t-0.5 -21v-9q45 34 59 65z" />
    <glyph glyph-name="C" unicode="C" horiz-adv-x="352" 
d="M51 229q-2 10 -2 35t1 35v11q0 5 -0.5 16t-0.5 15q-2 29 -1 46q3 42 3 86q0 18 9 65l3 10q4 23 17 63l6 19q16 49 32 71q10 13 40 28.5t46 10.5q32 0 51 -21q6 36 39 15q14 -9 9 -50q-4 -14 -2 -21q0 -1 1 -2.5t1 -2.5q6 -24 -10 -28l1 1q-11 -5 -25 -3q-19 2 -27 31
l-3 6v-2q-5 15 -17 24.5t-25 4.5q-8 -3 -10 -40q0 -2 -0.5 -6t-0.5 -5q-13 -86 -14 -114q0 -1 -0.5 -4t-0.5 -5q-2 -26 1 -44q3 -16 0 -39q0 -1 -0.5 -5t-0.5 -5l-2 -83q-2 -33 4 -103q5 -58 5 -69v-19q0 -16 1 -23q0 -7 2 -17l5 -20q0 -1 0.5 -5t0.5 -5q3 -32 12 -37
q11 -1 23.5 10t16.5 23q4 9 6 34q0 12 1 16q1 11 3 19t9.5 15t19.5 4q23 -7 13 -63q-2 -4 -2 -11q-6 -38 -19 -54q-25 -31 -55 -36q-34 -5 -64 14t-46 49l-13 21v-1q-5 7 -8.5 15t-6.5 14t-6 16l-4.5 15t-3.5 17t-2.5 15.5t-3 16.5t-2.5 16z" />
    <glyph glyph-name="D" unicode="D" horiz-adv-x="419" 
d="M51 0q-3 0 -3.5 12.5t3 25t10.5 12.5t18 4v16v32q1 16 1 46q0 33 -1 48q0 37 1 54q1 7 1 34q-1 26 -1 90v90q-1 32 1 92v89l-3 40v1h-8q-10 2 -14 2q-8 0 -8.5 21t5.5 25h-2q8 8 28 6q2 -2 3 -2q12 -1 34 -7q3 -1 14.5 -3t22.5 -5t18 -7l21 -8h3l2 -1q25 -8 38 -20v1
q44 -35 77 -89q41 -63 56 -148q4 -20 4 -53q0 -50 -15 -110l-4 -18q-8 -38 -18 -61q-6 -14 -37 -64q-5 -10 -13 -18q-6 -9 -12 -17h1q-13 -18 -27 -35q-28 -37 -67 -57l-6 -3l-39 -9h2l-15 -3q-19 -3 -59 -3h-12zM292 545q-2 7 -28 43l-11 16q-9 14 -33 38v-13q0 -10 -2 -28
t-2 -24q-2 -36 -2 -51l2 -145q0 -52 -4 -80q-3 -13 -1 -51q0 -2 0.5 -8t0.5 -9q0 -24 -2 -68q-4 -50 -3 -61l7 13v-1q5 8 9 13.5t5 7.5q6 6 41 49q32 42 43 113q4 22 7 33l8 28q2 22 -3 56q0 2 -1 5t-1 5t-0.5 5t-0.5 4q-6 45 -9 56q-4 8 -4 10q-6 26 -16 44z" />
    <glyph glyph-name="E" unicode="E" horiz-adv-x="369" 
d="M61 696h-1q-20 12 -10 33v-1q9 14 32 14h10.5t5.5 1t10 1q26 2 63 2q58 0 84 -1l21 -3q4 -2 9 -2q17 -6 15 -23v-5q0 -2 0.5 -4.5t0.5 -3.5q3 -16 -7 -36q-5 -6 -16 -5t-17 7h1q-9 7 -9 22v3h-45q-2 0 0 -3v-29q0 -3 -0.5 -9.5t-0.5 -8.5v-28q1 -15 -1 -43q-1 -8 1 -22
q1 -6 1 -8q49 3 61 -7v1q15 -17 1 -29t-31 -13l-25 -3h-6q-1 0 -1 -2q-2 -15 -2 -45v-15v-18.5v-16.5q0 -5 0.5 -16.5t0.5 -17.5q0 -27 -1 -41v1q-2 -24 0 -49v-78q0 -3 0.5 -9t0.5 -10q3 -36 3 -73q0 -39 -3 -58q22 0 62 2q3 0 3 10q2 23 17 24q40 0 33 -38q0 -1 -0.5 -4
t-0.5 -4q-1 -10 -2 -15.5t-7 -10.5t-17 -5h-1q-3 0 -13 -2q-3 -1 -10 -1h-74q-44 2 -86 2q-7 0 -23 -0.5t-24 -0.5q-11 0 -17.5 11.5t-3 23.5t16.5 12q2 0 7.5 -0.5t8.5 -0.5h15v8q0 16 5 41q0 1 0.5 5t0.5 6q1 40 -4 94l-2 34q-1 40 2 89q0 3 2 23t2 31q0 12 0.5 37.5
t0.5 37.5q0 13 -0.5 38.5t-0.5 39.5v148q0 10 1 13h-6h-7h-6h-3q-5 0 -14 3z" />
    <glyph glyph-name="F" unicode="F" horiz-adv-x="357" 
d="M58 707q1 0 3 1q-14 1 -14 29q2 19 29 23q62 6 213 6q6 0 10 -8l5 -20q8 -32 5 -44q-4 -15 -19.5 -18.5t-23.5 9.5q-4 10 -4 23v3q-22 -2 -31 -2h-11q-4 0 -4 -5q-1 -10 -1 -47q3 -23 3 -52q0 -26 -2 -44q18 -3 35 -12.5t20 -23.5q6 -22 -12 -25t-37 6q-2 0 -6 1.5
t-7 2.5l-3 1l11 -63q3 -39 3 -120q-4 -91 -7 -146q0 -2 -1 -9t-1 -9q-3 -27 -3 -52q0 -28 7 -53q28 2 41 -9l3 -32v-6q-7 -17 -58 -8q-4 1 -7 1q-32 2 -87 -1q-14 -1 -45 -1q-6 0 -9 3q-4 3 -4 9v7q-2 21 11 27h-1q5 5 23 5q0 10 0.5 20.5t1.5 24t1 20.5q2 32 2 51
q0 43 -4 127q0 40 1 49q1 16 1 49q0 2 -0.5 6.5t-0.5 7.5q0 6 -1 16t-1.5 18.5t-0.5 16.5q0 12 2 32q1 9 1 35q0 29 -4 91q0 3 -0.5 9t-0.5 10q-2 42 0 64q1 6 -2 6h-19zM55 715l8 -8q-4 0 -6 2t-2 4v2z" />
    <glyph glyph-name="G" unicode="G" horiz-adv-x="409" 
d="M72 170q-3 30 -11 68q-15 78 -13 112q1 12 1 37q3 48 4 54l1 1v3q6 41 9 80q1 22 9 55l8 29q6 42 24 78q10 19 33.5 37t40.5 18q42 0 56 -8q-3 15 1.5 25t20.5 9q26 -2 20 -26q-2 -12 -1 -16q0 -2 1 -5q8 -50 -3 -60q-13 -7 -26 -2.5t-21 13.5l-6 9q-10 14 -15 14
q-9 -4 -15 -38q0 -2 -1 -6t-1 -5q-12 -54 -15 -81q0 -6 -1 -18t-1 -18q0 -13 -3 -25l-3 -11q-3 -19 -1 -53q0 -3 0.5 -9t0.5 -10v-23q0 -46 1 -55q2 -11 2 -39q0 -14 2 -40l2 -22q4 -32 4 -54v-8q0 -39 6 -59q2 -6 4 -24q5 -34 9 -39q4 -6 9 -8t9.5 1.5t9 8t9 12t7 12.5
l5.5 11q9 23 14 67q0 2 1.5 6t1.5 5q7 36 12 72q1 13 1 46v4q0 11 -1 13v-1l-10 -1h-6h-4q-2 0 -18 -2q-20 -6 -38 -1.5t-17 25.5q0 18 8 23h1q3 2 11.5 2.5t14.5 -0.5q1 0 4 -0.5t4 -0.5q36 2 60 2l38 2q3 0 6 1q19 5 26 0q10 -7 7.5 -25t-13.5 -21l1 1q-8 -3 -19 -1h-3
q2 -16 0 -28v-84q0 -15 0.5 -42.5t0.5 -40.5v-28v-51v1v-18t-5.5 -15t-17.5 -5q-27 2 -27 47v8q-12 -20 -24 -31q-20 -23 -48 -23q-38 0 -54 13q-36 19 -56 68q-17 38 -23 88z" />
    <glyph glyph-name="H" unicode="H" horiz-adv-x="423" 
d="M66 704q-7 -2 -12 3q-4 8 -4 10v26q0 8 8 11l6 3q26 2 49 0q19 0 22 -1q27 -3 47 -1l2 1h3q16 4 35 0.5t15 -20.5q-2 -19 -11 -26h1q-9 -9 -24 -7q4 -1 4 -13v-53q0 -9 -0.5 -27t-0.5 -26q-1 -30 -1 -90q0 -44 1 -65q1 -20 2 -59.5t1 -44.5t0.5 -5.5t5.5 -0.5q20 0 29 -1
q9 0 21 -2q18 -2 21 -2q0 8 0.5 25t0.5 26t-0.5 28.5t-0.5 30.5v26q0 4 0.5 14t0.5 14q0 9 -2 21q-3 22 -2 29q0 13 2 19q2 20 2 32q0 4 -0.5 11.5t-0.5 10.5v32q0 13 1 17q2 20 0 30q0 2 -0.5 4t-0.5 4q-3 15 -3 28q-18 0 -25 18l1 -1q-8 21 8 29q15 4 36 2q1 0 3 -0.5
t3 -0.5q10 -2 19 -2q15 0 21 -1q4 0 8 -4t4 -9v-4l2 -6q-6 -15 -16 -16q-5 -2 -14 -2q2 -34 2 -49q0 -22 -1 -30q0 -12 -2 -28q-2 -20 -2 -46q4 -40 4 -99q0 -26 -2 -84q0 -76 1 -95q0 -8 -0.5 -22.5t-0.5 -21.5v-45q0 -10 1.5 -28t1.5 -22q3 -25 3 -58q0 -22 -2 -37
q3 0 6 1q9 1 16.5 1t12.5 -6t4 -19q-3 -18 -12 -24q-4 -4 -17 -1q-3 1 -4 1q-2 0 -3.5 -0.5t-2.5 -0.5q-3 -1 -9 -1h-30q-3 0 -9.5 0.5t-10.5 0.5t-6 1.5t-3 4.5t-1 5v6v5q4 28 12 31q4 2 10 1v28v24q-2 54 -2 89v21q0 3 -0.5 10t-0.5 11v8q0 1 0.5 4.5t0.5 5.5q0 1 1 3v3
l-29 3q-10 2 -16 2q-9 0 -19 -2q-4 -1 -14 -1q-2 -22 -3 -32q-3 -16 -3 -35v-37q0 -23 1 -35q0 -47 3 -70v-3l16 -6l-1 2q9 -3 12 -15l-1 1q4 -6 3 -22t-13 -16q-11 0 -33 2q-20 2 -52 2q-4 0 -16 -2q-1 0 -4.5 -0.5t-5.5 -0.5h-8h-13q-23 -4 -45 4q0 22 2 35q12 6 25 8
q-1 8 1 49q1 10 1 31l-2 84q-4 43 -4 102q0 46 4 81q4 44 4 98q0 45 -2 67q0 2 -0.5 6.5t-0.5 7.5q-5 36 -3 75v54h-6z" />
    <glyph glyph-name="I" unicode="I" horiz-adv-x="278" 
d="M56 716l1 -1q-10 3 -9.5 25.5t10.5 22.5q26 0 37 -1h-2q60 -3 75 0q1 0 2.5 0.5t2.5 0.5q50 9 57 -15q4 -11 -4 -33q-6 -8 -25 -6q1 -32 -2 -69q0 -42 1 -54v1q2 -18 2 -29q0 -13 -2 -35q-2 -42 -1 -50q0 -1 0.5 -5t0.5 -6q4 -22 3 -36l-3 -36q0 -3 -0.5 -13.5
t-0.5 -14.5q-2 -24 -2 -71t3 -70q1 -22 -1 -62q0 -3 -1 -12t-1 -13q-1 -18 2 -44v1q2 -18 2 -30q8 0 13 -4q7 -4 7 -15v-22q0 -11 -4 -15q-11 -11 -41 -3l-2 1q-1 0 -5.5 0.5t-6.5 0.5q-37 3 -56 0q-15 0 -36 3t-21 8v11q0 2 0.5 7t0.5 7q0 6 4 9q1 0 3 1.5t4 2.5l17 3
q-3 42 -3 92q0 11 0.5 33t0.5 34q0 11 0.5 34.5t0.5 35.5q0 11 -2 35v1q-1 10 -1 45q2 82 2 134v48q0 9 -2 35q-3 27 -3 57q0 2 -0.5 6t-0.5 6q0 5 -0.5 15t-0.5 16q0 20 1 29z" />
    <glyph glyph-name="J" unicode="J" horiz-adv-x="361" 
d="M118 1q-20 2 -39 12q-32 19 -32 67q0 41 28 33q4 -1 6.5 -3l4.5 -3.5t4 -5t2.5 -5l2 -6t2.5 -6.5l1 -2v-3q7 -30 15 -32q16 -9 29 10q16 30 16 97v19q2 42 4 61q4 46 5 74q1 9 -2 75q-2 32 -2 57q0 10 2 34q2 25 1 39l-3 87q-2 32 -2 50q-1 19 0 41q-27 0 -30 11
q-4 18 9 31h-1q10 17 33 9h2q12 -2 36 -2h8q34 0 66 4q26 3 29 -13v1q5 -18 -6 -29t-28 -12v-1q3 -29 0 -40q-2 -18 -2 -34q0 -4 -0.5 -10t-0.5 -8q0 -7 -0.5 -21t-0.5 -20q0 -35 3 -67q0 -21 -1 -26t-1 -15q-2 -62 -1 -94v-30q0 -105 -3 -159v-11q0 -2 -0.5 -6t-0.5 -6
q-4 -45 -17 -73q-13 -34 -54.5 -53.5t-81.5 -15.5z" />
    <glyph glyph-name="K" unicode="K" horiz-adv-x="457" 
d="M80 720h-1q-17 -3 -25.5 8.5t-4.5 26.5q4 12 29 10q1 0 3.5 -0.5t3.5 -0.5h41q7 0 21 2q71 9 85 -11h-1q10 -10 -1 -30q-6 -10 -20 -8q0 -4 -0.5 -12t-0.5 -11q0 -1 -0.5 -3t-0.5 -3q-1 -7 -1 -19v-19q0 -4 0.5 -14t0.5 -15v-22q47 74 61 117q-13 0 -19 14q-1 3 -1 18
q1 28 51 16q13 0 17 1h-1q34 8 40 -12q5 -22 -4 -31v1q-6 -8 -23 -8h-5l-2 -1l-72 -123l-36 -62q-1 -1 -1 -2l7 -7q19 -19 27 -34q17 -28 31 -83l4 -16t6 -18q26 -76 39 -135l35 -145q4 -11 8 -35q2 1 4 1q6 -1 13 0h-1q23 5 24 -14q2 -13 -3 -24q-5 -8 -29 -10q-5 0 -8 -1
q-20 -3 -40 0q-21 2 -26 17q-8 23 10 30q4 2 6 2l-3 11l1 -2l-7 22q-1 3 -1 4q-12 54 -16 79q-6 33 -15 67q-2 7 -4 17q-13 43 -14 46q-17 36 -31 91l-10 35q-10 37 -32 46l2 -2q1 -2 3 -5.5t4 -7.5l3.5 -7t1.5 -4q0 -3 2 -21q2 -10 2 -19q0 -5 2 -15q4 -42 1 -63
q-4 -31 -4 -73q0 -9 0.5 -26t0.5 -27t-0.5 -28t-0.5 -27q0 -19 3 -42q4 -39 3 -49q22 -3 25 -29q2 -18 -3.5 -22.5t-24.5 -3.5l-35 3q-15 -4 -52 0q-1 0 -3.5 -0.5t-4.5 -0.5q-42 -5 -51 7h1q-10 11 -5 25.5t22 14.5q3 0 3 2v5q0 10 2 22q0 2 0.5 6t0.5 5q2 26 -1 61
q-1 11 1 49q1 6 1 17q1 18 -1 53q0 2 -0.5 7.5t-0.5 9.5q-1 12 3 39l3 23v64q1 33 0 66q0 5 -0.5 15t-0.5 16q-1 11 -1 35q0 9 2 25v-1q1 12 1 42v35q0 8 -2 32q0 1 -0.5 5t-0.5 6q-2 23 1 35q-2 0 -5.5 -1.5t-4.5 -1.5zM369 54h-1h1z" />
    <glyph glyph-name="L" unicode="L" horiz-adv-x="348" 
d="M299 59q-1 -5 1 -14v1q1 -4 1 -17q-3 -29 -46 -29q-3 0 -27.5 3.5t-28.5 2.5q-34 -2 -51 -1q-1 0 -15 -1t-16 -1q-1 0 -4 -1h3q-11 -3 -24 0q-22 -2 -35 -1q-8 3 -10 6v40q14 2 23 2v22q0 7 -1 11q-2 8 -2 17v33q0 20 1 31q2 20 2 29t-2 31q-2 28 -2 45q0 24 3 45
q0 3 1 12l2 27v-5q2 20 2 58v20q0 6 -1.5 18t-1.5 15q-2 24 -1 37v5q5 60 5 68t-0.5 25t-0.5 25q-2 14 -2 48q0 32 2 43h-25v23v21q40 2 93 2q38 0 58 1h-1q23 4 26 -13q1 -17 -3 -23.5t-19 -7.5q0 -7 -2 -25q-1 -4 -1 -8v-40q0 -4 -0.5 -10.5t-0.5 -9.5q-2 -14 -2 -38
q0 -20 2 -29q2 -13 0 -43q0 -33 1 -40q1 -17 1 -52v-34q1 -29 -2 -61q0 -3 -1.5 -11t-1.5 -12q0 -11 3 -26q2 -12 2 -19q1 -19 -2 -41v-45q2 -13 -2 -24q-1 -6 -1 -16q0 -21 4 -38q3 -18 3 -37l54 -4h-1q2 0 1 6l-1 3v4v1q-1 1 -1 2v-2q-8 23 9 24q11 1 24 -2q13 -4 11 -26z
" />
    <glyph glyph-name="M" unicode="M" horiz-adv-x="475" 
d="M83 0h-2q-14 0 -19 1q-14 5 -14 24q0 11 5 16.5t9.5 6t15.5 0.5h1v70v13.5v16v14.5q2 32 -3 65q-2 14 2 48q0 2 0.5 6t0.5 5q1 9 -1 32q-1 11 -1 31q1 15 -2 33l-4 26q0 22 1 33q3 15 2 31q0 4 -3 34q-2 14 -2 26q-1 12 -1 46v103q0 13 -0.5 25.5t4 24t14.5 17.5
q12 5 26 -3t19 -17q5 -8 22 -21.5t21 -17.5l-1 1q14 -11 32.5 -30l21.5 -22l24 -27q3 6 8.5 15.5t6.5 11.5t5.5 12t6.5 14q1 2 6 8t7 9h-1l8 11l7 14l9 19q10 17 24 24.5t31 -5.5q15 -18 8 -58q-2 -13 1 -48q2 -16 2 -27q1 -16 -1 -50q-1 -12 -1 -31q0 -18 2 -54
q0 -5 0.5 -14.5t0.5 -13.5t0.5 -13.5t0.5 -15.5q0 -29 1 -45v1q6 -36 6 -109q0 -35 1 -54l2 -129q0 -10 2 -24l1 -2h19l8 -3q7 -9 7 -13q0 -17 -7 -23q-3 -2 -26 -2h-5l-57 -2q-13 0 -17 8q-2 3 -2 6q-1 7 -1 21l12 6q3 0 10.5 2t9.5 2q0 10 -5 100l-3 62q-1 14 1 45
q1 16 1 47q0 3 -0.5 10t-0.5 10q-1 5 -1 21v22q0 4 0.5 11t0.5 10t-0.5 11t-0.5 12q-4 66 -4 106q0 29 1 44q0 20 -3 77v5v5v1l-19 -33q-17 -44 -40 -64q-23 -21 -58 17q-4 3 -23 25q0 1 -1 2v-36q0 -36 1 -55q0 -11 2 -35q0 -2 0.5 -8t0.5 -9v-23q0 -21 1 -31q3 -26 5 -119
q0 -28 3 -100q0 -13 -2 -41q-4 -40 -1 -55v2l3 -14q4 -9 6 -32h7q1 0 2.5 0.5t3 0.5h3t4 -1.5t5.5 -4.5l3 -23q2 -15 -3 -19t-17 -1q-16 4 -34 4q-56 0 -101 -5zM173 691h-1l1 -1v1z" />
    <glyph glyph-name="N" unicode="N" horiz-adv-x="460" 
d="M316 709l-1 1q-7 3 -8 20.5t2 21.5l-1 -1q5 18 45 7q10 -2 14 -2q3 0 5 1q14 7 28 3t13 -25q0 -21 -9 -26q-6 -5 -18 -3v-69v-46q0 -31 -2 -46v-78q0 -2 -1.5 -8.5t-1.5 -9.5v-118q0 -13 0.5 -39t0.5 -39q0 -32 -1 -49l-3 -29v1q-3 -46 -2 -86q0 -2 0.5 -5.5t0.5 -5.5
q2 -41 -10 -56h1q-12 -17 -34 -1q-8 6 -12 27q-1 23 -14 63q-8 21 -9 25q-21 75 -52 172l-15 46q-21 69 -26 127q0 3 -14 53l-2 9v-2l-4 13v-16q0 -9 -2 -25q-4 -29 -1 -48q0 -1 0.5 -4t0.5 -5q6 -37 1 -64q-3 -17 -1 -47q0 -4 0.5 -12t0.5 -13v-54q0 -59 -2 -88
q0 -9 -2 -19q-2 -13 -1 -17l4 -30q0 -1 0.5 -5t0.5 -6q5 -37 5 -46q50 2 36 -38q-5 -18 -37 -16h-4q-27 -4 -42 -1q-31 0 -39 2q-14 2 -23 2h-4q-21 0 -27 11q-5 15 -2 27q2 13 22 11v14q-1 7 -1 24q0 19 1 29q2 18 2 26v54q0 5 -2 21q-2 21 -1 30q5 55 5 60q0 14 -4 40
q-3 20 -3 42q0 5 0.5 17t0.5 18q0 5 0.5 15t0.5 16q0 53 3 104q0 30 -1 37q-2 45 0 59q0 14 -2 24q-8 30 3 48v-1q6 12 34 17h1q1 1 2 1q15 2 42.5 -3t34.5 -14q5 -6 10 -31q0 -1 0.5 -2.5t0.5 -3.5q12 -44 20 -78l9 -34q8 -35 11 -42q7 -20 10 -45q1 -12 8 -33l9 -23
q12 -42 14 -52q4 -23 19 -66l4 -11q9 -24 27 -98l1 -8q0 -1 1 -2q0 15 2 51q0 7 0.5 27t0.5 28q0 6 0.5 18.5t0.5 18.5q0 10 0.5 31t0.5 31q0 19 -2 61q0 36 3 57l3 27q3 36 3 76q0 5 -0.5 12.5t-0.5 10.5v41q0 13 1 18h-2q-6 0 -8 -1q-9 -4 -16 -1z" />
    <glyph glyph-name="O" unicode="O" horiz-adv-x="362" 
d="M48 494q-1 13 1 40q0 4 2 14t2 13q-1 11 6 43q0 1 1 4l1 4l16 52l3 9q11 29 22 40q16 18 54 27t60 1h-1q38 -15 64 -82q8 -15 12 -44q1 -3 2 -9.5t2 -11.5t2 -9q3 -13 3 -49v-23q0 -8 1.5 -17t4 -20t3.5 -18q5 -28 5 -32q2 -26 2 -39q0 -7 -0.5 -20.5t-0.5 -19.5
q0 -102 -3 -155q-6 -94 -39 -148q-30 -44 -80 -44q-24 0 -42 14q-26 20 -47.5 54t-27.5 66l-5 21q-17 77 -20 171q0 11 -2 35q0 9 -1 26.5t-1 26.5q0 21 1 30v-1q2 25 0 51zM237 643l-6 14q-14 33 -25 35q-4 1 -9 -1l-7 -2h2q-13 -6 -16 -11q-4 -10 -9 -39q-3 -23 -3 -47
q0 -14 -2 -40q-1 -9 -1 -30q0 -31 -2 -46q-2 -18 0 -46v-35q0 -18 2 -50q0 -4 0.5 -12t0.5 -13l3 -32q4 -34 4 -51q0 -4 -0.5 -14.5t-0.5 -15.5q-1 -25 0 -50q0 -1 0.5 -4t0.5 -5q1 -15 3 -29t5.5 -33.5t10 -29.5t15.5 -8q22 5 39 45l5 24l15 44q4 14 4 41q0 24 1 33
q2 20 0 57q-1 6 -1 24q0 24 3 43q4 31 3 45q-1 21 -7 59l-4 22l-4 20q-6 46 -8 66q-2 53 -12 72z" />
    <glyph glyph-name="P" unicode="P" horiz-adv-x="360" 
d="M117 750q70 -5 103 -21q57 -32 77 -75q17 -34 17 -71q0 -92 -35 -133q-25 -29 -41 -37q-5 -3 -5 -13q1 -8 1 -29q1 -8 -2 -37q-1 -6 -1 -18q-1 -9 -1 -26v-73q0 -42 -1 -63v-44q1 -14 1 -56q23 -5 23 -26q0 -15 -6 -22t-21 -6h-37q-71 0 -96 3q-23 4 -19 35q1 8 6 11.5
t7 3.5h11q7 0 7 1q3 16 1 34v25q2 42 2 65q0 6 -2 26q-3 29 -2 35v66q-1 1 0 40v39q0 8 0.5 26.5t0.5 28.5q0 5 -0.5 16t-0.5 17q-1 16 -1 56q0 31 2 47q3 27 -1 74q-3 24 -3 53q-1 0 -5 -0.5t-5 -0.5q-15 -2 -25 -1q-19 0 -19 16q0 19 16 28q8 6 26 6h28zM283 595
q-6 24 -21.5 49t-29.5 35v-26q1 -5 1 -19q0 -2 -0.5 -5t-0.5 -5q-2 -25 0 -36q4 -48 2 -95v-38l12 15q11 16 14.5 23t11 23.5t10 36t1.5 42.5z" />
    <glyph glyph-name="Q" unicode="Q" horiz-adv-x="372" 
d="M220 731q10 -2 18 -5q36 -17 46 -52l-1 1q9 -23 21 -90q3 -28 9 -66l3 -27q2 -22 2 -70v-9v-11v-9q2 -66 2 -101q-3 -38 -10 -80q0 -2 -1 -7t-1 -6q-6 -43 -24 -97q-16 -53 -41 -79l21 -22h-1q15 -18 16 -18q12 -6 33 20l3 3q16 15 27 9t10 -27q0 -16 -12 -29t-28 -20
q-40 -17 -64 6h1q-12 10 -16 19q-16 22 -29 25q-8 3 -13 -6q-1 -1 -1 -2q-5 -16 -23 -23q-7 -2 -14.5 4t-9.5 15q0 8 5 25q-58 37 -71 68q-7 16 -15 67q-11 67 -12 120v56q0 56 -1 62q0 26 1 40q5 90 28 171l5 17q12 51 33 85q4 5 12 11.5t18.5 13t13.5 8.5q13 8 53 10h7z
M257 176l7 44q8 54 9 83q2 27 0 39q-3 33 -5 96l-2 61q-2 29 -10 53l-5 28q-2 16 -7 61l-2 8q-2 7 -3.5 13.5t-5.5 16t-8 11t-9 -1.5q-7 -6 -16 -42l-5 -12v2q-10 -46 -11 -84q1 -15 -3 -46q-2 -18 -2 -27v-12v-13.5v-11.5q0 -38 -1 -46l-3 -26q0 -35 -2 -53q-3 -24 -3 -44
q-2 -29 0 -42q0 -11 2 -31q0 -6 2 -21.5t2 -24.5q0 -2 0.5 -9t0.5 -12.5t-1 -9.5q0 -35 4 -52q1 -12 8 -28v1q4 -5 21 7v-1q20 20 22 33q2 3 2 6q1 12 9 27l-1 -2q13 39 16 62z" />
    <glyph glyph-name="R" unicode="R" horiz-adv-x="443" 
d="M303 568l-11 -18v2q-26 -42 -30 -46q44 -30 63 -93l9 -35q16 -58 17 -89q1 -12 5 -36v1q3 -12 5 -28l4 -24q3 -21 3 -43q0 -10 2 -34q2 -26 2 -40q0 -21 -2 -31q18 0 22 -10q5 -16 2 -25q-12 -21 -32 -14h1q-11 2 -32 2h-12q-7 -1 -13.5 -0.5t-11.5 2.5t-7.5 8t-2.5 16
q2 20 36 20q-1 7 -1 22l3 37q5 26 2 46l-4 31q-7 80 -10 95q-6 27 -17 61q-3 7 -7 25q-10 32 -11 35q-10 24 -28 45v-1l-3 5l-6.5 6.5t-8.5 7.5t-7 5q-1 -15 1 -43q0 -4 -0.5 -11.5t-0.5 -10.5q-2 -16 0 -33q0 -2 0.5 -7t0.5 -8q2 -27 0 -43q-3 -31 -3 -61q0 -4 0.5 -11
t0.5 -11q0 -23 1 -34l2 -11q5 -27 4 -47q0 -5 -0.5 -14.5t-0.5 -13.5q-1 -9 -1 -25v-11q2 -20 1 -31q31 0 31 -22q0 -16 -8 -21t-25 -4q-4 0 -92 4q-7 0 -12 -1q-32 -5 -40 3q-17 17 -5 32q2 4 4.5 5.5t6.5 1.5h5l3 1h3v13q0 19 -1 29q-2 29 0 42q3 28 1 66q-1 14 -1 45
q0 4 -0.5 14.5t-0.5 15.5q0 3 -0.5 8t-0.5 7q-4 31 0 51q4 23 4 75v186q0 13 -2 41q0 3 -0.5 9.5t-0.5 10.5q0 3 -1 6.5t-2 8.5t-2 9q-4 23 -3 33h-10q-2 0 -7 -0.5t-7 -0.5q-11 0 -15 13q-2 2 -0.5 16t6.5 14q22 0 32 2q12 1 35 1q46 0 67 -8q74 -23 103 -64q24 -36 24 -71
q0 -27 -13 -50zM267 624q1 44 -43 67v-3q-4 -18 -3 -27l4 -46q0 -27 -1 -39v1q-2 -29 -1 -40q42 17 44 87z" />
    <glyph glyph-name="S" unicode="S" horiz-adv-x="389" 
d="M318 230q13 -37 13 -73q0 -106 -64 -143q-22 -14 -59 -14q-25 0 -59.5 17t-51.5 37q-29 32 -38 88l-1 1v2h-4q-14 -6 -23 3q-5 4 -7 15q0 5 -2 9q-3 11 7 17t21 7l66 -4q13 0 17 -1t8 -6.5t0 -18.5q-3 -15 -8 -20.5t-20 -4.5h-4l9 -30q5 -23 23 -39t35 -22q62 -13 72 28
q5 24 -35 104l-1 4l-38 69l-13 23v-1l-23.5 38.5t-28.5 51.5q-25 62 -29 82l-2 12q-12 42 -11 68q2 97 47 157q3 2 13 15q22 31 38 41q34 22 71 13q19 -6 38 -22q0 9 10 21q4 1 7 3h4q12 6 17.5 -4.5t5.5 -23.5l-3 -63q0 -21 -8 -24h1q-7 -5 -15 -5q-11 0 -19 10q-1 2 -5 14
l-3 6v1v-1q-17 34 -37 43q-15 7 -27.5 -17.5t-15.5 -46.5q-6 -34 -6 -51q0 -32 14 -94l-1 1l3 -7q10 -38 37 -86l11 -19q60 -111 74 -160zM267 665q-1 1 -1 2z" />
    <glyph glyph-name="T" unicode="T" horiz-adv-x="349" 
d="M126 748q72 2 129 2h48q0 -4 -1 -18t-1 -20v-28q0 -11 -6 -14h1q-4 -3 -19.5 -3.5t-21.5 3.5v-1q-10 6 -1 32q-12 0 -17 1q1 -17 -3 -46l-3 -29q0 -8 4 -24l3 -14q1 -14 -1 -44q-6 -41 -3 -83q0 -12 -2 -79q-2 -42 -2 -59q0 -20 2 -62q0 -3 1.5 -34t1.5 -47
q0 -51 -5 -106q0 -3 -1 -8t-1 -8q17 1 28 -6.5t6 -26.5q-10 -29 -60 -24q-2 0 -5 0.5t-4 0.5q-31 0 -40 -1q-55 -5 -66 16q-8 15 -3 27q2 9 12.5 10t19.5 -1q0 2 0.5 6t0.5 7v61v20q-3 50 -1 65v17q0 45 1 67q3 28 -3 82q-2 24 3 60q0 5 0.5 14t0.5 14q1 29 -1 85v-2v45v42
q0 21 2 43q-6 12 -7 19l-8 1q-8 2 -13 2q-1 -1 0.5 -11t-5 -20.5t-19.5 -7.5q-23 6 -18 60v14q13 9 34 11h43z" />
    <glyph glyph-name="U" unicode="U" horiz-adv-x="426" 
d="M54 735q7 11 43 11h26h24q17 7 46.5 1t33.5 -28v-4.5v-5t-0.5 -5t-2 -5.5t-4.5 -4t-7 -4q-2 -1 -12 1h-3q-2 1 -3 1v-8q0 -10 4 -32q4 -38 1 -58q-7 -49 -7 -100q0 -39 3 -70q7 -43 5 -87q0 -3 -0.5 -14.5t-0.5 -15.5q0 -14 2 -42v1q2 -20 2 -63q0 -61 6 -99q2 -15 7 -27
l5 -15l7 -14q13 -4 32 27q19 37 27 111q6 45 6 47q5 24 5 60q0 22 -2 56q-2 26 -2 46q0 29 -2 87v-1q-2 19 0 60q0 1 0.5 7t0.5 9v55q0 17 -1 25q-7 33 -6 62q-12 -2 -18 7q-5 8 -3 23q3 19 47 12h5q3 -1 16 1q40 9 44 -19q2 -22 -11 -26.5t-28 1.5q2 -26 2 -38
q0 -16 -2 -52q-2 -42 -1 -64q2 -119 8 -178q0 -7 0.5 -19t0.5 -18q0 -23 -2 -53q-3 -15 -3 -33q0 -23 -3 -44q-3 -16 -11 -48l-10 -34q-2 -9 -4 -23q-2 -35 -11 -49q-27 -36 -61 -45q-14 -3 -42.5 3.5t-38.5 15.5q-19 15 -35 48l-6 12q-18 33 -25 73q-2 9 -5 41
q0 4 -0.5 13.5t-1 16.5t-1.5 12q0 3 -2 11q-4 42 -3 68q0 13 -2 41q-2 30 -1 43q1 26 -3 78q-3 48 5 92q3 18 1 37q0 36 1 41q0 1 0.5 2.5t0.5 2.5q2 24 1 31q0 3 -1 5l-2 7h-8q-17 0 -24 10q-7 12 4 30z" />
    <glyph glyph-name="V" unicode="V" 
d="M59 698h-7l-5 1q0 39 1 51h36q70 0 95 4q22 4 38 -1.5t15 -26.5q0 -12 -7 -18t-13.5 -6.5t-17.5 0.5h-1q5 -20 7 -75q0 -4 0.5 -13t0.5 -13q2 -21 8 -53q7 -32 9 -45q24 -173 26 -186q2 10 5 30t5 30q0 3 1 8t1 7q1 6 2.5 18.5t2.5 18.5q0 8 6 26l1 1l4 13q2 14 2 24
q0 19 2 26q2 21 10 54q0 1 1 5t1 5q3 18 8 38l5 17l-1 -1q7 14 7 24v22q0 1 0.5 3.5t0.5 3.5q0 4 2 4q-1 1 -10 -1q-21 -2 -25 7q-8 10 -3 29.5t21 19.5q13 0 25 -2q20 -2 34 -2q20 2 24 -9q7 -13 2 -34q-3 -11 -9.5 -13t-15.5 2q-1 -16 -12 -73q-8 -36 -8 -38
q-4 -25 -8 -67q-9 -78 -15 -104q-18 -73 -45 -230q-2 -15 -7 -45.5t-7 -45.5q-7 -46 -10 -54q0 -2 -1 -4l-1 -1q-11 -41 -35 -25q-15 10 -29 43.5t-15 54.5q0 13 -13 83q-8 32 -10 81l-3 24q-4 40 -8 58v-1l-6 22q-11 32 -8 52q3 12 -5 43q-5 18 -6 31q-3 34 -11 74
q0 2 -6 56l-2 26q-4 30 -11 47h-12z" />
    <glyph glyph-name="W" unicode="W" horiz-adv-x="486" 
d="M206 220q2 -18 2 -29v-4q10 19 19 33t21 27t24 10.5t22 -22.5l4 -7l-1 1q24 -44 27 -66q1 -18 9 -35l2 63l3 68q2 29 4 77q0 12 1.5 38t2.5 39q1 10 1 30q0 30 2 45q4 26 4 73q2 58 4 87l2 53h-10.5t-8 3.5t-4.5 11.5q-2 15 1 26q4 10 23 8h3q5 0 15 -2t17 -2l12 2
q18 3 22 2q9 -1 10.5 -24.5t-5.5 -26.5h1q-6 -7 -22 -1l-5 2q1 -2 1 -25l-4 -37q-7 -91 -7 -117q0 -20 -4 -50l-4 -32q-1 -10 -1 -31q0 -29 1 -43q1 -37 -3 -112l-4 -54q0 -4 -0.5 -10t-0.5 -9q0 -42 -3 -60q0 -2 -1 -6t-1 -5q-7 -35 -3 -59v-2q1 -1 1 -2q2 -6 2 -16
q-2 -14 -10 -21q-14 -10 -26 -1l1 -1q-4 3 -5 6l-21 36l-3 11l-3 10q-9 25 -15 36l-10 21l-10 24q-7 27 -11 35l-16 -25l-13 -21l-15 -23q-13 -16 -19 -28l-10 -18q-8 -20 -15 -28l-6 -15l1 1q-7 -18 -14 -24q-13 -11 -21.5 -8.5t-14 9t-8.5 18t-4 19.5t-1 13q0 4 -5 26
t-4 27v36l-2 21q-5 37 -5 42q3 21 -1 64q-1 6 -1 21q0 18 -4 35q-2 11 0 37q1 12 0 25l-2 24v-1l-4 45q-1 13 -1 43q0 56 -5 85q-9 47 -9 83q0 29 1 40q-18 2 -19 18q0 20 9 25q13 5 34 3q2 0 6 -1h3q1 0 3 0.5t3 0.5q8 1 29.5 0.5t29.5 -1.5q10 0 18 2q33 5 42 -4
q5 -7 3 -20t-9 -21q-12 -5 -18 -5h-2q-3 1 -4 1l-4 1l-2 -4l2 3q-4 -15 -4 -32q0 -15 4 -45l3 -27q2 -22 2 -67q0 -56 4 -83q1 -5 1 -17v-18q0 -2 2 -14q2 -14 2 -22q1 -26 -1 -72q0 -40 2 -78q0 -2 0.5 -6t0.5 -6z" />
    <glyph glyph-name="X" unicode="X" horiz-adv-x="444" 
d="M60 746h43q8 0 13 -1h-2q16 -2 20 -2q47 0 59 2q27 4 40 0q11 -3 13 -18.5t-2 -22.5q-9 -13 -44 -11q1 -7 5 -14q8 -25 9 -36q2 -41 10 -63q15 -55 23 -88l21 92l7 27q1 6 4.5 18.5t4.5 19.5l8 47q-22 0 -20 23v6q0 21 10 24h-2q13 7 39 0q10 -2 11 -2h11q14 0 20 -2
q5 -1 9.5 -12t4.5 -21t-7 -10q-16 0 -23 -1h1l-3 -1v-6l-6 -32q-1 -4 -6 -27.5t-7 -36.5l-7 -24q-29 -121 -32 -139q-1 -9 -4 -25.5t-4 -22.5q-2 -11 3 -32q8 -28 16 -75l5 -31l10 -50l7 -28l6.5 -22.5t6.5 -24.5l10 -39q4 -9 8 -27q38 7 45 -13q6 -12 -1 -24t-20 -16
q-15 -4 -46 -2q-9 1 -36.5 1.5t-35.5 -0.5q-51 -5 -58 23q-3 20 6.5 24.5t28.5 1.5h2q-1 7 -5 22t-5 20q-10 33 -13 58q-1 9 -6 21q-4 9 -8 25q-2 5 -4 21q-14 -32 -23 -50q-4 -12 -13 -30l-7 -12q-9 -22 -11 -38q-4 -9 -4 -19q0 -3 -0.5 -4t-0.5 -2v-4q23 4 26 -18
q2 -25 -16 -36q-11 -6 -34 -2q-4 1 -19 1q-18 -3 -28.5 2t-8.5 21q0 16 4.5 22t20.5 4q2 2 4 15l1 8q0 1 6 13l7 13q2 5 4 13t2 9q1 8 11 26l-1 -1q6 16 26 56q14 39 26 87q1 6 4 16t4 15l-24 97l-5 23q-8 30 -14 69l-13 65l-9 30l-9 35q-1 4 -2 10t-2 14t-2 12l-2 15h-3
q-34 -2 -39 14v-1q-3 4 -1 21t12 17z" />
    <glyph glyph-name="Y" unicode="Y" 
d="M288 698q-14 -4 -18 8.5t1 22.5q6 15 54 12q2 0 5 -0.5t4 -0.5q2 0 4 1q34 2 40 -7q4 -6 1 -19q-4 -22 -25 -22h-3q-2 -6 -3 -8q-2 -9 -33 -56l1 1q0 -1 -1 -2t-2 -2.5t-2 -2.5q-13 -25 -19 -38l-15 -25l-16 -30h1q-8 -15 -5 -30q2 -26 2 -37q0 -6 -0.5 -18t-0.5 -17
q0 -30 -3 -60q-4 -64 -2 -95v1q1 -26 1 -79q0 -25 2 -67q2 -31 -1 -56q0 -2 -0.5 -5t-0.5 -4t-1 -4.5t-1 -5.5l-1 -2q0 -2 6 -2q13 1 22 -0.5t17 -8.5t8 -21q0 -19 -47 -16q-1 0 -2.5 0.5t-2.5 0.5q-11 0 -29 -2q-38 -3 -64 -1q-24 2 -28 19q-4 18 4 26l15 3h7v7q0 13 1 19
q0 3 0.5 9t0.5 8q0 20 -1 31q-2 29 0 41q2 11 -1 27q0 1 -1 3.5t-1 4.5q-2 16 0 32q0 1 1 3t1 3q0 20 -2 32q-1 20 0 42q2 10 2 35q0 30 2 44q3 27 -1 67q0 1 -0.5 5.5t-0.5 7.5q-2 10 1 43q-2 15 -10 30l-6 16q-16 30 -22 50l1 -1q-2 6 -8.5 17.5t-8.5 17.5q-10 17 -17 36
l1 -1l-6 20q0 -2 -1 -2h-6q-20 0 -26 15q-2 17 0 26q4 12 22 10h5q11 0 15 -1q50 -5 79 -2q1 0 3 0.5t3 0.5q48 10 51 -18q0 -15 -1 -17q-8 -18 -30 -18q9 -26 21 -46q10 -20 22 -50l27 42q15 35 32 61q-6 0 -10 -1z" />
    <glyph glyph-name="Z" unicode="Z" horiz-adv-x="400" 
d="M316 726q23 0 31 -14q11 -15 -1 -47q-14 -29 -27 -80q-8 -51 -24 -100q-1 -3 -7 -27q-2 -13 -4 -17l-3 -8q-3 -8 -6 -15l1 1l-6 -19q-2 -8 -2 -22q0 -15 -1 -21q-2 -19 -9 -35q0 -1 -1 -3t-1 -3l-5 -15l1 2q-21 -65 -24 -82l-22 -92l-10 -30q-2 -11 -4 -15q0 -6 -3 -18
q-2 -14 -3 -17l29 -3h20q0 1 1.5 3.5t1.5 4.5q5 16 16 18q13 0 21 -3l-1 1q12 -5 8 -33t-13 -34q-5 -3 -20 -3q-54 7 -130 5q-1 0 -5.5 -0.5t-7.5 -0.5h-28t-23 8t-7 24q2 15 7 26l4 10q3 9 3 16q0 12 1 16q3 28 13 53l5 24q8 27 16 49q5 12 11 33q1 6 3.5 19t4.5 19
q3 21 8 41l8 35q7 17 14 51q5 29 21 69q5 12 9 40l6 33q4 20 11 40l13 39q5 17 6 29v1h-12q-16 0 -21 1q-49 0 -63 1q0 -1 0.5 -3t0.5 -4q4 -19 -4 -29q-5 -7 -16.5 -8t-19 5t-3.5 16q2 5 0 23q-6 43 22 48h-1q23 4 59 -3h-1q19 -3 35 -3q14 0 44 2t69 2q10 0 15 -1z" />
    <glyph glyph-name="bracketleft" unicode="[" horiz-adv-x="262" 
d="M106 -87q-22 0 -39.5 16.5t-17.5 36.5q0 30 4 42v-1q5 27 -2 51q-1 13 -2 48.5t0 47.5v102v127q0 9 -0.5 27t-0.5 28q-1 20 1 64v137q0 22 1 30q0 5 0.5 16t0.5 16t3 29q2 25 1 38q0 3 -2 13q-9 36 7 48q19 12 132 6h6t3 -0.5t2 -2t0.5 -3t1 -6t1.5 -9.5v1q4 -21 -45 -25
q0 -7 -2 -33q-1 -10 -1 -47q3 -50 2 -93q-2 -64 1 -163q0 -30 -1 -45q-2 -32 -2 -48q0 -31 1 -49q2 -36 1 -53q0 -7 -0.5 -22t-0.5 -23q-1 -15 -1 -56q0 -88 -4 -129q-2 -16 4 -40l3 -29q44 0 50 -15q12 -26 -12 -33l1 1q-18 -8 -72 -2q-16 2 -22 2z" />
    <glyph glyph-name="backslash" unicode="\" horiz-adv-x="315" 
d="M207 102v-1q-12 46 -17 69q-11 55 -21 84q-8 27 -41 155q-1 6 -9 32q-9 19 -12 46q-7 41 -19 74l-24 87q-2 9 -4 29q-6 34 -11 44q-5 19 6 25v-1q14 12 26 -2v1q16 -17 31 -69q5 -14 11 -44q4 -24 8 -35q11 -47 11 -48l5 -20q25 -112 85 -336l7 -27q3 -10 7.5 -29
l6.5 -27q0 -2 0.5 -5t1 -4.5t1.5 -3.5v-1q12 -34 11 -48q-1 -13 -10.5 -19t-20.5 -2.5t-16 14.5q-6 12 -10 41z" />
    <glyph glyph-name="bracketright" unicode="]" horiz-adv-x="255" 
d="M205 760v1q5 -15 3 -48q0 -1 -0.5 -4.5t-0.5 -4.5v-27q0 -5 0.5 -14t0.5 -13q0 -22 -4 -64q0 -6 -1 -16.5t-1.5 -19t-0.5 -15.5q0 -20 -2 -60q0 -5 0.5 -10.5t1.5 -11.5t1 -10q2 -14 2 -27v-57q0 -60 -1 -80v-7q-4 -41 0 -58q5 -19 4 -38q-2 -14 -2 -42q0 -59 -1 -70
q-2 -30 -2 -40q0 -13 2 -41v-12q0 -35 -3 -46q-11 -28 -80 -25h-11q-54 0 -59 18q-4 17 16 27l1 1h4.5h5.5q19 0 19 1v27l-1 27q0 27 1 27q1 16 -1 48v-1q-1 12 -1 74q2 58 4 81q0 98 -4 126q-1 8 1 51q1 9 1 31q0 7 -0.5 20.5t-0.5 21.5v44q0 21 -1 33q-4 27 0 46
q3 24 3 42q0 11 -2 37q-5 36 -4 58q-18 -2 -33.5 4.5t-10.5 25.5q4 19 36 19q2 0 11.5 0.5t12.5 0.5q85 6 97 -30z" />
    <glyph glyph-name="asciicircum" unicode="^" horiz-adv-x="358" 
d="M236 672l7 -10l-1 1l5 -13v1q7 -12 37 -53l-1 1l3 -4q28 -35 25 -57q-3 -14 -16.5 -15.5t-20.5 5.5q-21 16 -28 35l-8 15q0 1 -9 20q-1 2 -14 17l-2 2q-12 -15 -18 -20l-23 -27q-28 -37 -62 -48l1 1q-51 -19 -62 13q-7 23 19 49q16 21 23 31l19 25q12 11 29 39l12 22
q26 37 54 19q15 -12 31 -49z" />
    <glyph glyph-name="underscore" unicode="_" horiz-adv-x="517" 
d="M458 -70q-11 -7 -38 -3q-4 2 -9 2q-18 1 -39 -2q-1 0 -6 -0.5t-7 -0.5q-7 0 -21.5 -0.5t-22.5 -0.5q-46 0 -79 4q-23 0 -30 -2q-25 -2 -36 -1q-37 0 -56 -1q-1 0 -4.5 -0.5t-6.5 -0.5q-31 -2 -43 5q-10 5 -12 17t8 19v-1q14 13 42 13l34 -3l32 -2h-1q3 0 10 0.5t11 0.5
q12 1 42 1q19 0 27 -1q18 -2 24 -2q62 4 127 3q6 0 15 -0.5t15 -0.5h4q12 0 22 -6t9 -18t-11 -19z" />
    <glyph glyph-name="grave" unicode="`" horiz-adv-x="175" 
d="M96 649l-15 20q-26 39 -32 51q-3 22 8 28q18 8 27 1q27 -20 37 -55l4 -12l1 -2v-2q7 -22 -3 -31q-13 -6 -27 2z" />
    <glyph glyph-name="a" unicode="a" horiz-adv-x="464" 
d="M166 1q-24 -2 -63 1q-14 2 -20 2l-6 -2q-32 -4 -39 5q-5 7 -5.5 18.5t4.5 18.5q3 7 19 7h6q4 0 5 7q0 4 1 11t1 10q2 23 6 32q8 30 8 52q0 44 14 96l5 21q8 54 11 79l4 29q2 33 5 46q18 90 21 164l3 31.5t2 28.5l3 28q0 2 0.5 5t0.5 4q4 45 29 56q17 8 43 6q25 0 33 -2
q6 3 15 -1q18 -8 18 -44v-10l23 -154q21 -130 26 -169q1 -10 4 -28t4 -25l2 -14v1l6 -37v-6q0 -1 1 -2v-5l1 -4q3 -13 2 -15q0 -7 2 -17q0 -1 0.5 -4t0.5 -4q3 -15 14 -92q2 -23 10 -65q11 2 18.5 1.5t10.5 -8t1 -22.5q-3 -15 -12 -21q-7 -5 -22 -1l-3 1q-2 0 -5.5 -0.5
t-4.5 -0.5h-10q-1 0 -4 -0.5t-5 -0.5q-33 -3 -38 2q-6 8 -3 26q2 14 7 22h-1q3 3 5.5 5t4.5 2.5t3.5 0t4 -1.5t3.5 -1l-10 68l-4 32q-5 42 -8 55l-2 13l-5 25l-20 -3l-17 -2l-42 -2h-11q-1 -2 -1 -8q-11 -48 -14 -90q0 -4 -3 -22q-3 -10 -3 -22q0 -28 -3 -41l-2 -6t-2 -7
q1 0 2.5 -1t2.5 -1l3 -1h3q13 -3 13 -24q0 -13 -6 -19t-11.5 -6.5t-17.5 0.5h-12zM286 435q-2 32 -18 121l-1 7v-3q0 1 -1 7l-7 -31q-2 -10 -4 -28.5t-2 -21.5q-3 -32 -4 -36q0 -3 -1.5 -12.5l-2.5 -15.5q-2 -17 -11 -57q-1 -12 -5 -23q-8 -30 -9 -48q28 2 46 6l33 7l1 1h3
q3 0 2 3q-14 55 -19 124z" />
    <glyph glyph-name="b" unicode="b" horiz-adv-x="405" 
d="M57 699q-7 0 -8.5 11t2 23t8.5 14q6 3 23 1q3 -1 10 -1q24 2 38 2q48 0 64 -5q40 -8 81 -36q38 -27 44 -62q5 -21 -2 -67q0 -1 -0.5 -4t-0.5 -5q-11 -68 -84 -114q96 -64 118 -176q9 -52 7 -87q-4 -27 -31 -70q-29 -44 -78 -79q-33 -24 -76 -38q-19 -6 -89 -6h-13
q-12 0 -12 23q-2 29 21 32q-1 10 -1 29q0 27 1 39q0 15 2 27q4 30 3 42q0 11 -2 35q-3 33 -2 41q0 2 0.5 7.5t0.5 8.5q2 39 -1 68q-4 54 -2 82q5 63 5 112q0 27 -1 40q0 5 -0.5 13t-0.5 12q-2 37 -1 55q2 18 -2 32h-13q-2 0 -4.5 0.5t-3.5 0.5zM236 390l-18 18q-2 1 -15 11
q0 -3 2 -15q2 -10 2 -16q1 -15 -1 -37q0 -1 -0.5 -6t-0.5 -6q-1 -15 -1 -47v-15v-18v-14q-1 -11 -1 -34v-83v-23q0 -15 1 -23q1 -4 1 -6q47 26 79.5 69.5t28.5 89.5q-3 43 -27 101q-8 15 -32 37v-1q-2 1 -8 7.5zM264 562q8 22 8 39q0 30 -18.5 55t-49.5 36q-1 -18 -1 -54
q0 -33 1 -48q2 -28 2 -43q0 -6 -0.5 -20t-0.5 -21v-9q45 34 59 65z" />
    <glyph glyph-name="c" unicode="c" horiz-adv-x="352" 
d="M51 229q-2 10 -2 35t1 35v11q0 5 -0.5 16t-0.5 15q-2 29 -1 46q3 42 3 86q0 18 9 65l3 10q4 23 17 63l6 19q16 49 32 71q10 13 40 28.5t46 10.5q32 0 51 -21q6 36 39 15q14 -9 9 -50q-4 -14 -2 -21q0 -1 1 -2.5t1 -2.5q6 -24 -10 -28l1 1q-11 -5 -25 -3q-19 2 -27 31
l-3 6v-2q-5 15 -17 24.5t-25 4.5q-8 -3 -10 -40q0 -2 -0.5 -6t-0.5 -5q-13 -86 -14 -114q0 -1 -0.5 -4t-0.5 -5q-2 -26 1 -44q3 -16 0 -39q0 -1 -0.5 -5t-0.5 -5l-2 -83q-2 -33 4 -103q5 -58 5 -69v-19q0 -16 1 -23q0 -7 2 -17l5 -20q0 -1 0.5 -5t0.5 -5q3 -32 12 -37
q11 -1 23.5 10t16.5 23q4 9 6 34q0 12 1 16q1 11 3 19t9.5 15t19.5 4q23 -7 13 -63q-2 -4 -2 -11q-6 -38 -19 -54q-25 -31 -55 -36q-34 -5 -64 14t-46 49l-13 21v-1q-5 7 -8.5 15t-6.5 14t-6 16l-4.5 15t-3.5 17t-2.5 15.5t-3 16.5t-2.5 16z" />
    <glyph glyph-name="d" unicode="d" horiz-adv-x="419" 
d="M51 0q-3 0 -3.5 12.5t3 25t10.5 12.5t18 4v16v32q1 16 1 46q0 33 -1 48q0 37 1 54q1 7 1 34q-1 26 -1 90v90q-1 32 1 92v89l-3 40v1h-8q-10 2 -14 2q-8 0 -8.5 21t5.5 25h-2q8 8 28 6q2 -2 3 -2q12 -1 34 -7q3 -1 14.5 -3t22.5 -5t18 -7l21 -8h3l2 -1q25 -8 38 -20v1
q44 -35 77 -89q41 -63 56 -148q4 -20 4 -53q0 -50 -15 -110l-4 -18q-8 -38 -18 -61q-6 -14 -37 -64q-5 -10 -13 -18q-6 -9 -12 -17h1q-13 -18 -27 -35q-28 -37 -67 -57l-6 -3l-39 -9h2l-15 -3q-19 -3 -59 -3h-12zM292 545q-2 7 -28 43l-11 16q-9 14 -33 38v-13q0 -10 -2 -28
t-2 -24q-2 -36 -2 -51l2 -145q0 -52 -4 -80q-3 -13 -1 -51q0 -2 0.5 -8t0.5 -9q0 -24 -2 -68q-4 -50 -3 -61l7 13v-1q5 8 9 13.5t5 7.5q6 6 41 49q32 42 43 113q4 22 7 33l8 28q2 22 -3 56q0 2 -1 5t-1 5t-0.5 5t-0.5 4q-6 45 -9 56q-4 8 -4 10q-6 26 -16 44z" />
    <glyph glyph-name="e" unicode="e" horiz-adv-x="369" 
d="M61 696h-1q-20 12 -10 33v-1q9 14 32 14h10.5t5.5 1t10 1q26 2 63 2q58 0 84 -1l21 -3q4 -2 9 -2q17 -6 15 -23v-5q0 -2 0.5 -4.5t0.5 -3.5q3 -16 -7 -36q-5 -6 -16 -5t-17 7h1q-9 7 -9 22v3h-45q-2 0 0 -3v-29q0 -3 -0.5 -9.5t-0.5 -8.5v-28q1 -15 -1 -43q-1 -8 1 -22
q1 -6 1 -8q49 3 61 -7v1q15 -17 1 -29t-31 -13l-25 -3h-6q-1 0 -1 -2q-2 -15 -2 -45v-15v-18.5v-16.5q0 -5 0.5 -16.5t0.5 -17.5q0 -27 -1 -41v1q-2 -24 0 -49v-78q0 -3 0.5 -9t0.5 -10q3 -36 3 -73q0 -39 -3 -58q22 0 62 2q3 0 3 10q2 23 17 24q40 0 33 -38q0 -1 -0.5 -4
t-0.5 -4q-1 -10 -2 -15.5t-7 -10.5t-17 -5h-1q-3 0 -13 -2q-3 -1 -10 -1h-74q-44 2 -86 2q-7 0 -23 -0.5t-24 -0.5q-11 0 -17.5 11.5t-3 23.5t16.5 12q2 0 7.5 -0.5t8.5 -0.5h15v8q0 16 5 41q0 1 0.5 5t0.5 6q1 40 -4 94l-2 34q-1 40 2 89q0 3 2 23t2 31q0 12 0.5 37.5
t0.5 37.5q0 13 -0.5 38.5t-0.5 39.5v148q0 10 1 13h-6h-7h-6h-3q-5 0 -14 3z" />
    <glyph glyph-name="f" unicode="f" horiz-adv-x="357" 
d="M58 707q1 0 3 1q-14 1 -14 29q2 19 29 23q62 6 213 6q6 0 10 -8l5 -20q8 -32 5 -44q-4 -15 -19.5 -18.5t-23.5 9.5q-4 10 -4 23v3q-22 -2 -31 -2h-11q-4 0 -4 -5q-1 -10 -1 -47q3 -23 3 -52q0 -26 -2 -44q18 -3 35 -12.5t20 -23.5q6 -22 -12 -25t-37 6q-2 0 -6 1.5
t-7 2.5l-3 1l11 -63q3 -39 3 -120q-4 -91 -7 -146q0 -2 -1 -9t-1 -9q-3 -27 -3 -52q0 -28 7 -53q28 2 41 -9l3 -32v-6q-7 -17 -58 -8q-4 1 -7 1q-32 2 -87 -1q-14 -1 -45 -1q-6 0 -9 3q-4 3 -4 9v7q-2 21 11 27h-1q5 5 23 5q0 10 0.5 20.5t1.5 24t1 20.5q2 32 2 51
q0 43 -4 127q0 40 1 49q1 16 1 49q0 2 -0.5 6.5t-0.5 7.5q0 6 -1 16t-1.5 18.5t-0.5 16.5q0 12 2 32q1 9 1 35q0 29 -4 91q0 3 -0.5 9t-0.5 10q-2 42 0 64q1 6 -2 6h-19zM55 715l8 -8q-4 0 -6 2t-2 4v2z" />
    <glyph glyph-name="g" unicode="g" horiz-adv-x="409" 
d="M72 170q-3 30 -11 68q-15 78 -13 112q1 12 1 37q3 48 4 54l1 1v3q6 41 9 80q1 22 9 55l8 29q6 42 24 78q10 19 33.5 37t40.5 18q42 0 56 -8q-3 15 1.5 25t20.5 9q26 -2 20 -26q-2 -12 -1 -16q0 -2 1 -5q8 -50 -3 -60q-13 -7 -26 -2.5t-21 13.5l-6 9q-10 14 -15 14
q-9 -4 -15 -38q0 -2 -1 -6t-1 -5q-12 -54 -15 -81q0 -6 -1 -18t-1 -18q0 -13 -3 -25l-3 -11q-3 -19 -1 -53q0 -3 0.5 -9t0.5 -10v-23q0 -46 1 -55q2 -11 2 -39q0 -14 2 -40l2 -22q4 -32 4 -54v-8q0 -39 6 -59q2 -6 4 -24q5 -34 9 -39q4 -6 9 -8t9.5 1.5t9 8t9 12t7 12.5
l5.5 11q9 23 14 67q0 2 1.5 6t1.5 5q7 36 12 72q1 13 1 46v4q0 11 -1 13v-1l-10 -1h-6h-4q-2 0 -18 -2q-20 -6 -38 -1.5t-17 25.5q0 18 8 23h1q3 2 11.5 2.5t14.5 -0.5q1 0 4 -0.5t4 -0.5q36 2 60 2l38 2q3 0 6 1q19 5 26 0q10 -7 7.5 -25t-13.5 -21l1 1q-8 -3 -19 -1h-3
q2 -16 0 -28v-84q0 -15 0.5 -42.5t0.5 -40.5v-28v-51v1v-18t-5.5 -15t-17.5 -5q-27 2 -27 47v8q-12 -20 -24 -31q-20 -23 -48 -23q-38 0 -54 13q-36 19 -56 68q-17 38 -23 88z" />
    <glyph glyph-name="h" unicode="h" horiz-adv-x="423" 
d="M66 704q-7 -2 -12 3q-4 8 -4 10v26q0 8 8 11l6 3q26 2 49 0q19 0 22 -1q27 -3 47 -1l2 1h3q16 4 35 0.5t15 -20.5q-2 -19 -11 -26h1q-9 -9 -24 -7q4 -1 4 -13v-53q0 -9 -0.5 -27t-0.5 -26q-1 -30 -1 -90q0 -44 1 -65q1 -20 2 -59.5t1 -44.5t0.5 -5.5t5.5 -0.5q20 0 29 -1
q9 0 21 -2q18 -2 21 -2q0 8 0.5 25t0.5 26t-0.5 28.5t-0.5 30.5v26q0 4 0.5 14t0.5 14q0 9 -2 21q-3 22 -2 29q0 13 2 19q2 20 2 32q0 4 -0.5 11.5t-0.5 10.5v32q0 13 1 17q2 20 0 30q0 2 -0.5 4t-0.5 4q-3 15 -3 28q-18 0 -25 18l1 -1q-8 21 8 29q15 4 36 2q1 0 3 -0.5
t3 -0.5q10 -2 19 -2q15 0 21 -1q4 0 8 -4t4 -9v-4l2 -6q-6 -15 -16 -16q-5 -2 -14 -2q2 -34 2 -49q0 -22 -1 -30q0 -12 -2 -28q-2 -20 -2 -46q4 -40 4 -99q0 -26 -2 -84q0 -76 1 -95q0 -8 -0.5 -22.5t-0.5 -21.5v-45q0 -10 1.5 -28t1.5 -22q3 -25 3 -58q0 -22 -2 -37
q3 0 6 1q9 1 16.5 1t12.5 -6t4 -19q-3 -18 -12 -24q-4 -4 -17 -1q-3 1 -4 1q-2 0 -3.5 -0.5t-2.5 -0.5q-3 -1 -9 -1h-30q-3 0 -9.5 0.5t-10.5 0.5t-6 1.5t-3 4.5t-1 5v6v5q4 28 12 31q4 2 10 1v28v24q-2 54 -2 89v21q0 3 -0.5 10t-0.5 11v8q0 1 0.5 4.5t0.5 5.5q0 1 1 3v3
l-29 3q-10 2 -16 2q-9 0 -19 -2q-4 -1 -14 -1q-2 -22 -3 -32q-3 -16 -3 -35v-37q0 -23 1 -35q0 -47 3 -70v-3l16 -6l-1 2q9 -3 12 -15l-1 1q4 -6 3 -22t-13 -16q-11 0 -33 2q-20 2 -52 2q-4 0 -16 -2q-1 0 -4.5 -0.5t-5.5 -0.5h-8h-13q-23 -4 -45 4q0 22 2 35q12 6 25 8
q-1 8 1 49q1 10 1 31l-2 84q-4 43 -4 102q0 46 4 81q4 44 4 98q0 45 -2 67q0 2 -0.5 6.5t-0.5 7.5q-5 36 -3 75v54h-6z" />
    <glyph glyph-name="i" unicode="i" horiz-adv-x="278" 
d="M56 716l1 -1q-10 3 -9.5 25.5t10.5 22.5q26 0 37 -1h-2q60 -3 75 0q1 0 2.5 0.5t2.5 0.5q50 9 57 -15q4 -11 -4 -33q-6 -8 -25 -6q1 -32 -2 -69q0 -42 1 -54v1q2 -18 2 -29q0 -13 -2 -35q-2 -42 -1 -50q0 -1 0.5 -5t0.5 -6q4 -22 3 -36l-3 -36q0 -3 -0.5 -13.5
t-0.5 -14.5q-2 -24 -2 -71t3 -70q1 -22 -1 -62q0 -3 -1 -12t-1 -13q-1 -18 2 -44v1q2 -18 2 -30q8 0 13 -4q7 -4 7 -15v-22q0 -11 -4 -15q-11 -11 -41 -3l-2 1q-1 0 -5.5 0.5t-6.5 0.5q-37 3 -56 0q-15 0 -36 3t-21 8v11q0 2 0.5 7t0.5 7q0 6 4 9q1 0 3 1.5t4 2.5l17 3
q-3 42 -3 92q0 11 0.5 33t0.5 34q0 11 0.5 34.5t0.5 35.5q0 11 -2 35v1q-1 10 -1 45q2 82 2 134v48q0 9 -2 35q-3 27 -3 57q0 2 -0.5 6t-0.5 6q0 5 -0.5 15t-0.5 16q0 20 1 29z" />
    <glyph glyph-name="j" unicode="j" horiz-adv-x="361" 
d="M118 1q-20 2 -39 12q-32 19 -32 67q0 41 28 33q4 -1 6.5 -3l4.5 -3.5t4 -5t2.5 -5l2 -6t2.5 -6.5l1 -2v-3q7 -30 15 -32q16 -9 29 10q16 30 16 97v19q2 42 4 61q4 46 5 74q1 9 -2 75q-2 32 -2 57q0 10 2 34q2 25 1 39l-3 87q-2 32 -2 50q-1 19 0 41q-27 0 -30 11
q-4 18 9 31h-1q10 17 33 9h2q12 -2 36 -2h8q34 0 66 4q26 3 29 -13v1q5 -18 -6 -29t-28 -12v-1q3 -29 0 -40q-2 -18 -2 -34q0 -4 -0.5 -10t-0.5 -8q0 -7 -0.5 -21t-0.5 -20q0 -35 3 -67q0 -21 -1 -26t-1 -15q-2 -62 -1 -94v-30q0 -105 -3 -159v-11q0 -2 -0.5 -6t-0.5 -6
q-4 -45 -17 -73q-13 -34 -54.5 -53.5t-81.5 -15.5z" />
    <glyph glyph-name="k" unicode="k" horiz-adv-x="457" 
d="M80 720h-1q-17 -3 -25.5 8.5t-4.5 26.5q4 12 29 10q1 0 3.5 -0.5t3.5 -0.5h41q7 0 21 2q71 9 85 -11h-1q10 -10 -1 -30q-6 -10 -20 -8q0 -4 -0.5 -12t-0.5 -11q0 -1 -0.5 -3t-0.5 -3q-1 -7 -1 -19v-19q0 -4 0.5 -14t0.5 -15v-22q47 74 61 117q-13 0 -19 14q-1 3 -1 18
q1 28 51 16q13 0 17 1h-1q34 8 40 -12q5 -22 -4 -31v1q-6 -8 -23 -8h-5l-2 -1l-72 -123l-36 -62q-1 -1 -1 -2l7 -7q19 -19 27 -34q17 -28 31 -83l4 -16t6 -18q26 -76 39 -135l35 -145q4 -11 8 -35q2 1 4 1q6 -1 13 0h-1q23 5 24 -14q2 -13 -3 -24q-5 -8 -29 -10q-5 0 -8 -1
q-20 -3 -40 0q-21 2 -26 17q-8 23 10 30q4 2 6 2l-3 11l1 -2l-7 22q-1 3 -1 4q-12 54 -16 79q-6 33 -15 67q-2 7 -4 17q-13 43 -14 46q-17 36 -31 91l-10 35q-10 37 -32 46l2 -2q1 -2 3 -5.5t4 -7.5l3.5 -7t1.5 -4q0 -3 2 -21q2 -10 2 -19q0 -5 2 -15q4 -42 1 -63
q-4 -31 -4 -73q0 -9 0.5 -26t0.5 -27t-0.5 -28t-0.5 -27q0 -19 3 -42q4 -39 3 -49q22 -3 25 -29q2 -18 -3.5 -22.5t-24.5 -3.5l-35 3q-15 -4 -52 0q-1 0 -3.5 -0.5t-4.5 -0.5q-42 -5 -51 7h1q-10 11 -5 25.5t22 14.5q3 0 3 2v5q0 10 2 22q0 2 0.5 6t0.5 5q2 26 -1 61
q-1 11 1 49q1 6 1 17q1 18 -1 53q0 2 -0.5 7.5t-0.5 9.5q-1 12 3 39l3 23v64q1 33 0 66q0 5 -0.5 15t-0.5 16q-1 11 -1 35q0 9 2 25v-1q1 12 1 42v35q0 8 -2 32q0 1 -0.5 5t-0.5 6q-2 23 1 35q-2 0 -5.5 -1.5t-4.5 -1.5zM369 54h-1h1z" />
    <glyph glyph-name="l" unicode="l" horiz-adv-x="348" 
d="M299 59q-1 -5 1 -14v1q1 -4 1 -17q-3 -29 -46 -29q-3 0 -27.5 3.5t-28.5 2.5q-34 -2 -51 -1q-1 0 -15 -1t-16 -1q-1 0 -4 -1h3q-11 -3 -24 0q-22 -2 -35 -1q-8 3 -10 6v40q14 2 23 2v22q0 7 -1 11q-2 8 -2 17v33q0 20 1 31q2 20 2 29t-2 31q-2 28 -2 45q0 24 3 45
q0 3 1 12l2 27v-5q2 20 2 58v20q0 6 -1.5 18t-1.5 15q-2 24 -1 37v5q5 60 5 68t-0.5 25t-0.5 25q-2 14 -2 48q0 32 2 43h-25v23v21q40 2 93 2q38 0 58 1h-1q23 4 26 -13q1 -17 -3 -23.5t-19 -7.5q0 -7 -2 -25q-1 -4 -1 -8v-40q0 -4 -0.5 -10.5t-0.5 -9.5q-2 -14 -2 -38
q0 -20 2 -29q2 -13 0 -43q0 -33 1 -40q1 -17 1 -52v-34q1 -29 -2 -61q0 -3 -1.5 -11t-1.5 -12q0 -11 3 -26q2 -12 2 -19q1 -19 -2 -41v-45q2 -13 -2 -24q-1 -6 -1 -16q0 -21 4 -38q3 -18 3 -37l54 -4h-1q2 0 1 6l-1 3v4v1q-1 1 -1 2v-2q-8 23 9 24q11 1 24 -2q13 -4 11 -26z
" />
    <glyph glyph-name="m" unicode="m" horiz-adv-x="475" 
d="M83 0h-2q-14 0 -19 1q-14 5 -14 24q0 11 5 16.5t9.5 6t15.5 0.5h1v70v13.5v16v14.5q2 32 -3 65q-2 14 2 48q0 2 0.5 6t0.5 5q1 9 -1 32q-1 11 -1 31q1 15 -2 33l-4 26q0 22 1 33q3 15 2 31q0 4 -3 34q-2 14 -2 26q-1 12 -1 46v103q0 13 -0.5 25.5t4 24t14.5 17.5
q12 5 26 -3t19 -17q5 -8 22 -21.5t21 -17.5l-1 1q14 -11 32.5 -30l21.5 -22l24 -27q3 6 8.5 15.5t6.5 11.5t5.5 12t6.5 14q1 2 6 8t7 9h-1l8 11l7 14l9 19q10 17 24 24.5t31 -5.5q15 -18 8 -58q-2 -13 1 -48q2 -16 2 -27q1 -16 -1 -50q-1 -12 -1 -31q0 -18 2 -54
q0 -5 0.5 -14.5t0.5 -13.5t0.5 -13.5t0.5 -15.5q0 -29 1 -45v1q6 -36 6 -109q0 -35 1 -54l2 -129q0 -10 2 -24l1 -2h19l8 -3q7 -9 7 -13q0 -17 -7 -23q-3 -2 -26 -2h-5l-57 -2q-13 0 -17 8q-2 3 -2 6q-1 7 -1 21l12 6q3 0 10.5 2t9.5 2q0 10 -5 100l-3 62q-1 14 1 45
q1 16 1 47q0 3 -0.5 10t-0.5 10q-1 5 -1 21v22q0 4 0.5 11t0.5 10t-0.5 11t-0.5 12q-4 66 -4 106q0 29 1 44q0 20 -3 77v5v5v1l-19 -33q-17 -44 -40 -64q-23 -21 -58 17q-4 3 -23 25q0 1 -1 2v-36q0 -36 1 -55q0 -11 2 -35q0 -2 0.5 -8t0.5 -9v-23q0 -21 1 -31q3 -26 5 -119
q0 -28 3 -100q0 -13 -2 -41q-4 -40 -1 -55v2l3 -14q4 -9 6 -32h7q1 0 2.5 0.5t3 0.5h3t4 -1.5t5.5 -4.5l3 -23q2 -15 -3 -19t-17 -1q-16 4 -34 4q-56 0 -101 -5zM173 691h-1l1 -1v1z" />
    <glyph glyph-name="n" unicode="n" horiz-adv-x="460" 
d="M316 709l-1 1q-7 3 -8 20.5t2 21.5l-1 -1q5 18 45 7q10 -2 14 -2q3 0 5 1q14 7 28 3t13 -25q0 -21 -9 -26q-6 -5 -18 -3v-69v-46q0 -31 -2 -46v-78q0 -2 -1.5 -8.5t-1.5 -9.5v-118q0 -13 0.5 -39t0.5 -39q0 -32 -1 -49l-3 -29v1q-3 -46 -2 -86q0 -2 0.5 -5.5t0.5 -5.5
q2 -41 -10 -56h1q-12 -17 -34 -1q-8 6 -12 27q-1 23 -14 63q-8 21 -9 25q-21 75 -52 172l-15 46q-21 69 -26 127q0 3 -14 53l-2 9v-2l-4 13v-16q0 -9 -2 -25q-4 -29 -1 -48q0 -1 0.5 -4t0.5 -5q6 -37 1 -64q-3 -17 -1 -47q0 -4 0.5 -12t0.5 -13v-54q0 -59 -2 -88
q0 -9 -2 -19q-2 -13 -1 -17l4 -30q0 -1 0.5 -5t0.5 -6q5 -37 5 -46q50 2 36 -38q-5 -18 -37 -16h-4q-27 -4 -42 -1q-31 0 -39 2q-14 2 -23 2h-4q-21 0 -27 11q-5 15 -2 27q2 13 22 11v14q-1 7 -1 24q0 19 1 29q2 18 2 26v54q0 5 -2 21q-2 21 -1 30q5 55 5 60q0 14 -4 40
q-3 20 -3 42q0 5 0.5 17t0.5 18q0 5 0.5 15t0.5 16q0 53 3 104q0 30 -1 37q-2 45 0 59q0 14 -2 24q-8 30 3 48v-1q6 12 34 17h1q1 1 2 1q15 2 42.5 -3t34.5 -14q5 -6 10 -31q0 -1 0.5 -2.5t0.5 -3.5q12 -44 20 -78l9 -34q8 -35 11 -42q7 -20 10 -45q1 -12 8 -33l9 -23
q12 -42 14 -52q4 -23 19 -66l4 -11q9 -24 27 -98l1 -8q0 -1 1 -2q0 15 2 51q0 7 0.5 27t0.5 28q0 6 0.5 18.5t0.5 18.5q0 10 0.5 31t0.5 31q0 19 -2 61q0 36 3 57l3 27q3 36 3 76q0 5 -0.5 12.5t-0.5 10.5v41q0 13 1 18h-2q-6 0 -8 -1q-9 -4 -16 -1z" />
    <glyph glyph-name="o" unicode="o" horiz-adv-x="362" 
d="M48 494q-1 13 1 40q0 4 2 14t2 13q-1 11 6 43q0 1 1 4l1 4l16 52l3 9q11 29 22 40q16 18 54 27t60 1h-1q38 -15 64 -82q8 -15 12 -44q1 -3 2 -9.5t2 -11.5t2 -9q3 -13 3 -49v-23q0 -8 1.5 -17t4 -20t3.5 -18q5 -28 5 -32q2 -26 2 -39q0 -7 -0.5 -20.5t-0.5 -19.5
q0 -102 -3 -155q-6 -94 -39 -148q-30 -44 -80 -44q-24 0 -42 14q-26 20 -47.5 54t-27.5 66l-5 21q-17 77 -20 171q0 11 -2 35q0 9 -1 26.5t-1 26.5q0 21 1 30v-1q2 25 0 51zM237 643l-6 14q-14 33 -25 35q-4 1 -9 -1l-7 -2h2q-13 -6 -16 -11q-4 -10 -9 -39q-3 -23 -3 -47
q0 -14 -2 -40q-1 -9 -1 -30q0 -31 -2 -46q-2 -18 0 -46v-35q0 -18 2 -50q0 -4 0.5 -12t0.5 -13l3 -32q4 -34 4 -51q0 -4 -0.5 -14.5t-0.5 -15.5q-1 -25 0 -50q0 -1 0.5 -4t0.5 -5q1 -15 3 -29t5.5 -33.5t10 -29.5t15.5 -8q22 5 39 45l5 24l15 44q4 14 4 41q0 24 1 33
q2 20 0 57q-1 6 -1 24q0 24 3 43q4 31 3 45q-1 21 -7 59l-4 22l-4 20q-6 46 -8 66q-2 53 -12 72z" />
    <glyph glyph-name="p" unicode="p" horiz-adv-x="360" 
d="M117 750q70 -5 103 -21q57 -32 77 -75q17 -34 17 -71q0 -92 -35 -133q-25 -29 -41 -37q-5 -3 -5 -13q1 -8 1 -29q1 -8 -2 -37q-1 -6 -1 -18q-1 -9 -1 -26v-73q0 -42 -1 -63v-44q1 -14 1 -56q23 -5 23 -26q0 -15 -6 -22t-21 -6h-37q-71 0 -96 3q-23 4 -19 35q1 8 6 11.5
t7 3.5h11q7 0 7 1q3 16 1 34v25q2 42 2 65q0 6 -2 26q-3 29 -2 35v66q-1 1 0 40v39q0 8 0.5 26.5t0.5 28.5q0 5 -0.5 16t-0.5 17q-1 16 -1 56q0 31 2 47q3 27 -1 74q-3 24 -3 53q-1 0 -5 -0.5t-5 -0.5q-15 -2 -25 -1q-19 0 -19 16q0 19 16 28q8 6 26 6h28zM283 595
q-6 24 -21.5 49t-29.5 35v-26q1 -5 1 -19q0 -2 -0.5 -5t-0.5 -5q-2 -25 0 -36q4 -48 2 -95v-38l12 15q11 16 14.5 23t11 23.5t10 36t1.5 42.5z" />
    <glyph glyph-name="q" unicode="q" horiz-adv-x="372" 
d="M220 731q10 -2 18 -5q36 -17 46 -52l-1 1q9 -23 21 -90q3 -28 9 -66l3 -27q2 -22 2 -70v-9v-11v-9q2 -66 2 -101q-3 -38 -10 -80q0 -2 -1 -7t-1 -6q-6 -43 -24 -97q-16 -53 -41 -79l21 -22h-1q15 -18 16 -18q12 -6 33 20l3 3q16 15 27 9t10 -27q0 -16 -12 -29t-28 -20
q-40 -17 -64 6h1q-12 10 -16 19q-16 22 -29 25q-8 3 -13 -6q-1 -1 -1 -2q-5 -16 -23 -23q-7 -2 -14.5 4t-9.5 15q0 8 5 25q-58 37 -71 68q-7 16 -15 67q-11 67 -12 120v56q0 56 -1 62q0 26 1 40q5 90 28 171l5 17q12 51 33 85q4 5 12 11.5t18.5 13t13.5 8.5q13 8 53 10h7z
M257 176l7 44q8 54 9 83q2 27 0 39q-3 33 -5 96l-2 61q-2 29 -10 53l-5 28q-2 16 -7 61l-2 8q-2 7 -3.5 13.5t-5.5 16t-8 11t-9 -1.5q-7 -6 -16 -42l-5 -12v2q-10 -46 -11 -84q1 -15 -3 -46q-2 -18 -2 -27v-12v-13.5v-11.5q0 -38 -1 -46l-3 -26q0 -35 -2 -53q-3 -24 -3 -44
q-2 -29 0 -42q0 -11 2 -31q0 -6 2 -21.5t2 -24.5q0 -2 0.5 -9t0.5 -12.5t-1 -9.5q0 -35 4 -52q1 -12 8 -28v1q4 -5 21 7v-1q20 20 22 33q2 3 2 6q1 12 9 27l-1 -2q13 39 16 62z" />
    <glyph glyph-name="r" unicode="r" horiz-adv-x="443" 
d="M303 568l-11 -18v2q-26 -42 -30 -46q44 -30 63 -93l9 -35q16 -58 17 -89q1 -12 5 -36v1q3 -12 5 -28l4 -24q3 -21 3 -43q0 -10 2 -34q2 -26 2 -40q0 -21 -2 -31q18 0 22 -10q5 -16 2 -25q-12 -21 -32 -14h1q-11 2 -32 2h-12q-7 -1 -13.5 -0.5t-11.5 2.5t-7.5 8t-2.5 16
q2 20 36 20q-1 7 -1 22l3 37q5 26 2 46l-4 31q-7 80 -10 95q-6 27 -17 61q-3 7 -7 25q-10 32 -11 35q-10 24 -28 45v-1l-3 5l-6.5 6.5t-8.5 7.5t-7 5q-1 -15 1 -43q0 -4 -0.5 -11.5t-0.5 -10.5q-2 -16 0 -33q0 -2 0.5 -7t0.5 -8q2 -27 0 -43q-3 -31 -3 -61q0 -4 0.5 -11
t0.5 -11q0 -23 1 -34l2 -11q5 -27 4 -47q0 -5 -0.5 -14.5t-0.5 -13.5q-1 -9 -1 -25v-11q2 -20 1 -31q31 0 31 -22q0 -16 -8 -21t-25 -4q-4 0 -92 4q-7 0 -12 -1q-32 -5 -40 3q-17 17 -5 32q2 4 4.5 5.5t6.5 1.5h5l3 1h3v13q0 19 -1 29q-2 29 0 42q3 28 1 66q-1 14 -1 45
q0 4 -0.5 14.5t-0.5 15.5q0 3 -0.5 8t-0.5 7q-4 31 0 51q4 23 4 75v186q0 13 -2 41q0 3 -0.5 9.5t-0.5 10.5q0 3 -1 6.5t-2 8.5t-2 9q-4 23 -3 33h-10q-2 0 -7 -0.5t-7 -0.5q-11 0 -15 13q-2 2 -0.5 16t6.5 14q22 0 32 2q12 1 35 1q46 0 67 -8q74 -23 103 -64q24 -36 24 -71
q0 -27 -13 -50zM267 624q1 44 -43 67v-3q-4 -18 -3 -27l4 -46q0 -27 -1 -39v1q-2 -29 -1 -40q42 17 44 87z" />
    <glyph glyph-name="s" unicode="s" horiz-adv-x="389" 
d="M318 230q13 -37 13 -73q0 -106 -64 -143q-22 -14 -59 -14q-25 0 -59.5 17t-51.5 37q-29 32 -38 88l-1 1v2h-4q-14 -6 -23 3q-5 4 -7 15q0 5 -2 9q-3 11 7 17t21 7l66 -4q13 0 17 -1t8 -6.5t0 -18.5q-3 -15 -8 -20.5t-20 -4.5h-4l9 -30q5 -23 23 -39t35 -22q62 -13 72 28
q5 24 -35 104l-1 4l-38 69l-13 23v-1l-23.5 38.5t-28.5 51.5q-25 62 -29 82l-2 12q-12 42 -11 68q2 97 47 157q3 2 13 15q22 31 38 41q34 22 71 13q19 -6 38 -22q0 9 10 21q4 1 7 3h4q12 6 17.5 -4.5t5.5 -23.5l-3 -63q0 -21 -8 -24h1q-7 -5 -15 -5q-11 0 -19 10q-1 2 -5 14
l-3 6v1v-1q-17 34 -37 43q-15 7 -27.5 -17.5t-15.5 -46.5q-6 -34 -6 -51q0 -32 14 -94l-1 1l3 -7q10 -38 37 -86l11 -19q60 -111 74 -160zM267 665q-1 1 -1 2z" />
    <glyph glyph-name="t" unicode="t" horiz-adv-x="354" 
d="M126 748q72 2 129 2h48q0 -4 -1 -18t-1 -20v-28q0 -11 -6 -14h1q-4 -3 -19.5 -3.5t-21.5 3.5v-1q-10 6 -1 32q-12 0 -17 1q1 -17 -3 -46l-3 -29q0 -8 4 -24l3 -14q1 -14 -1 -44q-6 -41 -3 -83q0 -12 -2 -79q-2 -42 -2 -59q0 -20 2 -62q0 -3 1.5 -34t1.5 -47
q0 -51 -5 -106q0 -3 -1 -8t-1 -8q17 1 28 -6.5t6 -26.5q-10 -29 -60 -24q-2 0 -5 0.5t-4 0.5q-31 0 -40 -1q-55 -5 -66 16q-8 15 -3 27q2 9 12.5 10t19.5 -1q0 2 0.5 6t0.5 7v61v20q-3 50 -1 65v17q0 45 1 67q3 28 -3 82q-2 24 3 60q0 5 0.5 14t0.5 14q1 29 -1 85v-2v45v42
q0 21 2 43q-6 12 -7 19l-8 1q-8 2 -13 2q-1 -1 0.5 -11t-5 -20.5t-19.5 -7.5q-23 6 -18 60v14q13 9 34 11h43z" />
    <glyph glyph-name="u" unicode="u" horiz-adv-x="426" 
d="M54 735q7 11 43 11h26h24q17 7 46.5 1t33.5 -28v-4.5v-5t-0.5 -5t-2 -5.5t-4.5 -4t-7 -4q-2 -1 -12 1h-3q-2 1 -3 1v-8q0 -10 4 -32q4 -38 1 -58q-7 -49 -7 -100q0 -39 3 -70q7 -43 5 -87q0 -3 -0.5 -14.5t-0.5 -15.5q0 -14 2 -42v1q2 -20 2 -63q0 -61 6 -99q2 -15 7 -27
l5 -15l7 -14q13 -4 32 27q19 37 27 111q6 45 6 47q5 24 5 60q0 22 -2 56q-2 26 -2 46q0 29 -2 87v-1q-2 19 0 60q0 1 0.5 7t0.5 9v55q0 17 -1 25q-7 33 -6 62q-12 -2 -18 7q-5 8 -3 23q3 19 47 12h5q3 -1 16 1q40 9 44 -19q2 -22 -11 -26.5t-28 1.5q2 -26 2 -38
q0 -16 -2 -52q-2 -42 -1 -64q2 -119 8 -178q0 -7 0.5 -19t0.5 -18q0 -23 -2 -53q-3 -15 -3 -33q0 -23 -3 -44q-3 -16 -11 -48l-10 -34q-2 -9 -4 -23q-2 -35 -11 -49q-27 -36 -61 -45q-14 -3 -42.5 3.5t-38.5 15.5q-19 15 -35 48l-6 12q-18 33 -25 73q-2 9 -5 41
q0 4 -0.5 13.5t-1 16.5t-1.5 12q0 3 -2 11q-4 42 -3 68q0 13 -2 41q-2 30 -1 43q1 26 -3 78q-3 48 5 92q3 18 1 37q0 36 1 41q0 1 0.5 2.5t0.5 2.5q2 24 1 31q0 3 -1 5l-2 7h-8q-17 0 -24 10q-7 12 4 30z" />
    <glyph glyph-name="v" unicode="v" horiz-adv-x="410" 
d="M59 698h-7l-5 1q0 39 1 51h36q70 0 95 4q22 4 38 -1.5t15 -26.5q0 -12 -7 -18t-13.5 -6.5t-17.5 0.5h-1q5 -20 7 -75q0 -4 0.5 -13t0.5 -13q2 -21 8 -53q7 -32 9 -45q24 -173 26 -186q2 10 5 30t5 30q0 3 1 8t1 7q1 6 2.5 18.5t2.5 18.5q0 8 6 26l1 1l4 13q2 14 2 24
q0 19 2 26q2 21 10 54q0 1 1 5t1 5q3 18 8 38l5 17l-1 -1q7 14 7 24v22q0 1 0.5 3.5t0.5 3.5q0 4 2 4q-1 1 -10 -1q-21 -2 -25 7q-8 10 -3 29.5t21 19.5q13 0 25 -2q20 -2 34 -2q20 2 24 -9q7 -13 2 -34q-3 -11 -9.5 -13t-15.5 2q-1 -16 -12 -73q-8 -36 -8 -38
q-4 -25 -8 -67q-9 -78 -15 -104q-18 -73 -45 -230q-2 -15 -7 -45.5t-7 -45.5q-7 -46 -10 -54q0 -2 -1 -4l-1 -1q-11 -41 -35 -25q-15 10 -29 43.5t-15 54.5q0 13 -13 83q-8 32 -10 81l-3 24q-4 40 -8 58v-1l-6 22q-11 32 -8 52q3 12 -5 43q-5 18 -6 31q-3 34 -11 74
q0 2 -6 56l-2 26q-4 30 -11 47h-12z" />
    <glyph glyph-name="w" unicode="w" horiz-adv-x="486" 
d="M206 220q2 -18 2 -29v-4q10 19 19 33t21 27t24 10.5t22 -22.5l4 -7l-1 1q24 -44 27 -66q1 -18 9 -35l2 63l3 68q2 29 4 77q0 12 1.5 38t2.5 39q1 10 1 30q0 30 2 45q4 26 4 73q2 58 4 87l2 53h-10.5t-8 3.5t-4.5 11.5q-2 15 1 26q4 10 23 8h3q5 0 15 -2t17 -2l12 2
q18 3 22 2q9 -1 10.5 -24.5t-5.5 -26.5h1q-6 -7 -22 -1l-5 2q1 -2 1 -25l-4 -37q-7 -91 -7 -117q0 -20 -4 -50l-4 -32q-1 -10 -1 -31q0 -29 1 -43q1 -37 -3 -112l-4 -54q0 -4 -0.5 -10t-0.5 -9q0 -42 -3 -60q0 -2 -1 -6t-1 -5q-7 -35 -3 -59v-2q1 -1 1 -2q2 -6 2 -16
q-2 -14 -10 -21q-14 -10 -26 -1l1 -1q-4 3 -5 6l-21 36l-3 11l-3 10q-9 25 -15 36l-10 21l-10 24q-7 27 -11 35l-16 -25l-13 -21l-15 -23q-13 -16 -19 -28l-10 -18q-8 -20 -15 -28l-6 -15l1 1q-7 -18 -14 -24q-13 -11 -21.5 -8.5t-14 9t-8.5 18t-4 19.5t-1 13q0 4 -5 26
t-4 27v36l-2 21q-5 37 -5 42q3 21 -1 64q-1 6 -1 21q0 18 -4 35q-2 11 0 37q1 12 0 25l-2 24v-1l-4 45q-1 13 -1 43q0 56 -5 85q-9 47 -9 83q0 29 1 40q-18 2 -19 18q0 20 9 25q13 5 34 3q2 0 6 -1h3q1 0 3 0.5t3 0.5q8 1 29.5 0.5t29.5 -1.5q10 0 18 2q33 5 42 -4
q5 -7 3 -20t-9 -21q-12 -5 -18 -5h-2q-3 1 -4 1l-4 1l-2 -4l2 3q-4 -15 -4 -32q0 -15 4 -45l3 -27q2 -22 2 -67q0 -56 4 -83q1 -5 1 -17v-18q0 -2 2 -14q2 -14 2 -22q1 -26 -1 -72q0 -40 2 -78q0 -2 0.5 -6t0.5 -6z" />
    <glyph glyph-name="x" unicode="x" horiz-adv-x="444" 
d="M60 746h43q8 0 13 -1h-2q16 -2 20 -2q47 0 59 2q27 4 40 0q11 -3 13 -18.5t-2 -22.5q-9 -13 -44 -11q1 -7 5 -14q8 -25 9 -36q2 -41 10 -63q15 -55 23 -88l21 92l7 27q1 6 4.5 18.5t4.5 19.5l8 47q-22 0 -20 23v6q0 21 10 24h-2q13 7 39 0q10 -2 11 -2h11q14 0 20 -2
q5 -1 9.5 -12t4.5 -21t-7 -10q-16 0 -23 -1h1l-3 -1v-6l-6 -32q-1 -4 -6 -27.5t-7 -36.5l-7 -24q-29 -121 -32 -139q-1 -9 -4 -25.5t-4 -22.5q-2 -11 3 -32q8 -28 16 -75l5 -31l10 -50l7 -28l6.5 -22.5t6.5 -24.5l10 -39q4 -9 8 -27q38 7 45 -13q6 -12 -1 -24t-20 -16
q-15 -4 -46 -2q-9 1 -36.5 1.5t-35.5 -0.5q-51 -5 -58 23q-3 20 6.5 24.5t28.5 1.5h2q-1 7 -5 22t-5 20q-10 33 -13 58q-1 9 -6 21q-4 9 -8 25q-2 5 -4 21q-14 -32 -23 -50q-4 -12 -13 -30l-7 -12q-9 -22 -11 -38q-4 -9 -4 -19q0 -3 -0.5 -4t-0.5 -2v-4q23 4 26 -18
q2 -25 -16 -36q-11 -6 -34 -2q-4 1 -19 1q-18 -3 -28.5 2t-8.5 21q0 16 4.5 22t20.5 4q2 2 4 15l1 8q0 1 6 13l7 13q2 5 4 13t2 9q1 8 11 26l-1 -1q6 16 26 56q14 39 26 87q1 6 4 16t4 15l-24 97l-5 23q-8 30 -14 69l-13 65l-9 30l-9 35q-1 4 -2 10t-2 14t-2 12l-2 15h-3
q-34 -2 -39 14v-1q-3 4 -1 21t12 17z" />
    <glyph glyph-name="y" unicode="y" 
d="M288 698q-14 -4 -18 8.5t1 22.5q6 15 54 12q2 0 5 -0.5t4 -0.5q2 0 4 1q34 2 40 -7q4 -6 1 -19q-4 -22 -25 -22h-3q-2 -6 -3 -8q-2 -9 -33 -56l1 1q0 -1 -1 -2t-2 -2.5t-2 -2.5q-13 -25 -19 -38l-15 -25l-16 -30h1q-8 -15 -5 -30q2 -26 2 -37q0 -6 -0.5 -18t-0.5 -17
q0 -30 -3 -60q-4 -64 -2 -95v1q1 -26 1 -79q0 -25 2 -67q2 -31 -1 -56q0 -2 -0.5 -5t-0.5 -4t-1 -4.5t-1 -5.5l-1 -2q0 -2 6 -2q13 1 22 -0.5t17 -8.5t8 -21q0 -19 -47 -16q-1 0 -2.5 0.5t-2.5 0.5q-11 0 -29 -2q-38 -3 -64 -1q-24 2 -28 19q-4 18 4 26l15 3h7v7q0 13 1 19
q0 3 0.5 9t0.5 8q0 20 -1 31q-2 29 0 41q2 11 -1 27q0 1 -1 3.5t-1 4.5q-2 16 0 32q0 1 1 3t1 3q0 20 -2 32q-1 20 0 42q2 10 2 35q0 30 2 44q3 27 -1 67q0 1 -0.5 5.5t-0.5 7.5q-2 10 1 43q-2 15 -10 30l-6 16q-16 30 -22 50l1 -1q-2 6 -8.5 17.5t-8.5 17.5q-10 17 -17 36
l1 -1l-6 20q0 -2 -1 -2h-6q-20 0 -26 15q-2 17 0 26q4 12 22 10h5q11 0 15 -1q50 -5 79 -2q1 0 3 0.5t3 0.5q48 10 51 -18q0 -15 -1 -17q-8 -18 -30 -18q9 -26 21 -46q10 -20 22 -50l27 42q15 35 32 61q-6 0 -10 -1z" />
    <glyph glyph-name="z" unicode="z" horiz-adv-x="400" 
d="M316 726q23 0 31 -14q11 -15 -1 -47q-14 -29 -27 -80q-8 -51 -24 -100q-1 -3 -7 -27q-2 -13 -4 -17l-3 -8q-3 -8 -6 -15l1 1l-6 -19q-2 -8 -2 -22q0 -15 -1 -21q-2 -19 -9 -35q0 -1 -1 -3t-1 -3l-5 -15l1 2q-21 -65 -24 -82l-22 -92l-10 -30q-2 -11 -4 -15q0 -6 -3 -18
q-2 -14 -3 -17l29 -3h20q0 1 1.5 3.5t1.5 4.5q5 16 16 18q13 0 21 -3l-1 1q12 -5 8 -33t-13 -34q-5 -3 -20 -3q-54 7 -130 5q-1 0 -5.5 -0.5t-7.5 -0.5h-28t-23 8t-7 24q2 15 7 26l4 10q3 9 3 16q0 12 1 16q3 28 13 53l5 24q8 27 16 49q5 12 11 33q1 6 3.5 19t4.5 19
q3 21 8 41l8 35q7 17 14 51q5 29 21 69q5 12 9 40l6 33q4 20 11 40l13 39q5 17 6 29v1h-12q-16 0 -21 1q-49 0 -63 1q0 -1 0.5 -3t0.5 -4q4 -19 -4 -29q-5 -7 -16.5 -8t-19 5t-3.5 16q2 5 0 23q-6 43 22 48h-1q23 4 59 -3h-1q19 -3 35 -3q14 0 44 2t69 2q10 0 15 -1z" />
    <glyph glyph-name="braceleft" unicode="{" horiz-adv-x="252" 
d="M65 1q-19 33 -14 87q8 48 25 80l9 18q33 58 33 89q0 21 -11 40q-8 14 -22 22q-1 0 -3 0.5t-3 0.5q-20 2 -30 16q-12 23 40 45l3 2q16 15 24 58q1 32 -19 71q-50 80 -43 157q5 38 27 64.5t59 30.5q47 4 59 -14q14 -27 -24 -36l-10 -3q-9 -9 -6 -47v-4q0 -3 0.5 -7.5
t0.5 -6.5q3 -45 4 -52v1l6 -28q9 -45 10 -57q0 -6 5 -33q5 -25 4 -43q-2 -30 -41 -82v1q3 -5 11 -14.5t11.5 -15t8 -15t5.5 -19.5q3 -15 3 -33t-6 -54q-6 -29 -7 -45q-2 -20 -5 -36q0 -3 -1 -7t-1 -6q-7 -39 -5 -66q1 -6 1 -24q0 -25 3 -33q39 5 39 -20q1 -14 -11 -21
t-28 -8q-70 -2 -101 47z" />
    <glyph glyph-name="bar" unicode="|" horiz-adv-x="178" 
d="M54 -54q0 27 -4 51q-2 26 -2 41q-1 25 6 58q2 8 4 32q2 22 -1 54q-3 39 -3 42q0 6 -0.5 17t-0.5 17q0 36 -2 54q-1 26 0 50q2 10 2 42q-2 10 -2 33q0 28 2 41q0 2 0.5 8t0.5 8q3 51 3 102q0 47 -4 88q-1 7 1 40q2 24 1 37q0 1 -0.5 3.5t-0.5 3.5q-3 40 15 48q13 7 31.5 3
t25.5 -17q8 -16 3 -50q0 -2 -1 -8l-2 -18q0 -6 -0.5 -18t-0.5 -19v-41q0 -3 0.5 -11.5t0.5 -12.5q2 -34 2 -56t-1 -29q-3 -54 -2 -61q0 -20 2 -50v1q2 -20 2 -36q1 -18 1 -62v-163q0 -22 -1 -33q-6 -47 -2 -77q2 -18 0 -53q-1 -12 -1 -34q0 -7 1 -12q5 -33 -2 -47
q-5 -13 -25 -14.5t-29 5.5q-17 11 -17 43z" />
    <glyph glyph-name="braceright" unicode="}" horiz-adv-x="264" 
d="M81 2l3 5l1 1h1h-1q8 6 12 32q0 1 0.5 2.5t0.5 2.5q3 18 3 64q-4 41 -12 65l-9 31q-17 55 -15 91q2 19 13 42q10 13 32 32q-17 12 -27 29q-5 11 -7 31v7q-2 52 6 98q2 12 8 42l5 21q5 37 5 62q0 3 0.5 9.5t0.5 10.5q0 41 -9 60q0 -3 -9 0h-3l-1 1q-12 2 -21.5 8t-8.5 15
v-1q0 4 5 7q12 13 38 13q29 0 60 -12h-1q38 -14 53.5 -48t9.5 -76q-8 -51 -25 -81v1l-14 -23q-22 -35 -25 -45q-6 -22 -6 -32q0 -13 6 -31q10 -33 35 -42q1 0 2 -0.5t2 -0.5q35 -6 26 -30q-3 -5 -5.5 -8.5t-6 -6t-5.5 -3.5t-7 -2t-7 -2q-13 -2 -17 -3q-11 -9 -19 -56v-8
q-4 -33 12 -62l7 -12v1q57 -89 47 -147q-6 -49 -28 -72q-25 -23 -72 -27q-39 -2 -58 12v-1q-6 5 -8 11q-3 13 8 22q9 6 23 8h4zM85 8l-2 -1h1z" />
    <glyph glyph-name="asciitilde" unicode="~" horiz-adv-x="502" 
d="M448 396q11 -9 6.5 -27.5t-13.5 -35t-17 -24.5q-28 -40 -81 -40q-32 0 -73 17q-33 16 -67 45v-1q-45 32 -68 31q-18 0 -29 -13q-7 -7 -11 -21q-3 -3 -3 -10q-4 -14 -16.5 -16t-20.5 8q-17 17 2 51l3 8q12 24 27 43q29 34 71 34q45 0 120 -52q66 -42 92 -46q22 -1 35 22
l4 6q15 28 25 28q7 1 15 -7h-1z" />
    <glyph glyph-name="exclamdown" unicode="&#xa1;" horiz-adv-x="214" 
d="M98 -225h-1q-27 3 -35 5q-12 0 -14 8h1q-2 3 -2 9q0 2 3 43l3 25q2 20 2 64v18q-2 44 2 98q3 66 3 68q0 15 2 43q2 20 2 26v40v39q0 7 5 32q7 33 6 40q0 2 -0.5 4t-0.5 3q-6 36 21 39q20 3 27 -9t7 -32q0 -22 -1 -28q-2 -23 1 -39q0 -15 1 -23q0 -4 0.5 -12t0.5 -11
q0 -20 3 -46q0 -1 1.5 -6.5t1.5 -7.5q8 -112 9 -122q4 -73 14 -158q3 -23 7 -83q0 -14 -5 -18l-10 -4q-19 -5 -54 -5zM93 414q-36 8 -36 47q0 25 16.5 41.5t43.5 10.5h-1q33 -7 33 -45q0 -25 -15.5 -42t-40.5 -12z" />
    <glyph glyph-name="cent" unicode="&#xa2;" horiz-adv-x="320" 
d="M169 693q27 0 27 -33q0 -13 -4 -31q-2 -8 -2 -9v-26q0 -3 4 -3q20 -4 28 -8q-5 18 4 33q3 6 13.5 6t18.5 -4q15 -8 12 -40v-24q0 -5 0.5 -11.5t0.5 -10.5q0 -13 -9.5 -22.5t-22.5 -6.5q-9 3 -21 21q-6 11 -18 20q-6 4 -6 0q-3 -33 -3 -64q0 -20 2 -64q2 -48 2 -70
q0 -60 -1 -92v-34q0 -3 0.5 -20t-0.5 -18q15 9 26 35l4 9q12 24 26 23q20 -1 22 -22q3 -38 -20 -63t-60 -31q2 -28 2 -53q0 -37 -13 -46v1q-8 -4 -13.5 -5.5t-9.5 7t-6.5 15t-4 18.5t-2 19t-0.5 16v13q0 3 1 5.5t1.5 4t0 2.5t-2.5 2q-15 4 -25 14q-12 7 -33 40
q-29 60 -37 108q-3 27 -3 55q0 11 0.5 22.5t1.5 25.5t1 22q5 36 13 59l15 27l5 10.5t5 9.5q21 36 40 49l-1 -1l17 9v27q0 84 25 84zM148 442q-2 14 0 42v11l-5 -7q-4 -11 -8 -33q-2 -13 -2 -38q0 -4 -0.5 -12.5t-0.5 -12.5q0 -19 -1 -26q0 -5 -0.5 -16t-0.5 -14q0 -36 4 -64
q5 -31 13 -48q0 2 1 4q0 7 0.5 22t0.5 24q0 6 -0.5 18.5t-0.5 19.5v41v29q0 5 0.5 15t0.5 16q0 4 -0.5 14t-0.5 15z" />
    <glyph glyph-name="sterling" unicode="&#xa3;" horiz-adv-x="376" 
d="M329 58q-3 -38 -18 -48q-9 -12 -52 -7l-3 1q-17 3 -53 -1q-1 0 -5 -0.5t-5 -0.5q-30 -3 -67 -3q-34 0 -52 11t-6 39h1q2 5 5 14t4 14q7 24 17 41q5 11 6 26q0 7 1 10q2 14 4 21l3 13q3 14 5 41q1 6 2.5 18.5t2.5 18.5q3 20 -1 65v7q-4 0 -14.5 -1t-16.5 -1q-38 0 -39 24
q-2 23 19 28t42 -1q4 -1 5 -1v13q0 7 -6 52l-3 29q-2 22 -2 65v17q-1 37 17.5 79.5t47.5 69.5q17 14 42 17q2 0 8 2q17 4 25 0q29 -5 47 -38q5 -11 8 -25t1 -30t-13 -21q-15 -6 -23 1.5t-9 16.5t-1 22v5q-2 13 -16 20q-10 -7 -17 -17q-10 -14 -8 -49v-14q-1 -16 -1 -48
q0 -21 1 -33q2 -24 4 -40l5 -40q2 -30 1 -45q0 -2 -0.5 -4.5t-0.5 -3.5v-3q5 0 35 3h8q16 2 25 -5q9 -8 7 -24.5t-14 -19.5q-16 -2 -56 0h-8q0 -2 1 -6t1 -7v-33l-4 -29q0 -5 -1 -15t-1 -14q-7 -69 -18 -113q-4 -43 -17 -75q13 0 41 2q10 1 31 1h28h-1v11q0 19 13 21
q14 5 26.5 0.5t11.5 -23.5z" />
    <glyph glyph-name="currency" unicode="&#xa4;" horiz-adv-x="561" 
d="M445 477l-27 -25l19 -26q28 -46 28 -94q0 -55 -33 -100l8 -8h-1l17 -14.5t14 -12.5q22 -26 35 -38q10 -8 6.5 -23t-23.5 -18q-8 -1 -27 16l-49 50l-13 16q-55 -45 -121 -45q-64 0 -114 46l-11 -12v1q-15 -20 -25 -30q-6 -6 -19.5 -17.5t-19.5 -17.5q-7 -10 -23 -6.5
t-18 22.5q-1 11 17 27l51 50l19 16h2l-7 10q-29 48 -29 99q0 62 40 112l-46 46l-18 21q-2 3 -6 8l-7 8.5t-6 5.5q-5 6 -7 13.5t2 15t16 10.5l-1 -1q11 5 22 -8l3 -4l19 -21l11 -8q6 -6 16.5 -15t12.5 -11l22 -27q49 38 106 38q56 0 104 -39l49 49l19 14q18 15 23 21
q7 9 20.5 8t18.5 -19l-1 1q4 -10 -10 -22l-2 -2l-20 -19l-10 -12v1q-22 -26 -26 -30zM405 341q-4 58 -32 88t-65 30q-43 0 -74.5 -35.5t-28.5 -95.5q4 -54 29 -81t61 -27q40 0 73 28q0 12 14 17q26 34 23 76z" />
    <glyph glyph-name="yen" unicode="&#xa5;" 
d="M327 305q17 0 21 -13.5t-7 -26.5q-13 -15 -58 -13h-13h-16v-50q0 -25 2 -67q2 -31 -1 -56q0 -2 -0.5 -5t-0.5 -4t-1 -4.5t-1 -5.5l-1 -2q0 -2 6 -2q13 1 22 -0.5t17 -8.5t8 -21q0 -19 -47 -16q-1 0 -2.5 0.5t-2.5 0.5q-11 0 -29 -2q-38 -3 -64 -1q-24 2 -28 19
q-4 18 4 26l15 3h7v7q0 13 1 19q0 2 0.5 8t0.5 9q0 20 -1 31q-2 29 0 41q2 11 -1 27q0 1 -1 3.5t-1 4.5q-2 16 0 32q0 1 1 3t1 3v11q-20 0 -60 2q-13 1 -22 7.5t-6 19.5q7 13 24 13q9 0 31 2l30 3q0 10 1 16q2 10 2 35v14q-8 0 -12 1q-14 1 -40 1q-11 -1 -20.5 1t-16 10
t-0.5 22l-1 -1q9 22 60 17q5 -1 13 -1l20 -2q0 17 -2 49q0 1 -0.5 5.5t-0.5 7.5q-2 10 1 43q-2 15 -10 30l-6 16q-16 30 -22 50l1 -1q-2 6 -8.5 17.5t-8.5 17.5q-10 17 -17 36l1 -1l-6 20q0 -2 -1 -2h-6q-20 0 -26 15q-2 17 0 26q4 12 22 10h5q11 0 15 -1q50 -5 79 -2
q1 0 3 0.5t3 0.5q48 10 51 -18q0 -15 -1 -17q-8 -18 -30 -18q9 -26 21 -46q10 -20 22 -50l27 42q15 35 32 61q-6 0 -10 -1q-14 -4 -18 8.5t1 22.5q6 15 54 12q2 0 5 -0.5t4 -0.5q2 0 4 1q34 2 40 -7q4 -6 1 -19q-4 -22 -25 -22h-3l-3 -8q-2 -8 -33 -56l1 1q0 -1 -1 -2
t-2 -2.5t-2 -2.5q-13 -25 -19 -38l-15 -25l-16 -30h1q-8 -15 -5 -30q2 -26 2 -37q0 -6 -0.5 -18t-0.5 -17v-19h6q5 1 28 -2q6 -1 18 -1q44 0 44 -15q0 -7 -7 -18q-12 -16 -62 -11q-7 1 -15 1q-2 0 -8 -0.5t-8 -0.5q-2 -57 -2 -68q22 4 75 4z" />
    <glyph glyph-name="brokenbar" unicode="&#xa6;" horiz-adv-x="153" 
d="M57 557v-1q1 27 -4 59q-7 31 -4 62v8q0 25 19 32q19 6 27 -8q12 -13 -4 -44l-3 -5l2 3q-3 -10 1 -29q2 -8 2 -16q2 -8 2 -27q0 -28 1 -32q1 -17 5 -59q0 -13 -4 -43l-6 -42q0 -15 6 -29l-1 1q15 -35 -9 -46q-19 -6 -30 5q-12 6 -9 37v5l1 3v28q0 4 0.5 13.5t0.5 12.5
q1 35 7 112zM97 65q-2 -21 4 -63q4 -45 3 -66q-1 -3 -1 -10q0 -27 -15 -33q-21 -8 -30 8q-7 12 3 43v-1l1 3q1 3 1 4q4 10 -1 35l-2 15v26q0 30 -1 36q-3 28 -3 65q0 23 3 43q4 28 4 45t-6 35q-8 37 9 45q17 9 33 -3q7 -4 7.5 -17t-1.5 -23q0 -2 -0.5 -4.5t-0.5 -3.5
q0 -5 -0.5 -15t-0.5 -16q-1 -10 -1 -28q0 -69 -5 -120z" />
    <glyph glyph-name="section" unicode="&#xa7;" horiz-adv-x="520" 
d="M460 190q13 -41 13 -70q0 -48 -30 -84q-6 -13 -25 -22q-23 -13 -48 -13q-26 0 -49 12v-6q0 -48 -30 -84q-6 -13 -25 -22q-24 -12 -48 -12q-54 0 -88 42q-35 39 -45 99l-1 1v3h-4q-15 -7 -23 2q-6 6 -8 14q0 6 -1 10q-3 11 7 16.5t22 6.5l64 -4q17 0 22 -3.5t2 -21.5
q-3 -15 -7.5 -20.5t-18.5 -4.5h-5l9 -28q15 -40 41 -56q20 -13 46 -7q11 2 14 7t3 18q0 22 -21 70l-1 3l-38 67l-14 23v-1q-34 55 -64 119q-25 56 -29 80l-2 11q-12 40 -11 65q2 93 47 152q3 3 6.5 7.5t5.5 6.5q16 27 38 41q32 21 71 13l4 -2q12 27 27 46l5.5 8t5.5 7
q20 29 39 41q32 19 71 12q23 -8 37 -22q0 10 10 21q4 1 7 3h4q11 5 16.5 -5.5t5.5 -22.5l-3 -61q0 -19 -8 -23h1q-7 -5 -14 -5q-10 0 -19 11q-1 3 -5 13l-2 3v2q-15 32 -38 42q-26 10 -45 -19q-17 -22 -18 -42q-6 -36 -6 -51q0 -35 15 -91l-1 1l3 -7q13 -52 49 -116l11 -17
q59 -107 73 -156zM220 513q0 31 6 63q-28 9 -44 -19q-16 -21 -18 -42q-6 -36 -6 -52q0 -32 14 -90l-1 1l3 -7q14 -50 51 -116l10 -18q55 -104 68 -138q16 -27 33 -38q20 -13 45 -8q11 3 14.5 8.5t3.5 18.5q0 25 -22 69l-1 3l-37 67l-13 23v-1q-43 69 -65 118q-23 51 -29 81
l-2 10q-12 49 -10 67z" />
    <glyph glyph-name="dieresis" unicode="&#xa8;" horiz-adv-x="298" 
d="M212 713q39 -3 39 -43q0 -22 -15 -39.5t-39 -13.5q-19 1 -28.5 13.5t-9.5 29.5q0 23 15 39.5t38 13.5zM89 617q-21 0 -31.5 14t-10.5 34q0 21 11 35.5t31 14.5q22 0 33.5 -14t11.5 -34t-12 -35t-33 -15z" />
    <glyph glyph-name="copyright" unicode="&#xa9;" horiz-adv-x="455" 
d="M48 380q-1 11 -1 36q0 178 102 234q29 17 74 17q42 0 82 -14q35 -11 56 -49q27 -36 37 -68q11 -35 11 -96v-38q0 -4 -0.5 -12.5t-0.5 -13.5v-24q2 -36 -3 -60q0 -2 -1 -7t-1 -8q-4 -43 -9 -61q-24 -84 -90 -126q-44 -23 -82 -23q-37 0 -74 21q-71 52 -87 128
q-9 41 -12 85q-1 7 -1 44v35zM292 611v-1q-5 5 -22 5q-12 0 -17 1l-17 3q-21 5 -27 4q-48 -3 -71 -36q-28 -37 -37 -85l-5 -48v-10q0 -1 -0.5 -5t-0.5 -6h3l-6 -68q0 -26 1 -31q2 -12 2 -34q-4 -44 32 -114q32 -64 82 -69q58 -9 107 44q36 42 40 113v12q0 19 2 27l8 25
q0 9 -1 12v-1q-2 3 -2 13q-2 17 2 33q1 25 -5 63l-2 28l-3 33q-8 46 -63 92zM190 567l11 6q12 5 29.5 0.5t27.5 -15.5q0 1 0.5 4t0.5 5q0 7 9 10l21 2q2 0 6.5 -38t2.5 -43q-5 -8 -32 0q-12 5 -12 9l-2 1q-1 2 -3 4l-2 3q-10 13 -18 10q-10 -3 -18 -34q0 -2 -0.5 -3.5
t-0.5 -2.5q-9 -49 -9 -78q0 -17 2 -53q0 -4 0.5 -12t0.5 -13q0 -47 7 -86v1q3 -14 7 -28q3 -5 7 -5q21 0 27 11q1 3 1 13v11q2 21 20.5 26t23.5 -20q6 -28 -7.5 -51.5t-41.5 -32.5q-21 -6 -39 -5q-63 6 -84 99q-15 69 -15 116q0 27 3 48q10 64 34 102q14 28 43 39z" />
    <glyph glyph-name="ordfeminine" unicode="&#xaa;" horiz-adv-x="268" 
d="M108 419q-23 0 -29 1q-1 0 -4 0.5t-5 0.5l-1 -1h-2q-14 -2 -18 2q-4 8 0 17q1 3 9 3h3q2 0 2 3q0 2 0.5 5t0.5 4q0 5 2 15q4 11 4 23q0 17 6 43l3 10q1 6 2.5 17.5t2.5 17.5l1 13l3 21q5 24 9 74q0 4 1 13t1 14l2 12v4q2 21 13 25q6 3 19 3q14 0 16 -1q2 2 6 0
q9 -4 9 -20v-5l10 -69q7 -43 11 -76q2 -16 4 -23l1 -7v1l3 -17v-3v-1q1 -3 1 -4t1 -3t0 -3q0 -6 1 -8v-4l6 -41q1 -5 2.5 -15t1.5 -14q18 4 14 -13q0 -6 -5 -10q-5 -2 -10 0h-1h-5h-4h-4q-14 -2 -18 0q-3 5 -1 12q0 1 1 4.5t2 5.5q3 4 9 2l-5 31l-1 14q-2 18 -4 25l-1 6
l-2 11l-9 -1l-8 -1l-18 -1h-5q-1 -1 -1 -4q-6 -25 -7 -40q0 -4 -0.5 -6.5t-0.5 -3.5t-0.5 -5t-0.5 -5q0 -13 -1 -18q0 -2 -1 -3t-1 -3l1 -1h1l2 -1q7 0 7 -10q-1 -12 -16 -12h-5zM161 614q-1 19 -7 55l-1 2q-1 1 -1 3l-2 -14q-1 -5 -2 -13.5t-1 -9.5q-1 -2 -1.5 -8t-0.5 -8
l-3 -12q-2 -18 -4 -26q0 -2 -0.5 -5.5t-1.5 -4.5q-4 -14 -4 -22q11 0 20 3l16 3h1q1 0 1 2q-6 25 -9 55z" />
    <glyph glyph-name="guillemotleft" unicode="&#xab;" horiz-adv-x="583" 
d="M514 547q13 -5 15.5 -18.5t-2 -27t-12.5 -24.5q-18 -25 -55 -39q-17 -8 -26 -16q-13 -7 -25 -20l-11 -10q-17 -13 -48 -29q-9 -5 -26 -20l-9 -7l1 2q-13 -16 -38 -31q-2 -1 -3 -1t-3 -2l52 -36.5l60 -41.5l4 -3q40 -30 53 -34q14 -5 41 -25l18 -14q5 -3 7 -4
q37 -20 27 -46l1 1q-15 -39 -61 -1l3 -1q-1 0 -3 1l-2 1l-24 20q-24 22 -40 27q-10 2 -38 22l-27 17q-15 11 -39 23q-64 32 -86 60h2q-14 17 -15 26.5t9 29.5q22 35 73 61q27 9 54 38q6 6 45 29l15 9q36 27 50 44q1 0 2 1q41 50 61 39zM239 427q-6 -6 -18 -11l1 1
q-13 -5 -19 -11l-11 -9q-17 -17 -26 -23q-11 -7 -19 -10l1 1l-20 -10l-22 -17q-3 -2 -5.5 -4t-4.5 -5q19 -17 97 -78l45 -34q7 -5 41 -39l21 -22l4 -1q37 -25 30 -63q-12 -34 -26 -11q-7 10 -18 15q-15 7 -43 37l-7 7t-7 8l-26 20q-9 6 -39 32q-12 14 -37 32l-11 8
q-10 7 -16 12h1l-17 13q-4 5 -12 12.5t-13 13t-8 9.5q-24 48 24 88h-1q20 17 70 50q44 27 55 35v-1l21 15.5t12 9.5q16 7 30 18l6 8q9 11 19.5 18t22.5 10t19 -9q15 -39 -38 -64l-5 -5l1 1l-6 -3q-16 -9 -22 -15q-2 -2 -6 -8q-4 -4 -3 -2q-8 -14 -15 -19z" />
    <glyph glyph-name="logicalnot" unicode="&#xac;" horiz-adv-x="380" 
d="M47 341q0 37 66 22q21 -3 41 -3q6 0 17.5 0.5t16.5 0.5l37 5q11 2 46 4q59 2 62 -35v1q1 -11 -1 -29q-2 -8 -2 -11q-1 -6 1 -19q0 -1 0.5 -4t0.5 -5v-4q3 -13 0 -37t-19 -30q-16 -5 -22.5 14.5t-6.5 52.5q0 32 2 56l-8 -1q-12 -2 -16 -2q-10 -1 -26 3h-2l-1 1
q-17 3 -62 -1q-1 0 -4 -0.5t-5 -0.5q-27 -3 -50 -3q-65 0 -65 25z" />
    <glyph glyph-name="uni00AD" unicode="&#xad;" horiz-adv-x="379" 
d="M319 345q17 -8 12 -25t-22 -20q-9 0 -13 3q-9 0 -25.5 -1t-25.5 -1h-91q-2 0 -7 1t-8 1q-34 2 -52 0q-17 -2 -30 4.5t-8 25.5q7 21 54 14q4 -1 8 -1q27 0 40 1h-1q11 1 33 1q6 0 18 0.5t19 0.5q11 1 37 1h11q38 0 51 -5z" />
    <glyph glyph-name="registered" unicode="&#xae;" horiz-adv-x="407" 
d="M197 312l2 1q-35 0 -66 12.5t-47 34.5q-35 50 -37 106q-4 38 2 113q6 40 12 58q5 12 33 46q37 44 114 44q61 0 100 -53l12.5 -15.5t14.5 -19.5t9 -17q2 -5 4 -27q0 -6 7 -27q3 -16 1 -51q0 -9 -2 -28l-3 -29q-6 -50 -8 -58q-12 -20 -12 -22q-5 -15 -13 -23
q-42 -45 -117 -45h-6zM139 349q29 -17 74 -13t72 24q21 17 31 57q8 27 10 78q0 12 1 35t1 34q0 49 -27 87q-35 48 -75 54q-26 2 -55 -5t-45 -21q-7 -7 -13 -14.5t-11 -17t-7.5 -16t-6.5 -19.5t-6 -17q-7 -18 -5 -41q1 -15 -5 -43q-5 -54 14 -90q22 -47 42 -64q5 -4 11 -8z
M257 376h-13q-14 -1 -14 0q0 13 3 19q3 1 8 2t4 8q-2 8 -2 14q-1 6 2 26q3 77 -43 80q-2 -2 -0.5 -13t1.5 -13q-1 -11 -1 -34v-66q24 4 14 -18q-3 -8 -7 -9q-3 -1 -8 0.5t-9 1.5t-18 -2q-6 0 -18 0.5t-17 0.5q-4 0 -4 7t5 14q0 1 4 4l3 2q0 3 -2 7t-2 5q-1 4 -1 14q0 8 2 30
q4 36 4 49q0 2 -2 20.5t-1 27.5q0 5 3 24t2 30l-2.5 13t-1.5 12v5q0 4 -6 4q-7 1 -18 1q-4 0 -4.5 10t2.5 12q6 9 41 9q30 -2 57 -13t29 -31q1 -3 3 -11.5t2.5 -12.5t0 -10.5t-3.5 -12.5q-7 -16 -32 -36q24 -7 38 -28q11 -16 12 -20q1 -2 1 -20q0 -10 4 -36t3 -42
q24 -1 22 -23q0 -4 -3.5 -4.5t-10 1t-8.5 1.5q-5 1 -18 1zM208 571q13 13 14 31t-11 30q-4 0 -4 4q0 -7 1 -30t0 -35z" />
    <glyph glyph-name="macron" unicode="&#xaf;" horiz-adv-x="374" 
d="M209 774q11 -1 38 3q30 4 43 2h6q25 0 31 -15l-1 1q8 -20 -9 -29h1q-13 -9 -31 -1q-2 0 -5 5q-7 0 -19 -3h1q-3 -1 -15 -1h-17q-14 0 -21 -1l-43 -3q-8 0 -29 3q-36 4 -49 -1q-26 -13 -42 19q-5 8 9 19l-2 -1q8 13 33 8h4q2 0 5.5 -0.5t4.5 -0.5h28q54 -2 79 -4zM284 738
q-1 0 -1 2h-1z" />
    <glyph glyph-name="degree" unicode="&#xb0;" horiz-adv-x="211" 
d="M122 733q20 -5 31 -20.5t11 -33.5q0 -29 -19.5 -47t-52.5 -10q-21 6 -33 22t-12 35q0 27 20.5 44.5t54.5 9.5zM111 703h1q-13 3 -20.5 -4t-7.5 -19q0 -22 18 -26q13 -3 19.5 4.5t6.5 19.5q0 22 -17 25z" />
    <glyph glyph-name="plusminus" unicode="&#xb1;" horiz-adv-x="380" 
d="M157 235l-2 1q-4 2 -7 11q0 15 1 23q2 10 2 14q-1 6 -1 19v19l-2 19v5v2q-3 0 -8.5 0.5t-9.5 0.5h-23q-1 0 -4.5 -0.5t-5.5 -0.5q-50 -8 -50 21q0 13 10.5 21t23.5 7q18 -2 28 -2q3 0 8 -0.5t7 -0.5q8 0 20 -2h4q0 28 -1 37q-1 12 -1 39q1 19 12 30.5t30 11.5h5
q29 0 35 -12q3 -8 -2 -19q-2 -6 -1 -11q0 -6 2 -14q2 -14 2 -20v-39q0 -1 1 -1h23q27 2 43 -2q2 -1 9 -1q16 0 22 -8q16 -27 -35 -37q-18 -3 -46 0h-11q-1 0 -4 1t-5 1q0 -1 -0.5 -3t-0.5 -3t-0.5 -4t-0.5 -4q-2 -15 -1 -23q0 -8 5 -16l2 -5q9 -48 -13 -57q-5 -1 -15 -1
q-2 0 -5 -0.5t-5 -0.5q-24 -4 -35 4zM61 157q-16 8 -11.5 24.5t21.5 19.5q8 0 12 -2q10 0 27 0.5t25 0.5h91q2 0 7.5 -0.5t8.5 -0.5q28 -4 50 0q18 1 31.5 -5.5t8.5 -25.5q-7 -23 -55 -15q-4 1 -9 1q-12 1 -39 -1h1q-11 -1 -34 -1q-6 0 -17.5 -0.5t-17.5 -0.5q-12 -1 -38 -1
h-11q-36 0 -51 7z" />
    <glyph glyph-name="twosuperior" unicode="&#xb2;" horiz-adv-x="293" 
d="M52 325h1q-12 11 2 33v-1l3 5q4 9 11 33l2 11q6 19 16 35q0 1 2 4.5t2 4.5l5 18q0 13 7 21h-1q2 3 10 17l-1 -1l7 11q6 10 7 16q2 8 6.5 23t5.5 20q4 18 14 36q16 40 17 50q2 17 -13 20q-9 0 -14 -3q-7 -9 -7 -11v-6q0 -19 -11 -23q-23 -7 -27 13q-3 19 11 37t40 19
q53 3 74 -12q20 -17 23 -34q3 -11 -3 -32l-2 -13l-4 -11.5t-3 -9.5q-6 -9 -6 -19q-2 -13 -12 -35q-5 -8 -6 -10l-1 -5q-1 -2 -2.5 -6.5t-2.5 -6.5q-1 0 -1 -1l-7 -14q-3 -12 -16 -46q-1 -3 -12 -38q-1 -4 -15 -30q-3 -7 -5 -13q-4 -12 -5 -18q0 -4 -1 -10q17 3 36 3
q0 5 2 10l-1 -2q2 7 10 10h3h-1q2 1 11 1l1 1h2q7 0 12 -2q4 -4 4 -9v-29q-39 -7 -83 -9h-24q-47 -5 -60 8z" />
    <glyph glyph-name="threesuperior" unicode="&#xb3;" horiz-adv-x="269" 
d="M77 678q-26 0 -9 31q8 15 15 19q14 9 27 9q10 6 22 1q50 -15 59 -24q19 -16 27 -39t3 -45q-6 -31 -71 -67l14.5 -7.5l18 -9.5t8.5 -5q6 -6 20 -33q11 -38 11 -67q0 -7 -2 -23v-5q-6 -53 -24 -73q-26 -26 -64 -26q-7 0 -25 2q-46 10 -58 41q-4 10 1.5 18.5t19.5 5.5
q13 -6 13 -18l2 -6q6 -11 31 -15l5 -1q12 0 17 15q9 21 9 52v19v18q-2 58 -16 86v-1q-11 16 -13 17q-2 2 -6 2q-8 2 -12 7q-2 2 -3.5 3t-1 3t0.5 2.5t2 3.5t3 4q3 4 6 5q15 6 25 29l6 9q8 12 8 23v8q0 53 -27 63q-16 5 -21 -6l-2 -5q-2 -20 -19 -20z" />
    <glyph glyph-name="acute" unicode="&#xb4;" horiz-adv-x="175" 
d="M95 730q28 12 33 -14q1 -16 -17 -34q-3 -3 -12 -24q-17 -32 -24 -37q-11 -8 -19.5 -4.5t-7.5 16.5q2 14 8 24l2 3q1 2 2 7l4 13q10 39 31 50z" />
    <glyph glyph-name="mu" unicode="&#xb5;" horiz-adv-x="426" 
d="M115 -146q0 27 -4 51q-2 26 -2 41q-1 25 6 58q2 8 4 32q1 22 0 45q-17 31 -24 72q-2 9 -5 41q0 4 -0.5 13.5t-1 16.5t-1.5 12q0 3 -2 11q-4 42 -3 68q0 13 -2 41q-2 30 -1 43q1 26 -3 78q-3 48 5 92q3 18 1 37q0 36 1 41q0 1 0.5 2.5t0.5 2.5q2 24 1 31q0 3 -1 5l-2 7h-8
q-17 0 -24 10q-7 12 4 30q7 11 43 11h26h24q17 7 46.5 1t33.5 -28v-4.5v-5t-0.5 -5t-2 -5.5t-4.5 -4t-7 -4q-2 -1 -12 1h-3q-2 1 -3 1v-8q0 -10 4 -32q4 -38 1 -58q-7 -49 -7 -100q0 -39 3 -70q7 -43 5 -87q0 -3 -0.5 -14.5t-0.5 -15.5q0 -14 2 -42v1q2 -20 2 -63
q0 -61 6 -99q2 -15 7 -27l5 -15l7 -14q13 -4 32 27q19 37 27 111q6 45 6 47q5 24 5 60q0 22 -2 56q-2 26 -2 46q0 29 -2 87v-1q-2 19 0 60q0 1 0.5 7t0.5 9v55q0 17 -1 25q-7 33 -6 62q-12 -2 -18 7q-5 8 -3 23q3 19 47 12h5q3 -1 16 1q40 9 44 -19q2 -22 -11 -26.5t-28 1.5
q2 -26 2 -38q0 -16 -2 -52q-2 -42 -1 -64q2 -119 8 -178q0 -7 0.5 -19t0.5 -18q0 -23 -2 -53q-3 -15 -3 -33q0 -23 -3 -44q-3 -16 -11 -48l-10 -34l-4 -23q-2 -35 -11 -49q-27 -36 -61 -45q-24 -4 -55 6q-2 -22 1 -41q2 -18 0 -53q-1 -12 -1 -34q0 -7 1 -12q5 -33 -2 -47
q-5 -13 -25 -14.5t-29 5.5q-17 11 -17 43z" />
    <glyph glyph-name="paragraph" unicode="&#xb6;" horiz-adv-x="440" 
d="M150 742l13 4q7 4 20 4h3l2 1q2 0 8.5 -0.5t17 -1.5t19.5 -1q33 -4 44 -2q9 0 16 1q30 3 57 3q42 0 42 -22q0 -21 -11 -27q-5 -3 -15 -3q3 -34 3 -103v-16q-2 -89 -6 -134q-8 -112 -8 -172q0 -50 4 -90q0 -1 0.5 -3.5t0.5 -4.5q8 -72 8 -89q0 -23 -1 -33q21 -4 24 -25
q4 -8 1 -19.5t-18 -10.5q-60 4 -95 4q-15 0 -29 -2q-19 -2 -27 6.5t-3 27.5v-1q2 13 18 15h2q1 0 3 0.5t3 0.5v13v15.5v12.5v45l-2 98q-2 72 -2 107q0 27 2 89l2 58l3 88q0 126 4 126h-6q-18 -2 -43 -2q-7 -3 -19 -3q0 -33 1 -47q2 -37 1 -53q-5 -70 -5 -124q0 -6 -0.5 -16
t-0.5 -14q-2 -63 -1 -94q1 -17 1 -62q0 -21 2 -63q0 -3 0.5 -7.5t0.5 -6.5q2 -34 0 -49q-5 -33 -5 -62q-1 -6 4 -29l2 -16h-1h1l1 -4v4q1 0 2 1h2q4 0 6 -1l3 -2q6 -1 8 -2t3 -3.5t1 -8.5v-9q0 -23 -18 -26h1q-14 -4 -27 -1h1q-1 1 -4 1q-6 0 -14 4q-1 -1 -8 -3h1
q-20 -5 -29 10q-6 12 1 23t20 14q-2 17 -2 48q0 16 2 52q3 36 3 77v22q0 20 -1 30q0 12 -2 18q-3 29 -2 38q0 3 0.5 10t0.5 9q0 3 1.5 16t1.5 20q2 12 0 26v-1q-4 5 1 15l1 1v1q-55 18 -70 58q-16 42 -21 96q-6 79 58 133h-1q10 10 45 23zM186 53h-1h1z" />
    <glyph glyph-name="periodcentered" unicode="&#xb7;" horiz-adv-x="199" 
d="M100 353q-26 0 -39.5 16.5t-13.5 40.5t14 42t39 18t39 -18t14 -41q0 -25 -13.5 -41.5t-39.5 -16.5z" />
    <glyph glyph-name="cedilla" unicode="&#xb8;" horiz-adv-x="194" 
d="M92 -40q7 -12 12 2q3 8 0 15q-3 4 -11 9q-11 8 -13 12q-11 13 -9 40q4 18 18 29.5t30 -5.5q9 -16 5 -33q-4 -7 -1 -10q-1 3 2 -1l2 -2l3 -3h-1q14 -16 15 -20q6 -19 1 -40q-6 -19 -24.5 -31.5t-38.5 -5.5q-13 4 -26.5 24.5t-5.5 34.5q11 7 24.5 1t17.5 -16z" />
    <glyph glyph-name="onesuperior" unicode="&#xb9;" horiz-adv-x="289" 
d="M215 728q0 -17 2 -51q0 -21 -1 -28q-2 -16 -2 -22v-25q0 -4 0.5 -12t0.5 -13q-1 -16 -1 -49q2 -14 0 -27v-21v-25v-24q-2 -34 -2 -51q2 -9 2 -14q5 -16 3 -21q18 0 23 -8q2 -6 -3 -12.5t-15 -7.5h-23q-2 0 -6 0.5t-5 0.5q-33 0 -38 -1h-17q-1 0 -5 -0.5t-6 -0.5
q-47 -2 -48 14q0 16 29 14q-1 10 1 26q0 2 0.5 5t0.5 5v26v22q1 13 -1 41q-2 18 -2 28q0 13 3 25q2 10 0 30q-1 5 -1 17q0 16 2 48q1 8 1 21q0 20 -1 30v22v9q-21 -19 -45 -15q-32 4 5 31q4 3 8 5l11 8q27 19 48 19h8q73 3 74 -19z" />
    <glyph glyph-name="ordmasculine" unicode="&#xba;" horiz-adv-x="283" 
d="M145 491q-46 0 -72 33.5t-26 78.5q0 41 21.5 70t63.5 29q46 0 75 -36t29 -82q0 -39 -23 -66t-68 -27zM146 523q26 0 40 16.5t14 42.5q0 32 -19.5 57.5t-48.5 25.5q-24 0 -36.5 -15.5t-12.5 -40.5q0 -33 18 -59.5t45 -26.5z" />
    <glyph glyph-name="guillemotright" unicode="&#xbb;" horiz-adv-x="559" 
d="M144 420q6 -6 19 -11l-1 1q12 -6 18 -11l10 -9q15 -15 27 -23q16 -9 19 -10l-1 1l20 -10q7 -3 21 -17q-3 4 1 0q2 -1 11 -9q-24 -22 -99 -78l-44 -34q-9 -6 -24 -21.5l-17 -17.5l-22 -22l-3 -1q-37 -25 -30 -63q13 -33 26 -11q6 12 16 15q22 10 44 37l15 15l25 20
q21 15 40 32q10 12 36 32q18 11 26 20l16 13q29 25 36 35q23 48 -25 88h1q-23 19 -70 50q-44 27 -55 35v-1q-11 10 -20.5 16.5l-12.5 8.5q-23 13 -29 18l-7 8q-45 47 -61 19q-14 -39 36 -64q2 -1 3 -3q2 -2 3 -2l-1 1l8 -3q2 -2 9.5 -6.5t11.5 -7.5v3q2 -1 6 -11
q6 -12 18 -22zM254 551q17 9 45 -30l7 -8q15 -25 42 -44h-1l17 -13q22 -14 32 -25h1q22 -25 46 -40q15 -7 34 -24t27 -35q9 -22 8 -30.5t-12 -26.5q-26 -32 -72 -59q-4 -2 -34 -21q-1 -1 -8 -6.5t-12 -11.5q-22 -16 -32 -22q-16 -5 -34 -27l1 1q-12 -12 -20 -19l-6 -2l3 1
q-36 -36 -49 0q-9 27 22 45q4 2 6 5l19 17l-1 -1q2 1 12 9.5t18 12.5q6 2 43 28q0 1 7 8l94 77l-3 1q-24 17 -35 30l-4 4q-6 9 -24 24v-1l-1 2q-28 15 -38 25l-8 9q-15 19 -24 25q-4 4 -21 10q-34 21 -46 40q-11 19 -12.5 40t13.5 32z" />
    <glyph glyph-name="onequarter" unicode="&#xbc;" horiz-adv-x="480" 
d="M143 728q0 -9 0.5 -26.5t0.5 -25.5v-29q-1 -8 -1 -23v-25v-26v-51v-27q-1 -8 -1 -22q0 -5 0.5 -13.5t0.5 -11.5q0 -5 -0.5 -13t-0.5 -12q0 -9 -0.5 -26.5t-0.5 -25.5q1 -9 2 -14q2 -17 1 -23q11 0 13 -8q2 -5 -1.5 -12t-8.5 -8h-13q-2 0 -4 0.5t-3 0.5q-18 0 -21 -1h-10
q-1 0 -3 -0.5t-3 -0.5q-27 -2 -28 14q0 15 17 15v27q0 1 0.5 4.5t0.5 5.5v27v21q0 30 -1 43q0 5 -0.5 15t-0.5 14q0 9 2 25v32q-1 4 -1 17q0 15 2 49v22v31v-1q-1 8 -1 23v9q-11 -19 -25 -15q-19 4 7 37l7 8q15 19 27 19l2 1h2q43 3 43 -20zM177 207l2 10q7 32 22 83
q2 7 5 20.5t4 17.5q2 18 12 46l3 9q1 5 4.5 14t5.5 16t2 12l3 19q2 20 4 28q0 7 4 15l9 25q0 1 1 4v3q1 17 8 31v-1q1 4 12 43q1 3 4.5 16.5l9.5 36t11 47.5l4 15q7 46 23 57q15 11 21.5 2.5t8.5 -18t1 -18.5q-11 -53 -16 -72q-4 -11 -11 -44l-6 -32q-37 -133 -43 -151
q-30 -94 -39 -159q-3 -21 -24 -83q-15 -37 -21 -70l-3 -21q-5 -37 -13 -50q-12 -19 -25 -14t-14 26q-2 31 17 94q1 4 7 20t7 23zM359 418q1 0 3.5 0.5t4.5 0.5q36 6 44 -7q3 -9 1 -18v-2q-1 -4 -1 -13q0 -1 0.5 -4t0.5 -4q0 -5 0.5 -16t0.5 -15q0 -20 -2 -54v-21
q-2 -28 -2 -40q0 -16 1 -25q0 -8 2 -32q1 -13 0 -24h11t7 -4t0 -12q-4 -8 -18 -10v-4q0 -6 1 -10q0 -13 -1 -19v1v-14q-1 -13 0 -13q0 -12 -1 -15q0 -1 -0.5 -3.5t-0.5 -5t1 -4.5q0 -2 7 -2q11 0 15 -6q4 -12 -9 -23q-8 -3 -23.5 -3.5t-23.5 1.5q-2 0 -5.5 0.5t-4.5 0.5
q-3 0 -6 -1q-28 -2 -30 11q-2 7 1 13l5 2.5t4 2.5h1q0 3 0.5 12t0.5 13v13v24v31h-28q-2 0 -8 -2q-29 -2 -35 9q-4 11 4 30l1 1q1 1 1.5 3.5t0.5 3.5l5 25q3 19 5 25l5.5 23t5.5 22q1 5 15 46l12 40q0 6 2 14q4 18 8 29q1 2 2 6q2 7 4 12t6 9t10 2zM324 244l-12 -51
q-11 -45 -12 -47h43v7q2 14 2 40v26v50q-2 12 -2 43v1l-3 -17q-4 -20 -8 -29q0 -1 -1 -2.5t-2 -2.5q-4 -12 -5 -18z" />
    <glyph glyph-name="onehalf" unicode="&#xbd;" horiz-adv-x="503" 
d="M154 728q0 -9 0.5 -26.5t0.5 -25.5v-28q-1 -9 -1 -23v-26v-25v-51v-27q-1 -8 -1 -22q0 -5 0.5 -13.5t0.5 -12.5t-0.5 -12t-0.5 -12q0 -9 -0.5 -26.5t-0.5 -25.5q1 -9 2 -14q2 -17 1 -23q12 0 15 -8q4 -16 -12 -20h-14q-2 0 -4 1h-3q-21 0 -24 -1h-11q-1 0 -3.5 -0.5
t-3.5 -0.5q-30 -2 -30 14q0 7 3 10.5t6 4t9 0.5v27q0 1 0.5 4.5t0.5 5.5v27v21q1 16 -1 42q0 5 -0.5 15.5t-0.5 14.5q0 9 2 25q2 10 0 31q-1 5 -1 17q0 17 2 49q1 8 1 22q0 20 -1 31v-1v23v9q-14 -18 -29 -15q-7 1 -8.5 6t2 11t7.5 11t8 9l7 8q17 19 30 19l2 1h3
q47 3 47 -20zM180 207l2 10q7 32 22 83q2 7 5 20.5t4 17.5q2 18 12 46l3 9q1 5 4.5 14t5.5 16t2 12l3 19q2 20 4 28q0 7 4 15l9 25v4l1 3q1 17 8 31v-1q1 4 12 43q1 3 4.5 16.5l9.5 36t11 47.5l4 15q7 46 23 57q15 11 21.5 2.5t8.5 -18t1 -18.5q-11 -53 -16 -72
q-4 -11 -11 -44l-6 -32q-37 -133 -43 -151q-30 -94 -39 -159q-3 -21 -24 -83q-15 -37 -21 -70l-3 -21q-5 -37 -13 -50q-12 -19 -25 -14t-14 26q-2 31 17 94q1 4 7 20t7 23zM388 441q15 0 36.5 -10.5t28.5 -21.5q6 -11 6 -26t-3 -29q-1 -6 -3 -16.5t-3 -13.5q-6 -15 -9 -32
q-1 -13 -8 -30l-9 -25q-3 -25 -14 -48q-3 -7 -4 -9q-4 -10 -13 -41q0 -2 -1.5 -7t-2.5 -8l-6 -28q-9 -48 -19 -71h6q7 -1 21 -1h5q8 0 8 -2q0 3 -1 6q-5 17 -1 19q10 5 17 1q15 -3 13 -21q-1 -2 1 -6q0 -9 -1 -11l1 1q-3 -15 -28 -15h-15q-46 0 -61 1h-9q-28 2 -36 8
q-8 5 -3 23l3 7q1 19 10 42l4 8q2 7 7 29l5 20q9 23 13 44l5 15t3 10l9 24q1 2 6 17q4 20 8 28q15 42 29 91q9 32 3 46l-1 1q-3 2 -4 4h-2q-3 1 -12 -5h1l-8 -10q-4 -7 -12 -15q-11 -7 -18.5 -3t-8.5 16t22 32q17 15 45 12z" />
    <glyph glyph-name="threequarters" unicode="&#xbe;" horiz-adv-x="555" 
d="M78 678q-26 0 -9 31q8 15 15 19q14 9 28 9q11 6 23 1q50 -14 60 -24q20 -16 28 -39t3 -45q-6 -31 -73 -67q41 -21 42 -22q8 -6 21 -33q11 -38 11 -67q0 -3 -0.5 -11t-0.5 -12v-2q-1 -2 -1 -3q-6 -53 -25 -73q-26 -26 -65 -26q-8 0 -26 2q-48 10 -60 41q-4 10 1.5 18.5
t20.5 5.5q13 -6 13 -18q1 -6 2 -6q6 -11 32 -15l5 -1q11 0 18 15q9 21 9 52v19v18q-2 58 -17 86v-1q-7 14 -13 17q-2 2 -7 2q-7 2 -12 7q-5 6 -4.5 7t6.5 9q1 3 5 5q17 6 27 29l5 9q9 11 9 23v8q0 53 -28 63q-16 4 -22 -6l-1 -5q-4 -20 -20 -20zM200 207l2 10q7 32 22 83
q2 7 5 20.5t4 17.5q2 18 12 46l3 9q1 5 4.5 14t5.5 16t2 12l3 19q2 20 4 28q0 7 4 15l9 25v4l1 3q1 17 8 31v-1q1 4 12 43q1 3 4.5 16.5l9.5 36t11 47.5l4 15q7 46 23 57q15 11 21.5 2.5t8.5 -18t1 -18.5q-11 -53 -16 -72q-4 -11 -11 -44l-6 -32q-37 -133 -43 -151
q-30 -94 -39 -159q-3 -21 -24 -83q-15 -37 -21 -70l-3 -21q-5 -37 -13 -50q-12 -19 -25 -14t-14 26q-2 31 17 94q1 4 7 20t7 23zM407 422q4 0 10 2q50 3 59 -8q5 -9 3 -18l-1 -2q-2 -8 -1 -13q0 -1 0.5 -4t0.5 -5q1 -9 1 -31q0 -20 -2 -54q0 -4 -0.5 -11t-0.5 -11
q0 -6 -0.5 -19.5t-0.5 -20.5q0 -16 1 -25q0 -21 3 -32v-25h14t10 -4t0 -12q-5 -8 -24 -10v-4v-10v-19v1q-2 -18 -1 -27q0 -12 -1 -15q-2 -8 -1 -14q1 -2 10 -2q15 2 21 -6q1 -4 -3 -11.5t-9 -11.5q-11 -3 -32.5 -3.5t-31.5 1.5q-3 0 -7 0.5t-7 0.5q-4 0 -8 -1q-38 -2 -41 11
q-2 7 2 13q2 2 6.5 3t5.5 2h2q0 4 0.5 13.5t0.5 12.5v12v25v31h-38q-2 0 -12 -2q-39 -2 -46 9q-5 11 5 31h1q2 2 2 7l7 26q2 4 4 12.5l3 12.5q3 7 8.5 22t7.5 23q4 13 20 47l16 40q0 2 3 14q3 16 10 30q3 0 3 6q12 27 28 23zM359 246l-16 -51l-7 -21t-6 -18.5t-3 -8.5h58v8
q2 14 2 39q0 5 0.5 14t0.5 13q0 33 -1 50q-2 13 -2 44v1l-5 -17q-3 -18 -10 -29q0 -1 -2 -3q-1 -1 -1 -3q-7 -10 -8 -18z" />
    <glyph glyph-name="questiondown" unicode="&#xbf;" horiz-adv-x="312" 
d="M96 66q18 34 28 69q1 4 3 10.5t2 8.5q11 49 11 50q3 34 3 72q0 22 -2 66q-2 36 25 40q19 6 61 0q2 0 7.5 -0.5t6.5 -0.5q7 -34 7 -91v-28q0 -58 -3 -113q0 -1 -0.5 -4t-0.5 -5q0 -4 -1 -9t-1.5 -8.5t-0.5 -4.5q-8 -19 -29 -46l-6 -6q-1 -6 -10 -22q0 -1 -5 -13l-13 -24
q-25 -44 -25 -70v-22q0 -30 4 -43q4 -18 11 -25q1 -2 2 -3l1 -1l4 -2q1 0 3 1l3 1l-1 -1q24 12 25 14q8 8 12 33q0 1 1 3l1 2q5 26 23 26q20 0 22 -19q4 -40 -16 -69q-25 -27 -66 -38q-17 -5 -48.5 3t-44.5 20q-40 42 -41 71q-2 55 12 91q1 3 2 6.5t2 6t1 3.5q2 15 10 30z
M185 429q-21 0 -32.5 13.5t-11.5 31.5q0 19 13.5 33.5t35.5 12.5q21 -1 31.5 -14t10.5 -31t-13 -32t-34 -14z" />
    <glyph glyph-name="Agrave" unicode="&#xc0;" horiz-adv-x="479" 
d="M181 1q-26 -2 -63 1q-16 2 -20 2l-7 -2q-31 -4 -40 5q-4 7 -4 18.5t3 18.5q4 7 20 7h7q4 0 5 7q0 4 1 11t1 10q2 23 5 32q9 29 9 52q0 40 13 96l6 21q8 54 11 79l3 29q2 33 6 46q15 74 20 164l6 60l3 28q0 2 0.5 5t0.5 4q5 45 28 56q18 8 43 6q26 0 34 -2q6 3 15 -1
q18 -8 18 -44v-10l23 -154q18 -107 25 -169q2 -24 8 -53l2 -14v1l7 -37v-6q0 -1 1 -2q0 -1 1 -5v-4q3 -13 2 -15q0 -7 2 -17q0 -1 0.5 -4t0.5 -4q6 -36 14 -92q0 -5 9 -65q11 2 18.5 1.5t11 -8t1.5 -22.5q-3 -15 -12 -21q-8 -5 -22 -1l-3 1q-2 0 -5.5 -0.5t-5.5 -0.5h-9
q-1 0 -4 -0.5t-5 -0.5q-34 -2 -38 2q-8 9 -3 26q2 14 7 22h-1q3 4 6 6t4.5 2t5 -1.5t4.5 -1.5l-10 68l-3 32q-5 42 -8 55l-2 13l-6 25l-20 -3l-16 -2l-42 -2q-2 0 -6 0.5t-5 -0.5q-1 -2 -1 -8q-13 -54 -15 -90q0 -4 -3 -22q-2 -14 -2 -22q0 -28 -3 -41l-2 -6t-2 -7
q1 0 2.5 -1t2.5 -1t3 -0.5l2 -0.5q14 -3 14 -24q0 -13 -6 -18.5t-12 -6.5t-18 0h-11zM300 435q-3 42 -17 121q-1 7 -1.5 6.5t0.5 -1.5q0 -3 -1 0q0 2 -1 6l-6 -31q-2 -10 -4 -28.5t-2 -21.5q-3 -32 -4 -36q0 -4 -2.5 -13.5t-3.5 -14.5q-5 -33 -10 -57q-2 -17 -4 -23
q-9 -27 -10 -48q30 2 46 6l34 7l1 1h2q3 0 2 3q-13 54 -19 124zM244 788l-15 20q-26 39 -32 51q-3 22 8 28q18 8 27 1q27 -20 37 -55l4 -12q0 -1 0.5 -2t0.5 -2q7 -22 -3 -31q-13 -6 -27 2z" />
    <glyph glyph-name="Aacute" unicode="&#xc1;" horiz-adv-x="478" 
d="M71 2q-20 3 -23 22v4q-2 16 6 21h-1q4 2 7 2.5t6.5 -0.5t5.5 -1h4q0 5 2 8l-1 -1q4 16 8 28q6 21 8 63q0 5 1.5 15t1.5 15q2 26 6 43q3 15 7 38q19 134 25 167q11 54 16 119q4 38 8 57q2 16 4 20l5 22v33q0 2 1 6.5t1 6.5q5 43 21 54q24 13 84 3q12 -5 15 -9
q7 -11 14 -53q0 -1 0.5 -4t0.5 -4q2 -17 8 -47q8 -36 10 -60l4 -22q5 -45 9 -64q11 -49 12 -83q4 -34 7 -52l6 -35l2 -25q9 -54 9 -56q6 -35 9 -71q5 -56 16 -93q0 -1 0.5 -4t0.5 -4q0 -4 4 -4q14 0 17 -2h-1q14 -8 14 -28q1 -14 -10.5 -18t-28.5 -3h-15q-16 -5 -34 -1
q-13 4 -15 21v5q-3 23 9 23q1 0 9 2q2 1 3 1q-1 4 -1 13l-2 31l-5 22q-5 21 -6 31l-3 20l-5 38q-2 10 -2 30q0 2 0.5 6t-0.5 6q-10 -1 -31.5 -3.5t-32.5 -4.5l-14 -2h1q-14 -2 -18 -3q-1 -7 -5 -33q-1 -5 -1.5 -10.5t-1 -12t-0.5 -10.5q-4 -37 -9 -50q-4 -17 -6 -42
q0 -3 -0.5 -11.5t-1.5 -14.5q20 -5 21.5 -25t-19.5 -29q-18 -6 -61 -2q-2 0 -7.5 0.5t-7.5 0.5q-3 0 -9 -0.5t-10 -0.5q-27 -2 -41 1zM301 378l-23 164l-3 24l-8 -58l-10 -55l-4 -28q-1 -11 -3.5 -30.5t-3.5 -28.5q-6 -32 -9 -65q0 -9 -1 -12q6 1 16 3t14 3q37 8 50 8
q-4 15 -5 26q-1 6 -4.5 22.5zM277 896q28 12 33 -14q1 -16 -17 -34q-3 -3 -12 -24q-17 -32 -24 -37q-11 -8 -19.5 -4.5t-7.5 16.5q2 14 8 24l2 3q1 2 2 7l4 13q10 39 31 50z" />
    <glyph glyph-name="Acircumflex" unicode="&#xc2;" horiz-adv-x="480" 
d="M74 1q-22 4 -25 25q-3 4 -0.5 14t11.5 10h18l2 16q3 24 9 45q12 39 14 96q0 23 3 42l4 20q2 7 4 23q6 62 11 94q1 5 5 22q4 12 5 23q4 11 4 21q0 14 1 21l6 25l3 19q2 10 2 30v9q0 14 4 42l6 42q0 12 6 32q7 28 6 35q-2 36 23 39l11 2q54 9 78 0q14 -6 16 -32q0 -7 2 -11
q5 -22 12 -80q1 -9 1 -27q0 -17 3 -35l9 -57l6 -30l9 -82q5 -36 19 -108v1q7 -24 12 -56l15 -102l6 -51l1 -3v-5q0 -16 -2 -17h5q15 0 25 -5q7 -6 9 -22q2 -12 -2 -15t-15 -3h-6q-3 0 -11 -2q-2 0 -7.5 -1.5t-8.5 -2l-9 -1.5t-9.5 -1h-8.5t-8.5 1t-7 2.5t-6 4t-4.5 6.5
q-5 10 -1 23.5t16 18.5q-3 11 -5 37l-3 23t-2 22q-4 21 -8 69l-1 22h-13q-64 2 -95 5v-11q1 -11 1 -32.5t-3 -41.5q-2 -16 -4.5 -40l-4 -37.5t-2.5 -17.5q18 -10 21 -13q5 -18 -9 -33q-13 -12 -39 -7q-12 2 -58 2h-11q-7 0 -11 -1q-17 -2 -24 -1zM313 279l-9 61
q-24 150 -32 220v-3l-4 -19q0 -7 -1 -19.5t-1 -18.5q-2 -36 -4 -48q-2 -15 -7.5 -47l-8.5 -49q-13 -62 -14 -69l25 -3l22 -5q6 -1 18 -4t18 -3q-2 4 -2 7zM232 898q21 9 50 -20q42 -42 62 -78q11 -22 -4 -31.5t-32 4.5q-12 12 -25 30l-12 12h1q-3 0 -26.5 -19t-32.5 -21
q-30 -11 -48 -11q-24 0 -38 17q-12 20 42 64l4 3v-1l29 25q15 18 30 26z" />
    <glyph glyph-name="Atilde" unicode="&#xc3;" horiz-adv-x="479" 
d="M181 1q-26 -2 -63 1q-16 2 -20 2l-7 -2q-31 -4 -40 5q-4 7 -4 18.5t3 18.5q4 7 20 7h7q4 0 5 7q0 4 1 11t1 10q2 23 5 32q9 29 9 52q0 40 13 96l6 21q8 54 11 79l3 29q2 33 6 46q15 74 20 164l6 60l3 28q0 2 0.5 5t0.5 4q5 45 28 56q18 8 43 6q26 0 34 -2q6 3 15 -1
q18 -8 18 -44v-10l23 -154q18 -107 25 -169q2 -24 8 -53l2 -14v1l7 -37v-6q0 -1 1 -2q0 -1 1 -5v-4q3 -13 2 -15q0 -7 2 -17q0 -1 0.5 -4t0.5 -4q6 -36 14 -92q0 -5 9 -65q11 2 18.5 1.5t11 -8t1.5 -22.5q-3 -15 -12 -21q-8 -5 -22 -1l-3 1q-2 0 -5.5 -0.5t-5.5 -0.5h-9
q-1 0 -4 -0.5t-5 -0.5q-34 -2 -38 2q-8 9 -3 26q2 14 7 22h-1q3 4 6 6t4.5 2t5 -1.5t4.5 -1.5l-10 68l-3 32q-5 42 -8 55l-2 13l-6 25l-20 -3l-16 -2l-42 -2q-2 0 -6 0.5t-5 -0.5q-1 -2 -1 -8q-13 -54 -15 -90q0 -4 -3 -22q-2 -14 -2 -22q0 -28 -3 -41l-2 -6t-2 -7
q1 0 2.5 -1t2.5 -1t3 -0.5l2 -0.5q14 -3 14 -24q0 -13 -6 -18.5t-12 -6.5t-18 0h-11zM300 435q-3 42 -17 121q-1 7 -1.5 6.5t0.5 -1.5q0 -3 -1 0q0 2 -1 6l-6 -31q-2 -10 -4 -28.5t-2 -21.5q-3 -32 -4 -36q0 -4 -2.5 -13.5t-3.5 -14.5q-5 -33 -10 -57q-2 -17 -4 -23
q-9 -27 -10 -48q30 2 46 6l34 7l1 1h2q3 0 2 3q-13 54 -19 124zM178 916q37 6 72 -10l5 -4l11.5 -9t9.5 -8q21 -19 39 -25q13 -5 21 10q18 30 37 15q20 -14 0.5 -43t-39.5 -39q-31 -15 -64 -6q-10 2 -39 22v-1l-14 11q-12 5 -29 15q-20 7 -30 -3l-3 -8q-3 -16 -16 -20
q-10 -1 -16.5 8t-6.5 18q0 13 12 32l8 11q19 30 42 34z" />
    <glyph glyph-name="Adieresis" unicode="&#xc4;" horiz-adv-x="478" 
d="M71 2q-20 3 -23 22v4q-2 16 6 21h-1q4 2 7 2.5t6.5 -0.5t5.5 -1h4q0 5 2 8l-1 -1q4 16 8 28q6 21 8 63q0 5 1.5 15t1.5 15q2 26 6 43q3 15 7 38q19 134 25 167q11 54 16 119q4 38 8 57q2 16 4 20l5 22v33q0 2 1 6.5t1 6.5q5 43 21 54q24 13 84 3q12 -5 15 -9
q7 -11 14 -53q0 -1 0.5 -4t0.5 -4q2 -17 8 -47q8 -36 10 -60l4 -22q5 -45 9 -64q11 -49 12 -83q4 -34 7 -52l6 -35l2 -25q9 -54 9 -56q6 -35 9 -71q5 -56 16 -93q0 -1 0.5 -4t0.5 -4q0 -4 4 -4q14 0 17 -2h-1q14 -8 14 -28q1 -14 -10.5 -18t-28.5 -3h-15q-16 -5 -34 -1
q-13 4 -15 21v5q-3 23 9 23q1 0 9 2q2 1 3 1q-1 4 -1 13l-2 31l-5 22q-5 21 -6 31l-3 20l-5 38q-2 10 -2 30q0 2 0.5 6t-0.5 6q-10 -1 -31.5 -3.5t-32.5 -4.5l-14 -2h1q-14 -2 -18 -3q-1 -7 -5 -33q-1 -5 -1.5 -10.5t-1 -12t-0.5 -10.5q-4 -37 -9 -50q-4 -17 -6 -42
q0 -3 -0.5 -11.5t-1.5 -14.5q20 -5 21.5 -25t-19.5 -29q-18 -6 -61 -2q-2 0 -7.5 0.5t-7.5 0.5q-3 0 -9 -0.5t-10 -0.5q-27 -2 -41 1zM301 378l-23 164l-3 24l-8 -58l-10 -55l-4 -28q-1 -11 -3.5 -30.5t-3.5 -28.5q-6 -32 -9 -65q0 -9 -1 -12q6 1 16 3t14 3q37 8 50 8
q-4 15 -5 26q-1 6 -4.5 22.5zM310 873q39 -3 39 -43q0 -22 -15 -39.5t-39 -13.5q-19 1 -28.5 13.5t-9.5 29.5q0 23 15 39.5t38 13.5zM187 777q-21 0 -31.5 14t-10.5 34q0 21 11 35.5t31 14.5q22 0 33.5 -14t11.5 -34t-12 -35t-33 -15z" />
    <glyph glyph-name="Aring" unicode="&#xc5;" horiz-adv-x="480" 
d="M292 842q22 -20 25 -44q3 -41 -19 -63q1 -3 1.5 -6t1 -7t0.5 -6q0 -7 2 -11q5 -22 12 -80q1 -9 1 -27q0 -17 3 -35l9 -57l6 -30l9 -82q5 -36 19 -108v1q7 -24 12 -56l15 -102l6 -51l1 -3v-5q0 -16 -2 -17h5q15 0 25 -5q7 -6 9 -22q2 -12 -2 -15t-15 -3h-6q-3 0 -11 -2
q-2 0 -7.5 -1.5t-8.5 -2l-9 -1.5t-9.5 -1h-8.5t-8.5 1t-7 2.5t-6 4t-4.5 6.5q-5 10 -1 23.5t16 18.5q-3 11 -5 37l-3 23t-2 22q-4 21 -8 69l-1 22h-13q-64 2 -95 5v-11q1 -11 1 -32.5t-3 -41.5q-2 -16 -4.5 -40l-4 -37.5t-2.5 -17.5q18 -10 21 -13q5 -18 -9 -33
q-13 -12 -39 -7q-12 2 -58 2h-11q-7 0 -11 -1q-17 -2 -24 -1q-22 4 -25 25q-3 4 -0.5 14t11.5 10h18l2 16q3 24 9 45q12 39 14 96q0 23 3 42l4 20q2 7 4 23q6 62 11 94q1 5 5 22q4 12 5 23q4 11 4 21q0 14 1 21l6 25l3 19q2 10 2 30v9q0 14 4 42l6 42q0 12 6 32q7 28 6 35
q-2 30 16 37q-21 21 -21 43q-1 28 23 49q13 11 25 17l9 4q13 5 20 4q30 -6 47 -19zM313 279l-9 61q-24 150 -32 220v-3l-4 -19q0 -7 -1 -19.5t-1 -18.5q-2 -36 -4 -48l-16 -96q-13 -62 -14 -69l25 -3l22 -5q6 -1 18 -4t18 -3q-2 4 -2 7zM268 772q8 21 0 34q-2 3 -11 5
q-2 0 -3 -2v1q-5 -24 4 -42q2 -6 8 0q2 2 2 4z" />
    <glyph glyph-name="AE" unicode="&#xc6;" horiz-adv-x="566" 
d="M237 703h-1q-20 12 -10 33v-1q9 14 32 14h10.5t5.5 1t10 1q26 2 63 2q58 0 84 -1l21 -3q4 -2 9 -2q17 -6 15 -23v-5q0 -2 0.5 -4.5t0.5 -3.5q3 -16 -7 -36q-5 -6 -16 -5t-17 7h1q-9 7 -9 22v3h-45q-2 0 0 -3v-29q0 -3 -0.5 -9.5t-0.5 -8.5v-28q1 -15 -1 -43q-1 -7 1 -22
q1 -6 1 -8q49 3 61 -7v1q15 -17 1 -29t-31 -13l-25 -3h-6q-1 0 -1 -2q-2 -15 -2 -45v-15v-18.5v-16.5q0 -5 0.5 -16.5t0.5 -17.5q0 -27 -1 -41v1q-2 -25 0 -49v-78q0 -3 0.5 -9t0.5 -10q3 -36 3 -73q0 -39 -3 -58q22 0 62 2q3 0 3 10q2 23 17 24q40 0 33 -38q0 -1 -0.5 -4
t-0.5 -4q-1 -10 -2 -15.5t-7 -10.5t-17 -5h-1q-3 0 -13 -2q-3 -1 -10 -1h-74q-1 0 -37.5 -2.5t-41.5 -1.5q-3 0 -12 0.5t-12 0.5h-8q-16 0 -19 4h-3q-11 0 -17.5 11.5t-3 23.5t16.5 12q2 0 7.5 -0.5t8.5 -0.5h15v27q0 15 2 45q2 14 2 22q0 4 0.5 12t0.5 13l-3 35l-2 34
q0 1 -0.5 3.5t-0.5 3.5l-71 -6q-12 -2 -21 -2h-2v-1l-3 -7h1q-5 -11 -8 -24l-4 -13q-3 -10 -11 -55v1q-8 -40 -24 -87q14 2 19 -2t3 -21q-3 -25 -17 -29q-7 -2 -11 0q-2 0 -4 2q-2 1 -3 1q-5 0 -8 -1q-4 -1 -16 -1q-10 2 -40 2q-6 3 -6 16t3 21q4 14 11.5 16t14.5 -2l3 -2
q2 9 9.5 28t8.5 23q14 38 15 64q2 18 8 36q9 18 9 27q9 41 17 58l14 46q28 78 39 116q7 20 23 90q4 13 10 37.5t9 35.5l9 26q12 39 14 52v5h-5q-5 0 -14 3zM251 516l-17 -63q-12 -45 -24 -82q-4 -14 -12 -39.5t-12 -42.5q8 1 22 3t21 2q20 2 33 4h2l2 1q0 11 2 33q0 7 2 25
q0 3 -0.5 7.5t-0.5 6.5q-2 30 -2 44q2 32 2 45l3 72v65l-10 -36t-11 -45z" />
    <glyph glyph-name="Ccedilla" unicode="&#xc7;" horiz-adv-x="352" 
d="M197 -79q7 -12 12 2q3 8 0 15q-3 4 -11 9q-11 8 -13 12q-11 13 -9 40q0 3 1 4q-46 13 -72 61l-13 21v-1q-5 7 -8.5 15t-6.5 14t-6 16l-4.5 15t-3.5 17t-2.5 15.5t-3 16.5t-2.5 16l-4 20q-2 10 -2 35t1 35v11q0 5 -0.5 16t-0.5 15q-2 29 -1 46q3 42 3 86q0 18 9 65l3 10
q4 23 17 63l6 19q16 49 32 71q10 13 40 28.5t46 10.5q32 0 51 -21q6 36 39 15q14 -9 9 -50q-4 -14 -2 -21q0 -1 1 -2.5t1 -2.5q6 -24 -10 -28l1 1q-11 -5 -25 -3q-19 2 -27 31l-3 6v-2q-5 15 -17 24.5t-25 4.5q-8 -3 -10 -40q0 -2 -0.5 -6t-0.5 -5q-13 -86 -14 -114
q0 -1 -0.5 -4t-0.5 -5q-2 -26 1 -44q3 -16 0 -39q0 -1 -0.5 -5t-0.5 -5l-2 -83q-2 -33 4 -103q5 -58 5 -69v-19q0 -16 1 -23q0 -7 2 -17l5 -20q0 -1 0.5 -5t0.5 -5q3 -32 12 -37q11 -1 23.5 10t16.5 23q4 9 6 34q0 12 1 16q1 11 3 19t9.5 15t19.5 4q23 -7 13 -63
q-2 -4 -2 -11q-6 -38 -19 -54q-19 -23 -40 -32q1 -4 -1 -15q-4 -7 -1 -10q-1 3 2 -1l2 -2l3 -3h-1q14 -16 15 -20q6 -19 1 -40q-6 -19 -24.5 -31.5t-38.5 -5.5q-13 4 -26.5 24.5t-5.5 34.5q11 7 24.5 1t17.5 -16z" />
    <glyph glyph-name="Egrave" unicode="&#xc8;" horiz-adv-x="356" 
d="M293 89q16 -4 14 -31q0 -2 -0.5 -6t-0.5 -6q0 -13 -2 -27q0 -6 -5 -11q-4 -4 -11 -4l-53 -2q-3 0 -7 -0.5t-5 -0.5q-10 -1 -27 0q-29 6 -68 4q-3 0 -6.5 -0.5t-5.5 -0.5q-28 -2 -44 -1q-10 2 -16 10t-2 18q4 18 28 20q-1 8 2 36q1 8 1 23v20q0 53 -2 78q0 27 1 35
q0 1 0.5 5t0.5 5q0 10 -2 42q-1 18 1 50q1 9 1 48q-3 51 -2 95q0 5 0.5 21.5t0.5 22.5t-0.5 20t-0.5 22v24q0 2 0.5 8t0.5 10t2 16q0 2 1 6t1.5 6.5t0.5 4.5q-2 5 -4 28q-1 27 -4 29q-1 1 -4 0q-3 0 -8 -0.5t-6 -0.5q-16 2 -16 30q2 20 29 22q45 3 48 3t10 -1t9 -1
q4 -1 22 -1t24 1q4 1 23 -2q3 -1 6 -1t7.5 0.5t6.5 0.5h20q5 -1 16 -1q2 0 4.5 0.5t3.5 0.5q6 2 12 2q8 0 18 -7q3 -3 3 -9q-1 -6 -1 -29q4 -18 -4 -34q-6 -8 -20 -5t-19 12q-3 8 -3 20v3q-22 -2 -31 -2h-11q-4 0 -4 -5q-1 -10 -1 -48q3 -21 3 -51q0 -16 -2 -44q50 0 57 -22
q3 -13 -1.5 -20.5t-16.5 -9t-19.5 -1.5t-21.5 1q-2 0 -4 0.5t-3 0.5q4 0 4 -46q0 -13 2 -41q0 -3 0.5 -9t0.5 -10q0 -16 -2 -52q-3 -67 -4 -80v1q-4 -75 -3 -114v-8q0 -69 10 -96q17 0 20 1q6 1 20 1q1 0 2 -0.5t2 -0.5q0 5 -1 9q-2 16 8.5 23.5t26.5 2.5zM185 779l-15 20
q-26 39 -32 51q-3 22 8 28q18 8 27 1q27 -20 37 -55l4 -12v-2l1 -2q7 -22 -3 -31q-13 -6 -27 2z" />
    <glyph glyph-name="Eacute" unicode="&#xc9;" horiz-adv-x="373" 
d="M74 694q-15 0 -23 13t-1 27q11 15 50 13h-1q25 -2 106 1q34 2 56 2q16 0 38 -2q7 0 11 -4q4 -3 4 -10q2 -16 2 -28q0 -2 0.5 -5.5t0.5 -6.5q3 -27 -14 -32q-15 -4 -25.5 4t-8.5 26q1 3 1 7q-2 -1 -4 -1q-19 0 -25 1q-24 0 -30 -1h1l-2 -2v-7q-1 -3 -1 -10q-2 -17 0 -52
q0 -2 0.5 -6.5t0.5 -7.5q0 -6 -0.5 -18.5t-0.5 -18.5q-2 -19 0 -34q0 -14 5 -24h13h14.5h10.5q5 0 14 -4q4 -3 4 -16q0 -2 -0.5 -4t-0.5 -3v-8q0 -4 -3 -10q-3 -3 -11 -3h-22q-4 0 -13 0.5t-12 0.5q-1 -4 -0.5 -14t1.5 -23v-6q-2 -48 -4 -71q0 -1 -0.5 -5t-0.5 -6
q-2 -27 0 -42q0 -18 -1 -25q-2 -20 0 -29q2 -17 2 -55q0 -13 2 -45v1q2 -24 2 -40q0 -34 -4 -62h20q38 -2 47 -2q0 25 8 31q7 5 24 2q19 -4 22 -26t-5 -35q-8 -19 -58 -16h-7q-11 1 -33 -1q-12 -2 -19 -2q-12 -1 -39 1q-10 1 -45 1q-1 0 -5.5 -0.5t-7.5 -0.5q-41 -2 -50 9
q-14 14 -8 23.5t17.5 13.5t23.5 4h5v13q0 12 -2 17q-2 18 -1 25q0 24 -1 37q-2 35 -1 51q2 52 5 79q0 28 -2 36q-2 29 0 43q4 32 -1 73q-2 24 -2 34q0 26 3 47q2 7 -1 38q-3 29 -2 36q6 52 5 79l-3 36q0 2 -7 0q-3 -1 -11 -1zM207 875q28 12 33 -14q1 -16 -17 -34
q-3 -3 -12 -24q-17 -32 -24 -37q-11 -8 -19.5 -4.5t-7.5 16.5q2 14 8 24l2 2q1 3 2 8l4 13q10 39 31 50z" />
    <glyph glyph-name="Ecircumflex" unicode="&#xca;" horiz-adv-x="391" 
d="M61 696h-1q-20 12 -10 33v-1q9 14 32 14h10.5t5.5 1t10 1q26 2 63 2q58 0 84 -1l21 -3q4 -2 9 -2q17 -6 15 -23v-5q0 -2 0.5 -4.5t0.5 -3.5q3 -16 -7 -36q-5 -6 -16 -5t-17 7h1q-9 7 -9 22v3h-45q-2 0 0 -3v-29q0 -3 -0.5 -9.5t-0.5 -8.5v-28q1 -15 -1 -43q-1 -8 1 -22
q1 -6 1 -8q49 3 61 -7v1q15 -17 1 -29t-31 -13l-25 -3h-6q-1 0 -1 -2q-2 -15 -2 -45v-15v-18.5v-16.5q0 -5 0.5 -16.5t0.5 -17.5q0 -27 -1 -41v1q-2 -24 0 -49v-78q0 -3 0.5 -9t0.5 -10q3 -36 3 -73q0 -39 -3 -58q22 0 62 2q3 0 3 10q2 23 17 24q40 0 33 -38q0 -1 -0.5 -4
t-0.5 -4q-1 -10 -2 -15.5t-7 -10.5t-17 -5h-1q-3 0 -13 -2q-3 -1 -10 -1h-74q-44 2 -86 2q-7 0 -23 -0.5t-24 -0.5q-11 0 -17.5 11.5t-3 23.5t16.5 12q2 0 7.5 -0.5t8.5 -0.5h15v8q0 16 5 41q0 1 0.5 5t0.5 6q1 40 -4 94l-2 34q-1 40 2 89q0 3 2 23t2 31q0 12 0.5 37.5
t0.5 37.5q0 13 -0.5 38.5t-0.5 39.5v148q0 10 1 13h-6h-7h-6h-3q-5 0 -14 3zM181 906q21 9 50 -20q42 -42 62 -78q11 -22 -4 -31.5t-32 4.5q-12 12 -25 30l-12 12h1q-3 0 -26.5 -19t-32.5 -21q-30 -11 -48 -11q-24 0 -38 17q-12 20 42 64l4 3v-1l29 25q15 18 30 26z" />
    <glyph glyph-name="Edieresis" unicode="&#xcb;" horiz-adv-x="356" 
d="M293 89q16 -4 14 -31q0 -2 -0.5 -6t-0.5 -6q0 -13 -2 -27q0 -6 -5 -11q-4 -4 -11 -4l-53 -2q-3 0 -7 -0.5t-5 -0.5q-10 -1 -27 0q-29 6 -68 4q-3 0 -6.5 -0.5t-5.5 -0.5q-28 -2 -44 -1q-10 2 -16 10t-2 18q4 18 28 20q-1 8 2 36q1 8 1 23v20q0 53 -2 78q0 27 1 35
q0 1 0.5 5t0.5 5q0 10 -2 42q-1 18 1 50q1 9 1 48q-3 51 -2 95q0 5 0.5 21.5t0.5 22.5t-0.5 20t-0.5 22v24q0 2 0.5 8t0.5 10t2 16q0 2 1 6t1.5 6.5t0.5 4.5q-2 5 -4 28q-1 27 -4 29q-1 1 -4 0q-3 0 -8 -0.5t-6 -0.5q-16 2 -16 30q2 20 29 22q45 3 48 3t10 -1t9 -1
q4 -1 22 -1t24 1q4 1 23 -2q3 -1 6 -1t7.5 0.5t6.5 0.5h20q5 -1 16 -1q2 0 4.5 0.5t3.5 0.5q6 2 12 2q8 0 18 -7q3 -3 3 -9q-1 -6 -1 -29q4 -18 -4 -34q-6 -8 -20 -5t-19 12q-3 8 -3 20v3q-22 -2 -31 -2h-11q-4 0 -4 -5q-1 -10 -1 -48q3 -21 3 -51q0 -16 -2 -44q50 0 57 -22
q3 -13 -1.5 -20.5t-16.5 -9t-19.5 -1.5t-21.5 1q-2 0 -4 0.5t-3 0.5q4 0 4 -46q0 -13 2 -41q0 -3 0.5 -9t0.5 -10q0 -16 -2 -52q-3 -67 -4 -80v1q-4 -75 -3 -114v-8q0 -69 10 -96q17 0 20 1q6 1 20 1q1 0 2 -0.5t2 -0.5q0 5 -1 9q-2 16 8.5 23.5t26.5 2.5zM261 885
q39 -3 39 -43q0 -22 -15 -39.5t-39 -13.5q-19 1 -28.5 13.5t-9.5 29.5q0 23 15 39.5t38 13.5zM138 789q-21 0 -31.5 14t-10.5 34q0 21 11 35.5t31 14.5q22 0 33.5 -14t11.5 -34t-12 -35t-33 -15z" />
    <glyph glyph-name="Igrave" unicode="&#xcc;" horiz-adv-x="278" 
d="M65 3q-15 4 -17 28q-1 11 2.5 14t12.5 4q1 0 2 0.5t2 0.5h-1q9 2 9 12v160q0 17 -0.5 52t-0.5 54q-1 18 -2.5 53t-2.5 52q-1 44 7 103q2 9 2 31q0 15 -2 49q0 2 -0.5 5t-0.5 5q-3 16 -3 48v35q-11 3 -23 3q-3 23 -1 41v3q1 3 1 4q6 5 11 5q19 1 43 -2q41 -6 62 -3h3l3 1
q53 8 60 -14q3 -11 -3 -27q-4 -14 -31 -12q0 -3 -0.5 -9t-0.5 -9q-2 -12 -2 -17q0 -28 -1 -40q0 -27 -2 -55q0 -4 -0.5 -14.5t-0.5 -14.5q0 -59 2 -181q0 -56 -4 -162q-2 -26 -2 -79q-1 -9 4 -41q3 -27 3 -33q26 -5 31 -27q1 -14 -10.5 -18t-25.5 -3q-50 0 -75 -4
q-31 -2 -48 2zM123 792l-15 20q-26 39 -32 51q-3 22 8 28q18 8 27 1q27 -20 37 -55l4 -12q0 -1 0.5 -2t0.5 -2q7 -22 -3 -31q-13 -6 -27 2z" />
    <glyph glyph-name="Iacute" unicode="&#xcd;" horiz-adv-x="273" 
d="M61 716h1q-14 4 -14 23.5t11 26.5q13 5 36 3q1 0 3 -1h1q2 0 7 -0.5t7 -0.5q20 -2 48 -2h9q10 0 19.5 0.5t19 -3t14.5 -12.5q1 -10 3 -15t-5 -8.5t-11 -4t-14 -1.5q1 -14 -3 -29v1q-3 -16 -3 -48q-2 -154 -2 -227v-83q0 -68 5 -151q1 -33 6 -68v-7q0 -4 2 -14
q2 -16 2 -21q0 -7 -2 -13q-1 -3 -1 -5q22 -9 24 -28q4 -17 -2 -21.5t-25 -4.5q-14 0 -28 2q-22 2 -53 2q-7 0 -15 -2q-37 -7 -48 3q-8 7 -5.5 23t12.5 19q1 0 2 1h2q1 1 2 1q-2 0 -2 -1q0 10 1 13q0 8 4 26q3 16 1 36q0 2 -0.5 9t-0.5 10q-1 8 -1 32v32q-1 28 -1 99
q0 54 2 162v134q-1 11 1 36q1 9 1 30q0 7 -2 21q0 2 -0.5 6t-0.5 5q-1 3 -1 13q-2 0 -6 2zM180 897q28 12 33 -14q1 -16 -17 -34q-3 -3 -12 -24q-17 -32 -24 -37q-11 -8 -19.5 -4.5t-7.5 16.5q2 14 8 24l1 2q2 3 3 8l4 13q10 39 31 50z" />
    <glyph glyph-name="Icircumflex" unicode="&#xce;" horiz-adv-x="318" 
d="M78 716l1 -1q-10 3 -9.5 25.5t10.5 22.5q26 0 37 -1h-2q60 -3 75 0q1 0 2.5 0.5t2.5 0.5q50 9 57 -15q4 -11 -4 -33q-6 -8 -25 -6q1 -32 -2 -69q0 -42 1 -54v1q2 -18 2 -29q0 -13 -2 -35q-2 -42 -1 -50q0 -1 0.5 -5t0.5 -6q4 -22 3 -36l-3 -36q0 -3 -0.5 -13.5
t-0.5 -14.5q-2 -24 -2 -71t3 -70q1 -22 -1 -62q0 -3 -1 -12t-1 -13q-1 -18 2 -44v1q2 -18 2 -30q8 0 13 -4q7 -4 7 -15v-22q0 -11 -4 -15q-11 -11 -41 -3l-2 1q-1 0 -5.5 0.5t-6.5 0.5q-37 3 -56 0q-15 0 -36 3t-21 8v11q0 2 0.5 7t0.5 7q0 6 4 9q1 0 3 1.5t4 2.5l17 3
q-3 42 -3 92q0 11 0.5 33t0.5 34q0 11 0.5 34.5t0.5 35.5q0 11 -2 35v1q-1 10 -1 45q2 82 2 134v48q0 9 -2 35q-3 27 -3 57q0 2 -0.5 6t-0.5 6q0 5 -0.5 15t-0.5 16q0 20 1 29zM154 915q21 9 50 -20q42 -42 62 -78q11 -22 -4 -31.5t-32 4.5q-12 12 -25 30l-12 12h1
q-3 0 -26.5 -19t-32.5 -21q-30 -11 -48 -11q-24 0 -38 17q-12 20 42 64l4 3v-1l29 25q15 18 30 26z" />
    <glyph glyph-name="Idieresis" unicode="&#xcf;" horiz-adv-x="304" 
d="M65 3q-15 4 -17 28q-1 11 2.5 14t12.5 4q1 0 2 0.5t2 0.5h-1q9 2 9 12v160q0 17 -0.5 52t-0.5 54q-1 18 -2.5 53t-2.5 52q-1 44 7 103q2 9 2 31q0 15 -2 49q0 2 -0.5 5t-0.5 5q-3 16 -3 48v35q-11 3 -23 3q-3 23 -1 41v3q1 3 1 4q6 5 11 5q19 1 43 -2q41 -6 62 -3h3l3 1
q53 8 60 -14q3 -11 -3 -27q-4 -14 -31 -12q0 -3 -0.5 -9t-0.5 -9q-2 -12 -2 -17q0 -28 -1 -40q0 -27 -2 -55q0 -4 -0.5 -14.5t-0.5 -14.5q0 -59 2 -181q0 -56 -4 -162q-2 -26 -2 -79q-1 -9 4 -41q3 -27 3 -33q26 -5 31 -27q1 -14 -10.5 -18t-25.5 -3q-50 0 -75 -4
q-31 -2 -48 2zM217 917q39 -3 39 -43q0 -22 -15 -39.5t-39 -13.5q-19 1 -28.5 13.5t-9.5 29.5q0 23 15 39.5t38 13.5zM94 821q-21 0 -31.5 14t-10.5 34q0 21 11 35.5t31 14.5q22 0 33.5 -14t11.5 -34t-12 -35t-33 -15z" />
    <glyph glyph-name="Eth" unicode="&#xd0;" horiz-adv-x="422" 
d="M58 342q-12 8 -8.5 27t15.5 22q6 0 9 -2h9v75q-1 32 1 92v89l-3 40v1h-8q-10 2 -14 2q-8 0 -8.5 21t5.5 25h-2q8 8 28 6q2 -2 3 -2q12 -1 34 -7q3 -1 14.5 -3t22.5 -5t18 -7l21 -8h3l2 -1q25 -8 38 -20v1q44 -35 77 -89q41 -63 56 -148q4 -20 4 -53q0 -50 -15 -110
l-4 -18q-8 -38 -18 -61q-6 -14 -37 -64q-5 -10 -13 -18q-6 -9 -12 -17h1q-13 -18 -27 -35q-28 -37 -67 -57l-6 -3l-39 -9h2l-15 -3q-19 -3 -59 -3h-12q-3 0 -3.5 12.5t3 25t10.5 12.5t18 4v48q1 16 1 46q0 33 -1 48q0 37 1 54q1 7 1 34q-1 14 -1 50q-14 0 -25 8zM295 545
q-2 7 -28 43l-11 16q-9 14 -33 38v-13q0 -10 -2 -28t-2 -24q-2 -36 -2 -51l2 -139q3 0 11 2q9 1 16 -1t12 -10.5t2 -23.5q-5 -25 -41 -17h-1q0 -17 -3 -36q-3 -13 -1 -51q0 -2 0.5 -8t0.5 -9q0 -24 -2 -68q-4 -50 -3 -61l7 13v-1l14 21q6 6 41 49q32 42 43 113q4 22 7 33
l8 28q2 22 -3 56q0 2 -1 5t-1 5t-0.5 5t-0.5 4q-6 45 -9 56q-4 8 -4 10q-6 26 -16 44z" />
    <glyph glyph-name="Ntilde" unicode="&#xd1;" horiz-adv-x="460" 
d="M316 709l-1 1q-7 3 -8 20.5t2 21.5l-1 -1q5 18 45 7q10 -2 14 -2q3 0 5 1q14 7 28 3t13 -25q0 -21 -9 -26q-6 -5 -18 -3v-69v-46q0 -31 -2 -46v-78q0 -2 -1.5 -8.5t-1.5 -9.5v-118q0 -13 0.5 -39t0.5 -39q0 -32 -1 -49l-3 -29v1q-3 -46 -2 -86q0 -2 0.5 -5.5t0.5 -5.5
q2 -41 -10 -56h1q-12 -17 -34 -1q-8 6 -12 27q-1 23 -14 63q-8 21 -9 25q-21 75 -52 172l-15 46q-21 69 -26 127q0 3 -14 53l-2 9v-2l-4 13v-16q0 -9 -2 -25q-4 -29 -1 -48q0 -1 0.5 -4t0.5 -5q6 -37 1 -64q-3 -17 -1 -47q0 -4 0.5 -12t0.5 -13v-54q0 -59 -2 -88
q0 -9 -2 -19q-2 -13 -1 -17l4 -30q0 -1 0.5 -5t0.5 -6q5 -37 5 -46q50 2 36 -38q-5 -18 -37 -16h-4q-27 -4 -42 -1q-31 0 -39 2q-14 2 -23 2h-4q-21 0 -27 11q-5 15 -2 27q2 13 22 11v14q-1 7 -1 24q0 19 1 29q2 18 2 26v54q0 5 -2 21q-2 21 -1 30q5 55 5 60q0 14 -4 40
q-3 20 -3 42q0 5 0.5 17t0.5 18q0 5 0.5 15t0.5 16q0 53 3 104q0 30 -1 37q-2 45 0 59q0 14 -2 24q-8 30 3 48v-1q6 12 34 17h1q1 1 2 1q15 2 42.5 -3t34.5 -14q5 -6 10 -31q0 -1 0.5 -2.5t0.5 -3.5q12 -44 20 -78l9 -34q8 -35 11 -42q7 -20 10 -45q1 -12 8 -33l9 -23
q12 -42 14 -52q4 -23 19 -66l4 -11q9 -24 27 -98l1 -8q0 -1 1 -2q0 15 2 51q0 7 0.5 27t0.5 28q0 6 0.5 18.5t0.5 18.5q0 10 0.5 31t0.5 31q0 19 -2 61q0 36 3 57l3 27q3 36 3 76q0 5 -0.5 12.5t-0.5 10.5v41q0 13 1 18h-2q-6 0 -8 -1q-9 -4 -16 -1zM172 907q37 6 72 -10
l5 -4l11.5 -9t9.5 -8q21 -19 39 -25q13 -5 21 10q18 30 37 15q20 -14 0.5 -43t-39.5 -39q-31 -15 -64 -6q-10 2 -39 22v-1l-14 11q-12 5 -29 15q-20 7 -30 -3l-3 -8q-3 -16 -16 -20q-10 -1 -16.5 8t-6.5 18q0 13 12 32l8 11q19 30 42 34z" />
    <glyph glyph-name="Ograve" unicode="&#xd2;" horiz-adv-x="360" 
d="M288 682q25 -75 22 -118q-1 -9 1 -20q2 -6 2 -17q1 -15 1 -50q0 -31 -2 -97l-3 -82q0 -13 -2 -27v1q-1 -11 -1 -52q5 -62 -24 -145q-39 -93 -117 -72q-35 9 -65 48.5t-34 74.5l-2 15q-15 97 -16 143q-1 73 7 162q6 69 22 144q0 2 1 5.5t1 4.5l3 15q11 45 21 64l3 7
q5 13 21 28t31 23q10 6 39 6t55 -17.5t36 -43.5zM267 365l3 83q1 14 1 44q0 20 -1 29l-4 25l-3 18l-2 21v-1q-3 24 -4.5 33t-6.5 29t-13.5 30t-20.5 15q-21 7 -24 1q-5 -9 -9 -27q-1 -5 -7 -49q0 -18 -1 -24q-8 -87 -11 -168q-1 -14 -1 -44q0 -40 1 -60t1 -59q0 -5 -0.5 -13
t-0.5 -12q0 -7 -0.5 -23t-0.5 -25q0 -51 6 -85q7 -41 23 -48q4 -2 8 -2l7 -3q15 10 22 22q15 25 25 100q9 71 10 125zM196 772l-15 20q-26 39 -32 51q-3 22 8 28q18 8 27 1q27 -20 37 -55l4 -12q0 -1 1 -4q7 -22 -3 -31q-13 -6 -27 2z" />
    <glyph glyph-name="Oacute" unicode="&#xd3;" horiz-adv-x="362" 
d="M297 161l-9 -44q-2 -8 -2 -11q-5 -19 -17 -51q-27 -60 -77 -55q-23 2 -48.5 19t-37.5 36l-6 11v-1q-19 29 -30 80q0 2 -1 9.5t-2 12.5q-7 35 -11 63q-9 57 -9 136q0 31 1 47q2 72 23 185q10 39 30 81l-1 -1l3 6q8 19 49 56q5 4 11.5 6t11.5 2.5t12.5 -1.5l11.5 -3t12 -4
t10 -4l24 -14q3 -3 7.5 -12t6.5 -12l8 -13v1q7 -12 17 -46q8 -36 10 -41l10 -41l3 -15q9 -77 9 -155q0 -112 -18 -218v-1q-1 -1 -1 -2v-6zM241 622l-5 16q-7 26 -10 31q-5 13 -17 21l-7 -6q-11 -13 -18 -59q0 -1 -0.5 -2.5t-0.5 -2.5q-2 -26 -9 -56l-4 -24q-7 -53 -7 -133
v-34q0 -14 2 -42q0 -2 1.5 -18t1.5 -25v-15q0 -40 4 -55q4 -18 2 -44q-1 -10 2 -26l1 -2q1 -3 1 -4l3 -15q9 -54 13 -63q6 -15 11 -15q12 10 19 21q7 14 18 56l3 15q18 88 22 148q3 48 2 88q-1 0 -1 29l1 28v27q-2 24 -6 46q0 3 -3.5 14t-3.5 26q-3 28 -11 57l-4 19v-1z
M233 889q28 12 33 -14q1 -16 -17 -34q-3 -3 -12 -24q-17 -32 -24 -37q-11 -8 -19.5 -4.5t-7.5 16.5q2 14 8 24l2 2q1 3 2 8l4 13q10 39 31 50z" />
    <glyph glyph-name="Ocircumflex" unicode="&#xd4;" horiz-adv-x="362" 
d="M48 494q-1 13 1 40q0 4 2 14t2 13q-1 11 6 43q0 1 1 4l1 4l16 52l3 9q11 29 22 40q16 18 54 27t60 1h-1q38 -15 64 -82q8 -15 12 -44q1 -3 2 -9.5t2 -11.5t2 -9q3 -13 3 -49v-23q0 -8 1.5 -17t4 -20t3.5 -18q5 -28 5 -32q2 -26 2 -39q0 -7 -0.5 -20.5t-0.5 -19.5
q0 -102 -3 -155q-6 -94 -39 -148q-30 -44 -80 -44q-24 0 -42 14q-26 20 -47.5 54t-27.5 66l-5 21q-17 77 -20 171q0 11 -2 35q0 9 -1 26.5t-1 26.5q0 21 1 30v-1q2 25 0 51zM237 643l-6 14q-14 33 -25 35q-4 1 -9 -1l-7 -2h2q-13 -6 -16 -11q-4 -10 -9 -39q-3 -23 -3 -47
q0 -14 -2 -40q-1 -9 -1 -30q0 -31 -2 -46q-2 -18 0 -46v-35q0 -18 2 -50q0 -4 0.5 -12t0.5 -13l3 -32q4 -34 4 -51q0 -4 -0.5 -14.5t-0.5 -15.5q-1 -25 0 -50q0 -1 0.5 -4t0.5 -5q1 -15 3 -29t5.5 -33.5t10 -29.5t15.5 -8q22 5 39 45l5 24l15 44q4 14 4 41q0 24 1 33
q2 20 0 57q-1 6 -1 24q0 24 3 43q4 31 3 45q-1 21 -7 59l-4 22l-4 20q-6 46 -8 66q-2 53 -12 72zM179 891q21 9 50 -20q42 -42 62 -78q11 -22 -4 -31.5t-32 4.5q-12 12 -25 30l-12 12h1q-3 0 -26.5 -19t-32.5 -21q-30 -11 -48 -11q-24 0 -38 17q-12 20 42 64l4 3v-1l29 25
q15 18 30 26z" />
    <glyph glyph-name="Otilde" unicode="&#xd5;" horiz-adv-x="381" 
d="M297 161l-9 -44q-2 -8 -2 -11q-5 -19 -17 -51q-27 -60 -77 -55q-23 2 -48.5 19t-37.5 36l-6 11v-1q-19 29 -30 80q0 2 -1 9.5t-2 12.5q-7 35 -11 63q-9 57 -9 136q0 31 1 47q2 72 23 185q10 39 30 81l-1 -1l3 6q8 19 49 56q5 4 11.5 6t11.5 2.5t12.5 -1.5l11.5 -3t12 -4
t10 -4l24 -14q3 -3 7.5 -12t6.5 -12l8 -13v1q7 -12 17 -46q8 -36 10 -41l10 -41l3 -15q9 -77 9 -155q0 -112 -18 -218v-1q-1 -1 -1 -2v-6zM241 622l-5 16q-7 26 -10 31q-5 13 -17 21l-7 -6q-11 -13 -18 -59q0 -1 -0.5 -2.5t-0.5 -2.5q-2 -26 -9 -56l-4 -24q-7 -53 -7 -133
v-34q0 -14 2 -42q0 -2 1.5 -18t1.5 -25v-15q0 -40 4 -55q4 -18 2 -44q-1 -10 2 -26l1 -2q1 -3 1 -4l3 -15q9 -54 13 -63q6 -15 11 -15q12 10 19 21q7 14 18 56l3 15q18 88 22 148q3 48 2 88q-1 0 -1 29l1 28v27q-2 24 -6 46q0 3 -3.5 14t-3.5 26q-3 28 -11 57l-4 19v-1z
M131 873q37 6 72 -10l5 -4l11.5 -9t9.5 -8q21 -19 39 -25q13 -5 21 10q18 30 37 15q20 -14 0.5 -43t-39.5 -39q-31 -15 -64 -6q-10 2 -39 22v-1l-14 11q-12 5 -29 15q-20 7 -30 -3l-3 -8q-3 -16 -16 -20q-10 -1 -16.5 8t-6.5 18q0 13 12 32l8 11q19 30 42 34z" />
    <glyph glyph-name="Odieresis" unicode="&#xd6;" horiz-adv-x="362" 
d="M288 682q25 -75 22 -118q-1 -9 1 -20q2 -6 2 -17q1 -15 1 -50q0 -31 -2 -97l-3 -82q0 -13 -2 -27v1q-1 -11 -1 -52q5 -62 -24 -145q-39 -93 -117 -72q-35 9 -65 48.5t-34 74.5l-2 15q-15 97 -16 143q-1 73 7 162q6 69 22 144q0 2 1 5.5t1 4.5l3 15q11 45 21 64l3 7
q5 13 21 28t31 23q10 6 39 6t55 -17.5t36 -43.5zM267 365l3 83q1 14 1 44q0 20 -1 29l-4 25l-3 18l-2 21v-1q-3 24 -4.5 33t-6.5 29t-13.5 30t-20.5 15q-21 7 -24 1q-5 -9 -9 -27q-1 -5 -7 -49q0 -18 -1 -24q-8 -87 -11 -168q-1 -14 -1 -44q0 -40 1 -60t1 -59q0 -5 -0.5 -13
t-0.5 -12q0 -7 -0.5 -23t-0.5 -25q0 -51 6 -85q7 -41 23 -48q4 -2 8 -2l7 -3q15 10 22 22q15 25 25 100q9 71 10 125zM276 862q39 -3 39 -43q0 -22 -15 -39.5t-39 -13.5q-19 1 -28.5 13.5t-9.5 29.5q0 23 15 39.5t38 13.5zM153 766q-21 0 -31.5 14t-10.5 34q0 21 11 35.5
t31 14.5q22 0 33.5 -14t11.5 -34t-12 -35t-33 -15z" />
    <glyph glyph-name="multiply" unicode="&#xd7;" horiz-adv-x="313" 
d="M97 435l3 -3q2 -2 16 -14.5t21 -19.5l6 -7l14 -15l4 5q74 87 100 62q15 -16 -10 -46t-58 -57l4 -2q65 -60 67 -82q1 -10 -8 -15q-17 -11 -40 12l-1 2l-4 6q-16 17 -32 29h-1q-15 11 -19 17l-6 -7l-37 -37q-2 0 -3 -1q-33 -28 -48 -20q-33 18 26 67q7 5 29 29h-1h-1l1 2
l2 2q-3 5 -4 7q-1 0 -2.5 1.5t-2.5 3.5l-2 2q-19 22 -40 39l-4 4q-1 1 -3.5 4t-3.5 4.5t-3.5 4.5t-3.5 5l-2.5 5t-1.5 5v4t1.5 4t3.5 4q25 11 44 -4z" />
    <glyph glyph-name="Oslash" unicode="&#xd8;" horiz-adv-x="362" 
d="M48 494q-1 13 1 40q0 4 2 14t2 13q-1 11 6 43q0 1 1 4l1 4l16 52l3 9q11 29 22 40q16 18 54 27t60 1h-1q17 -7 30 -22l3 13l5 19q7 58 25 72q12 8 19.5 6.5t10.5 -12.5t4 -20t0 -17q-15 -82 -18 -92q-6 -20 -10 -42q0 -1 7 -31q1 -3 2 -9.5t2 -11.5t2 -9q3 -13 3 -49v-23
q0 -8 1.5 -17t4 -20t3.5 -18q5 -28 5 -32q2 -26 2 -39q0 -7 -0.5 -20.5t-0.5 -19.5q0 -102 -3 -155q-6 -94 -39 -148q-30 -44 -80 -44q-24 0 -42 14q-1 0 -11 8l-3 -21l-4 -26q-4 -47 -14 -64q-13 -24 -27 -18t-15 33q-3 41 18 120l7 23q-20 32 -26 65l-5 21q-17 77 -20 171
q0 11 -2 35q0 9 -1 26.5t-1 26.5q0 21 1 30v-1q2 25 0 51zM257 505l-1 2v3q-12 -56 -27 -111q-32 -115 -43 -203q-3 -26 -15 -70q8 -85 32 -78q22 5 39 45l5 24l15 44q4 14 4 41q0 24 1 33q2 20 0 57q-1 6 -1 24q0 24 3 43q4 31 3 45q-1 21 -7 59l-4 22zM161 345v-13l2 6
q1 5 6.5 25t6.5 28l3 25l5 35q0 9 4 19l2 6q1 5 3.5 13t4.5 13v6l1 3q1 22 9 40v-2q4 14 13 55q1 6 11 50l-1 3q-14 33 -25 35q-4 1 -9 -1l-7 -2h2q-13 -6 -16 -11q-4 -10 -9 -39q-3 -23 -3 -47q0 -14 -2 -40q-1 -9 -1 -30q0 -31 -2 -46q-2 -18 0 -46v-35q0 -18 2 -50z" />
    <glyph glyph-name="Ugrave" unicode="&#xd9;" horiz-adv-x="410" 
d="M80 304q0 10 -1 15q-4 18 -3 28q0 4 2 18q1 6 1 30q-2 14 -2 45q0 17 2 57q1 19 1 63q0 32 -1 47v-1q-2 14 -4 53l3 24q2 6 2 8q-18 4 -28.5 16t-0.5 29q7 11 47 6q4 -1 6 -1q28 0 43 2l12 1h13q51 12 58 -18q5 -34 -35 -36q1 -30 1 -87q1 -29 -1 -88q-1 -16 1 -48v2
q1 -11 1 -31v-165q2 -17 2 -55q0 -67 7 -109l2 -14q6 -37 18 -50l17 8q9 6 14 23q6 11 12 45l7 33q8 31 14 76q2 24 2 42q0 31 2 44q1 11 1 33q0 27 -2 41q-5 48 -5 87q0 7 0.5 19.5t0.5 19.5q0 8 0.5 22.5t0.5 22.5q2 57 1 85q-2 28 -2 50q-33 -2 -35 14q-2 21 7 33
q8 11 27 3l-1 1q7 -2 22 -2q2 0 16 2h-1q17 4 29 2q10 -5 8 -23.5t-8 -24.5q-4 -5 -16 -5q0 -19 -1 -29v1q-1 -15 -1 -43v-34q-1 -22 2 -48q2 -18 2 -30q0 -26 -1 -38v1q-2 -32 -1 -47q1 -23 0 -42q-2 -27 0 -40q0 -2 0.5 -6t0.5 -5q4 -51 1 -78q-1 -6 -1 -17q-2 -45 -8 -60
q-7 -23 -10 -51q-6 -67 -29 -92l-6 -8v1l-17 -17v1q-7 -7 -18 -9q-1 0 -2.5 -0.5t-2.5 -0.5q-41 -9 -63 3q-27 16 -49 48t-28 64v-1l-6 25q-15 57 -19 160zM210 780l-15 20q-26 39 -32 51q-3 22 8 28q18 8 27 1q27 -20 37 -55l4 -12q0 -1 0.5 -2t0.5 -2q7 -22 -3 -31
q-13 -6 -27 2z" />
    <glyph glyph-name="Uacute" unicode="&#xda;" 
d="M92 197q0 7 -4 25q-4 16 -4 37v46q-1 5 -1 21q-1 10 -1 35q0 15 1 44t1 43q1 12 1 38q0 30 -2 94q-1 18 1 58v39v23q-29 -2 -35 10q-8 24 10 34q7 5 39 7q1 0 4 0.5t4 0.5q7 1 21 -1q10 -2 16 -1h3l2 1q14 4 42.5 1t33.5 -16q7 -21 0 -32q-8 -12 -27 -6v-14v-23l3 -84
q0 -26 -3 -41l-3 -42v-176q0 -4 -0.5 -12.5t-0.5 -12.5q-2 -36 3 -58q4 -12 4 -32q0 -21 -3 -38q0 -1 -0.5 -3t-0.5 -3q-1 -24 16 -79l-2 3q-1 1 2 -3q1 -2 1 -3q12 -28 25 -28q25 7 35 44q12 50 17 76q3 15 3 45q0 24 3 41q3 21 3 42t-1 31q0 39 1 48q2 28 2 42t-1 21
q-2 42 0 58q5 22 1 50v-1q-1 12 -1 35q1 19 1 62v19q0 11 -1 19h-3q-19 8 -21 29q-1 18 17.5 23t32.5 0l2 -1h2h6q30 0 37 -9q11 -17 5 -31l1 1q-4 -12 -28 -9h-4h-1v-4v-3q-1 -3 -1 -4q-2 -3 -2 -7q0 -3 3 -18t3 -20q0 -9 -2 -21q-1 -6 -1 -17q0 -35 1 -51q0 -5 0.5 -13.5
t0.5 -12.5q1 -48 -2 -108q0 -9 -1.5 -33t-1.5 -34q-1 -74 -8 -175q-6 -106 -57 -146q-20 -17 -44 -17q-25 0 -55.5 15t-41.5 34q-29 42 -33 78l-5 24q-7 35 -7 46zM270 885q28 12 33 -14q1 -16 -17 -34q-3 -3 -12 -24q-17 -32 -24 -37q-11 -8 -19.5 -4.5t-7.5 16.5
q2 14 8 24l1 2q2 3 3 8l4 13q10 39 31 50z" />
    <glyph glyph-name="Ucircumflex" unicode="&#xdb;" horiz-adv-x="426" 
d="M54 735q7 11 43 11h26h24q17 7 46.5 1t33.5 -28v-4.5v-5t-0.5 -5t-2 -5.5t-4.5 -4t-7 -4q-2 -1 -12 1h-3q-2 1 -3 1v-8q0 -10 4 -32q4 -38 1 -58q-7 -49 -7 -100q0 -39 3 -70q7 -43 5 -87q0 -3 -0.5 -14.5t-0.5 -15.5q0 -14 2 -42v1q2 -20 2 -63q0 -61 6 -99q2 -15 7 -27
l5 -15l7 -14q13 -4 32 27q19 37 27 111q6 45 6 47q5 24 5 60q0 22 -2 56q-2 26 -2 46q0 29 -2 87v-1q-2 19 0 60q0 1 0.5 7t0.5 9v55q0 17 -1 25q-7 33 -6 62q-12 -2 -18 7q-5 8 -3 23q3 19 47 12h5q3 -1 16 1q40 9 44 -19q2 -22 -11 -26.5t-28 1.5q2 -26 2 -38
q0 -16 -2 -52q-2 -42 -1 -64q2 -119 8 -178q0 -7 0.5 -19t0.5 -18q0 -23 -2 -53q-3 -15 -3 -33q0 -23 -3 -44q-3 -16 -11 -48l-10 -34q-2 -9 -4 -23q-2 -35 -11 -49q-27 -36 -61 -45q-14 -3 -42.5 3.5t-38.5 15.5q-19 15 -35 48l-6 12q-18 33 -25 73q-2 9 -5 41
q0 4 -0.5 13.5t-1 16.5t-1.5 12q0 3 -2 11q-4 42 -3 68q0 13 -2 41q-2 30 -1 43q1 26 -3 78q-3 48 5 92q3 18 1 37q0 36 1 41q0 1 0.5 2.5t0.5 2.5q2 24 1 31q0 3 -1 5l-2 7h-8q-17 0 -24 10q-7 12 4 30zM220 910q21 9 50 -20q42 -42 62 -78q11 -22 -4 -31.5t-32 4.5
q-12 12 -25 30l-12 12h1q-3 0 -26.5 -19t-32.5 -21q-30 -11 -48 -11q-24 0 -38 17q-12 20 42 64l4 3v-1l29 25q15 18 30 26z" />
    <glyph glyph-name="Udieresis" unicode="&#xdc;" horiz-adv-x="410" 
d="M80 304q0 10 -1 15q-4 18 -3 28q0 4 2 18q1 6 1 30q-2 14 -2 45q0 17 2 57q1 19 1 63q0 32 -1 47v-1q-2 14 -4 53l3 24q2 6 2 8q-18 4 -28.5 16t-0.5 29q7 11 47 6q4 -1 6 -1q28 0 43 2l12 1h13q51 12 58 -18q5 -34 -35 -36q1 -30 1 -87q1 -29 -1 -88q-1 -16 1 -48v2
q1 -11 1 -31v-165q2 -17 2 -55q0 -67 7 -109l2 -14q6 -37 18 -50l17 8q9 6 14 23q6 11 12 45l7 33q8 31 14 76q2 24 2 42q0 31 2 44q1 11 1 33q0 27 -2 41q-5 48 -5 87q0 7 0.5 19.5t0.5 19.5q0 8 0.5 22.5t0.5 22.5q2 57 1 85q-2 28 -2 50q-33 -2 -35 14q-2 21 7 33
q8 11 27 3l-1 1q7 -2 22 -2q2 0 16 2h-1q17 4 29 2q10 -5 8 -23.5t-8 -24.5q-4 -5 -16 -5q0 -19 -1 -29v1q-1 -15 -1 -43v-34q-1 -22 2 -48q2 -18 2 -30q0 -26 -1 -38v1q-2 -32 -1 -47q1 -23 0 -42q-2 -27 0 -40q0 -2 0.5 -6t0.5 -5q4 -51 1 -78q-1 -6 -1 -17q-2 -45 -8 -60
q-7 -23 -10 -51q-6 -67 -29 -92l-6 -8v1l-17 -17v1q-7 -7 -18 -9q-1 0 -2.5 -0.5t-2.5 -0.5q-41 -9 -63 3q-27 16 -49 48t-28 64v-1l-6 25q-15 57 -19 160zM295 887q39 -3 39 -43q0 -22 -15 -39.5t-39 -13.5q-19 1 -28.5 13.5t-9.5 29.5q0 23 15 39.5t38 13.5zM172 791
q-21 0 -31.5 14t-10.5 34q0 21 11 35.5t31 14.5q22 0 33.5 -14t11.5 -34t-12 -35t-33 -15z" />
    <glyph glyph-name="Yacute" unicode="&#xdd;" 
d="M288 698q-14 -4 -18 8.5t1 22.5q6 15 54 12q2 0 5 -0.5t4 -0.5q2 0 4 1q34 2 40 -7q4 -6 1 -19q-4 -22 -25 -22h-3q-2 -6 -3 -8q-2 -9 -33 -56l1 1q0 -1 -1 -2t-2 -2.5t-2 -2.5q-13 -25 -19 -38l-15 -25l-16 -30h1q-8 -15 -5 -30q2 -26 2 -37q0 -6 -0.5 -18t-0.5 -17
q0 -30 -3 -60q-4 -64 -2 -95v1q1 -26 1 -79q0 -25 2 -67q2 -31 -1 -56q0 -2 -0.5 -5t-0.5 -4t-1 -4.5t-1 -5.5l-1 -2q0 -2 6 -2q13 1 22 -0.5t17 -8.5t8 -21q0 -19 -47 -16q-1 0 -2.5 0.5t-2.5 0.5q-11 0 -29 -2q-38 -3 -64 -1q-24 2 -28 19q-4 18 4 26l15 3h7v7q0 13 1 19
q0 3 0.5 9t0.5 8q0 20 -1 31q-2 29 0 41q2 11 -1 27q0 1 -1 3.5t-1 4.5q-2 16 0 32q0 1 1 3t1 3q0 20 -2 32q-1 20 0 42q2 10 2 35q0 30 2 44q3 27 -1 67q0 1 -0.5 5.5t-0.5 7.5q-2 10 1 43q-2 15 -10 30l-6 16q-16 30 -22 50l1 -1q-2 6 -8.5 17.5t-8.5 17.5q-10 17 -17 36
l1 -1l-6 20q0 -2 -1 -2h-6q-20 0 -26 15q-2 17 0 26q4 12 22 10h5q11 0 15 -1q50 -5 79 -2q1 0 3 0.5t3 0.5q48 10 51 -18q0 -15 -1 -17q-8 -18 -30 -18q9 -26 21 -46q10 -20 22 -50l27 42q15 35 32 61q-6 0 -10 -1zM236 880q28 12 33 -14q1 -16 -17 -34q-3 -3 -12 -24
q-17 -32 -24 -37q-11 -8 -19.5 -4.5t-7.5 16.5q2 14 8 24q0 1 1.5 3t2.5 7l4 13q10 39 31 50z" />
    <glyph glyph-name="Thorn" unicode="&#xde;" horiz-adv-x="325" 
d="M208 701q-6 -2 -20 -2q1 -11 1 -32q0 -20 -2 -21q42 -13 67.5 -58.5t22.5 -86.5q-10 -58 -21 -97q-18 -38 -70 -58q1 0 1 -1q2 -11 1 -14v1q-2 -13 0 -26q0 -10 2 -36q0 -3 0.5 -10t0.5 -11q1 -5 -2 -36q-1 -6 -1 -19q-1 -10 -1 -29v-23q-1 -22 2 -45q4 -20 0 -47
q13 -3 20.5 -14t0.5 -23q-8 -15 -29 -10q-1 0 -3 1l-4 2q-10 -4 -60 -4q-15 0 -18 -1q-12 -3 -29 1h2q-23 5 -25 32q0 10 2 12t10 3q2 0 3 1h-1q5 3 18 3q0 -3 1 -4v4h2h-2l3 16q5 23 4 29q0 29 -5 62q-2 15 0 49q0 1 0.5 6t0.5 8q2 42 2 63q0 42 1 62q0 75 -1 94
q0 4 -0.5 14t-0.5 16q0 54 -5 124q-1 16 1 53q2 32 1 47q-28 0 -34 13q-4 15 0 25q9 23 52 12l1 1q1 1 2 1q7 1 55 1q14 0 18 1q10 3 27 -1h-1q14 -3 19 -10.5t6 -22.5q0 -9 -2 -11t-11 -3h-1q-1 -1 -2 -1h1zM77 53h-1h1zM96 747q1 1 3 1zM184 497q3 -40 4 -52q1 -10 3 -21
t2 -17q38 40 38 101q0 65 -42 92q0 -28 -3 -55v1q-2 -28 -2 -49z" />
    <glyph glyph-name="germandbls" unicode="&#xdf;" horiz-adv-x="400" 
d="M343 322q11 -47 11 -153q0 -72 -17 -109q-21 -34 -60 -47q-26 -10 -69 -8q-10 0 -15 13t-1.5 25t15.5 12q1 0 4 -0.5t5 -0.5h9q14 -2 30 0q22 4 35 18q15 19 21 74q2 32 2 58q0 17 -2 45q-3 19 -11 51q-7 22 -8 32q-11 41 -29 60q-6 8 -18 17q-15 13 -16 13q-7 9 -9 10
h-1q-34 14 -18 39q3 4 18 13h-1q25 16 40.5 46t15.5 61q0 44 -33 71q-10 6 -23 4h-2q-2 -1 -4 -1q-12 -2 -21.5 -11t-11.5 -20q-3 -15 -1 -33q0 -1 0.5 -5t0.5 -6v-276q0 -108 -2 -161q0 -22 -1 -26q0 -2 -0.5 -5t-0.5 -4q-2 -22 1 -36q4 -43 5 -62v-14q0 -3 -2 -5t-5 0
q-4 2 -12 2q-73 0 -81 -2q-5 0 -9 1q-1 0 -3.5 -0.5t-3.5 -0.5q-4 -1 -10 -1h-8q-6 0 -9 1q-2 4 -2 7t-0.5 7t-0.5 6q0 16 1 23v1q1 1 1 2h2q7 1 14 0h2l2 2q1 4 1 23q1 9 1 25q0 10 1 28.5t1.5 33.5t0.5 28q0 15 0.5 45t0.5 45q0 61 -3.5 173t-4.5 147q-1 49 36 88.5
t100 34.5q3 0 14 1t15 0h-1q39 -3 56.5 -20t33.5 -57q15 -32 15 -66q0 -40 -24 -78l-19 -26h1q-2 -3 -12 -13l-4 -3q26 -17 46 -47q24 -44 31 -89z" />
    <glyph glyph-name="agrave" unicode="&#xe0;" horiz-adv-x="478" 
d="M71 2q-20 3 -23 22v4q-2 16 6 21h-1q4 2 7 2.5t6.5 -0.5t5.5 -1h4q0 5 2 8l-1 -1q4 16 8 28q6 21 8 63q0 5 1.5 15t1.5 15q2 26 6 43q3 15 7 38q19 134 25 167q11 54 16 119q4 38 8 57q2 16 4 20l5 22v33q0 2 1 6.5t1 6.5q5 43 21 54q24 13 84 3q12 -5 15 -9
q7 -11 14 -53q0 -1 0.5 -4t0.5 -4q2 -17 8 -47q8 -36 10 -60l4 -22q5 -45 9 -64q11 -49 12 -83q4 -34 7 -52l6 -35l2 -25q9 -54 9 -56q6 -35 9 -71q5 -56 16 -93q0 -1 0.5 -4t0.5 -4q0 -4 4 -4q14 0 17 -2h-1q14 -8 14 -28q1 -14 -10.5 -18t-28.5 -3h-15q-16 -5 -34 -1
q-13 4 -15 21v5q-3 23 9 23q1 0 9 2q2 1 3 1q-1 4 -1 13l-2 31l-5 22q-5 21 -6 31l-3 20l-5 38q-2 10 -2 30q0 2 0.5 6t-0.5 6q-10 -1 -31.5 -3.5t-32.5 -4.5l-14 -2h1q-14 -2 -18 -3q-1 -7 -5 -33q-1 -5 -1.5 -10.5t-1 -12t-0.5 -10.5q-4 -37 -9 -50q-4 -17 -6 -42
q0 -3 -0.5 -11.5t-1.5 -14.5q20 -5 21.5 -25t-19.5 -29q-18 -6 -61 -2q-2 0 -7.5 0.5t-7.5 0.5q-3 0 -9 -0.5t-10 -0.5q-27 -2 -41 1zM301 378l-23 164l-3 24l-8 -58l-10 -55l-4 -28q-1 -11 -3.5 -30.5t-3.5 -28.5q-6 -32 -9 -65q0 -9 -1 -12q6 1 16 3t14 3q37 8 50 8
q-4 15 -5 26q-1 6 -4.5 22.5zM230 779l-15 20q-26 39 -32 51q-3 22 8 28q18 8 27 1q27 -20 37 -55l4 -12l1 -2v-2q7 -22 -3 -31q-13 -6 -27 2z" />
    <glyph glyph-name="aacute" unicode="&#xe1;" horiz-adv-x="480" 
d="M74 1q-22 4 -25 25q-3 4 -0.5 14t11.5 10h18l2 16q3 24 9 45q12 39 14 96q0 23 3 42l4 20q2 7 4 23q6 62 11 94q1 5 5 22q4 12 5 23q4 11 4 21q0 14 1 21l6 25l3 19q2 10 2 30v9q0 14 4 42l6 42q0 12 6 32q7 28 6 35q-2 36 23 39l11 2q54 9 78 0q14 -6 16 -32q0 -7 2 -11
q5 -22 12 -80q1 -9 1 -27q0 -17 3 -35l9 -57l6 -30l9 -82q5 -36 19 -108v1q7 -24 12 -56l15 -102l6 -51l1 -3v-5q0 -16 -2 -17h5q15 0 25 -5q7 -6 9 -22q2 -12 -2 -15t-15 -3h-6q-3 0 -11 -2q-2 0 -7.5 -1.5t-8.5 -2l-9 -1.5t-9.5 -1h-8.5t-8.5 1t-7 2.5t-6 4t-4.5 6.5
q-5 10 -1 23.5t16 18.5q-3 11 -5 37l-3 23t-2 22q-4 21 -8 69l-1 22h-13q-64 2 -95 5v-11q1 -11 1 -32.5t-3 -41.5q-2 -16 -4.5 -40l-4 -37.5t-2.5 -17.5q18 -10 21 -13q5 -18 -9 -33q-13 -12 -39 -7q-12 2 -58 2h-11q-7 0 -11 -1q-17 -2 -24 -1zM313 279l-9 61
q-24 150 -32 220v-3l-4 -19q0 -7 -1 -19.5t-1 -18.5q-2 -36 -4 -48q-2 -15 -7.5 -47l-8.5 -49q-13 -62 -14 -69l25 -3l22 -5q6 -1 18 -4t18 -3q-2 4 -2 7zM286 885q28 12 33 -14q1 -16 -17 -34q-3 -3 -12 -24q-17 -32 -24 -37q-11 -8 -19.5 -4.5t-7.5 16.5q2 14 8 24l1 2
q2 3 3 8l4 13q10 39 31 50z" />
    <glyph glyph-name="acircumflex" unicode="&#xe2;" horiz-adv-x="478" 
d="M71 2q-20 3 -23 22v4q-2 16 6 21h-1q4 2 7 2.5t6.5 -0.5t5.5 -1h4q0 5 2 8l-1 -1q4 16 8 28q6 21 8 63q0 5 1.5 15t1.5 15q2 26 6 43q3 15 7 38q19 134 25 167q11 54 16 119q4 38 8 57q2 16 4 20l5 22v33q0 2 1 6.5t1 6.5q5 43 21 54q24 13 84 3q12 -5 15 -9
q7 -11 14 -53q0 -1 0.5 -4t0.5 -4q2 -17 8 -47q8 -36 10 -60l4 -22q5 -45 9 -64q11 -49 12 -83q4 -34 7 -52l6 -35l2 -25q9 -54 9 -56q6 -35 9 -71q5 -56 16 -93q0 -1 0.5 -4t0.5 -4q0 -4 4 -4q14 0 17 -2h-1q14 -8 14 -28q1 -14 -10.5 -18t-28.5 -3h-15q-16 -5 -34 -1
q-13 4 -15 21v5q-3 23 9 23q1 0 9 2q2 1 3 1q-1 4 -1 13l-2 31l-5 22q-5 21 -6 31l-3 20l-5 38q-2 10 -2 30q0 2 0.5 6t-0.5 6q-10 -1 -31.5 -3.5t-32.5 -4.5l-14 -2h1q-14 -2 -18 -3q-1 -7 -5 -33q-1 -5 -1.5 -10.5t-1 -12t-0.5 -10.5q-4 -37 -9 -50q-4 -17 -6 -42
q0 -3 -0.5 -11.5t-1.5 -14.5q20 -5 21.5 -25t-19.5 -29q-18 -6 -61 -2q-2 0 -7.5 0.5t-7.5 0.5q-3 0 -9 -0.5t-10 -0.5q-27 -2 -41 1zM301 378l-23 164l-3 24l-8 -58l-10 -55l-4 -28q-1 -11 -3.5 -30.5t-3.5 -28.5q-6 -32 -9 -65q0 -9 -1 -12q6 1 16 3t14 3q37 8 50 8
q-4 15 -5 26q-1 6 -4.5 22.5zM225 900q21 9 50 -20q42 -42 62 -78q11 -22 -4 -31.5t-32 4.5q-12 12 -25 30l-12 12h1q-3 0 -26.5 -19t-32.5 -21q-30 -11 -48 -11q-24 0 -38 17q-12 20 42 64l4 3v-1l29 25q15 18 30 26z" />
    <glyph glyph-name="atilde" unicode="&#xe3;" horiz-adv-x="479" 
d="M181 1q-26 -2 -63 1q-16 2 -20 2l-7 -2q-31 -4 -40 5q-4 7 -4 18.5t3 18.5q4 7 20 7h7q4 0 5 7q0 4 1 11t1 10q2 23 5 32q9 29 9 52q0 40 13 96l6 21q8 54 11 79l3 29q2 33 6 46q15 74 20 164l6 60l3 28q0 2 0.5 5t0.5 4q5 45 28 56q18 8 43 6q26 0 34 -2q6 3 15 -1
q18 -8 18 -44v-10l23 -154q18 -107 25 -169q2 -24 8 -53l2 -14v1l7 -37v-6q0 -1 1 -2q0 -1 1 -5v-4q3 -13 2 -15q0 -7 2 -17q0 -1 0.5 -4t0.5 -4q6 -36 14 -92q0 -5 9 -65q11 2 18.5 1.5t11 -8t1.5 -22.5q-3 -15 -12 -21q-8 -5 -22 -1l-3 1q-2 0 -5.5 -0.5t-5.5 -0.5h-9
q-1 0 -4 -0.5t-5 -0.5q-34 -2 -38 2q-8 9 -3 26q2 14 7 22h-1q3 4 6 6t4.5 2t5 -1.5t4.5 -1.5l-10 68l-3 32q-5 42 -8 55l-2 13l-6 25l-20 -3l-16 -2l-42 -2q-2 0 -6 0.5t-5 -0.5q-1 -2 -1 -8q-13 -54 -15 -90q0 -4 -3 -22q-2 -14 -2 -22q0 -28 -3 -41l-2 -6t-2 -7
q1 0 2.5 -1t2.5 -1t3 -0.5l2 -0.5q14 -3 14 -24q0 -13 -6 -18.5t-12 -6.5t-18 0h-11zM300 435q-3 42 -17 121q-1 7 -1.5 6.5t0.5 -1.5q0 -3 -1 0q0 2 -1 6l-6 -31q-2 -10 -4 -28.5t-2 -21.5q-3 -32 -4 -36q0 -4 -2.5 -13.5t-3.5 -14.5q-5 -33 -10 -57q-2 -17 -4 -23
q-9 -27 -10 -48q30 2 46 6l34 7l1 1h2q3 0 2 3q-13 54 -19 124zM180 901q37 6 72 -10l5 -4l11.5 -9t9.5 -8q21 -19 39 -25q13 -5 21 10q18 30 37 15q20 -14 0.5 -43t-39.5 -39q-31 -15 -64 -6q-10 2 -39 22v-1l-14 11q-12 5 -29 15q-20 7 -30 -3l-3 -8q-3 -16 -16 -20
q-10 -1 -16.5 8t-6.5 18q0 13 12 32l8 11q19 30 42 34z" />
    <glyph glyph-name="adieresis" unicode="&#xe4;" horiz-adv-x="478" 
d="M71 2q-20 3 -23 22v4q-2 16 6 21h-1q4 2 7 2.5t6.5 -0.5t5.5 -1h4q0 5 2 8l-1 -1q4 16 8 28q6 21 8 63q0 5 1.5 15t1.5 15q2 26 6 43q3 15 7 38q19 134 25 167q11 54 16 119q4 38 8 57q2 16 4 20l5 22v33q0 2 1 6.5t1 6.5q5 43 21 54q24 13 84 3q12 -5 15 -9
q7 -11 14 -53q0 -1 0.5 -4t0.5 -4q2 -17 8 -47q8 -36 10 -60l4 -22q5 -45 9 -64q11 -49 12 -83q4 -34 7 -52l6 -35l2 -25q9 -54 9 -56q6 -35 9 -71q5 -56 16 -93q0 -1 0.5 -4t0.5 -4q0 -4 4 -4q14 0 17 -2h-1q14 -8 14 -28q1 -14 -10.5 -18t-28.5 -3h-15q-16 -5 -34 -1
q-13 4 -15 21v5q-3 23 9 23q1 0 9 2q2 1 3 1q-1 4 -1 13l-2 31l-5 22q-5 21 -6 31l-3 20l-5 38q-2 10 -2 30q0 2 0.5 6t-0.5 6q-10 -1 -31.5 -3.5t-32.5 -4.5l-14 -2h1q-14 -2 -18 -3q-1 -7 -5 -33q-1 -5 -1.5 -10.5t-1 -12t-0.5 -10.5q-4 -37 -9 -50q-4 -17 -6 -42
q0 -3 -0.5 -11.5t-1.5 -14.5q20 -5 21.5 -25t-19.5 -29q-18 -6 -61 -2q-2 0 -7.5 0.5t-7.5 0.5q-3 0 -9 -0.5t-10 -0.5q-27 -2 -41 1zM301 378l-23 164l-3 24l-8 -58l-10 -55l-4 -28q-1 -11 -3.5 -30.5t-3.5 -28.5q-6 -32 -9 -65q0 -9 -1 -12q6 1 16 3t14 3q37 8 50 8
q-4 15 -5 26q-1 6 -4.5 22.5zM317 877q39 -3 39 -43q0 -22 -15 -39.5t-39 -13.5q-19 1 -28.5 13.5t-9.5 29.5q0 23 15 39.5t38 13.5zM194 781q-21 0 -31.5 14t-10.5 34q0 21 11 35.5t31 14.5q22 0 33.5 -14t11.5 -34t-12 -35t-33 -15z" />
    <glyph glyph-name="aring" unicode="&#xe5;" horiz-adv-x="480" 
d="M289 835q22 -20 25 -44q3 -35 -16 -59q1 -3 2 -9t1 -7q0 -7 2 -11q5 -22 12 -80q1 -9 1 -27q0 -17 3 -35l9 -57l6 -30l9 -82q5 -36 19 -108v1q7 -24 12 -56l15 -102l6 -51l1 -3v-5q0 -16 -2 -17h5q15 0 25 -5q7 -6 9 -22q2 -12 -2 -15t-15 -3h-6q-3 0 -11 -2
q-2 0 -7.5 -1.5t-8.5 -2l-9 -1.5t-9.5 -1h-8.5t-8.5 1t-7 2.5t-6 4t-4.5 6.5q-5 10 -1 23.5t16 18.5q-3 11 -5 37l-3 23t-2 22q-4 21 -8 69l-1 22h-13q-64 2 -95 5v-11q1 -11 1 -32.5t-3 -41.5q-2 -16 -4.5 -40l-4 -37.5t-2.5 -17.5q18 -10 21 -13q5 -18 -9 -33
q-13 -12 -39 -7q-12 2 -58 2h-11q-7 0 -11 -1q-17 -2 -24 -1q-22 4 -25 25q-3 4 -0.5 14t11.5 10h18l2 16q3 24 9 45q12 39 14 96q0 23 3 42l4 20q2 7 4 23q6 62 11 94q1 5 5 22q4 12 5 23q4 11 4 21q0 14 1 21l6 25l3 19q2 10 2 30v9q0 14 4 42l6 42q0 12 6 32q7 28 6 35
q-2 25 9 34q-17 20 -17 39q-1 28 23 49q13 11 25 17l9 4q13 5 20 4q30 -6 47 -19zM313 279l-9 61q-24 150 -32 220v-3l-4 -19q0 -7 -1 -19.5t-1 -18.5q-2 -36 -4 -48l-16 -96q-13 -62 -14 -69l25 -3l22 -5q6 -1 18 -4t18 -3q-2 4 -2 7zM265 765q8 21 0 34q-2 3 -11 5
q-2 0 -3 -2v1q-5 -24 4 -42q2 -4 5.5 -2t4.5 6z" />
    <glyph glyph-name="ae" unicode="&#xe6;" horiz-adv-x="566" 
d="M237 703h-1q-20 12 -10 33v-1q9 14 32 14h10.5t5.5 1t10 1q26 2 63 2q58 0 84 -1l21 -3q4 -2 9 -2q17 -6 15 -23v-5q0 -2 0.5 -4.5t0.5 -3.5q3 -16 -7 -36q-5 -6 -16 -5t-17 7h1q-9 7 -9 22v3h-45q-2 0 0 -3v-29q0 -3 -0.5 -9.5t-0.5 -8.5v-28q1 -15 -1 -43q-1 -7 1 -22
q1 -6 1 -8q49 3 61 -7v1q15 -17 1 -29t-31 -13l-25 -3h-6q-1 0 -1 -2q-2 -15 -2 -45v-15v-18.5v-16.5q0 -5 0.5 -16.5t0.5 -17.5q0 -27 -1 -41v1q-2 -25 0 -49v-78q0 -3 0.5 -9t0.5 -10q3 -36 3 -73q0 -39 -3 -58q22 0 62 2q3 0 3 10q2 23 17 24q40 0 33 -38q0 -1 -0.5 -4
t-0.5 -4q-1 -10 -2 -15.5t-7 -10.5t-17 -5h-1q-3 0 -13 -2q-3 -1 -10 -1h-74q-1 0 -37.5 -2.5t-41.5 -1.5q-3 0 -12 0.5t-12 0.5h-8q-16 0 -19 4h-3q-11 0 -17.5 11.5t-3 23.5t16.5 12q2 0 7.5 -0.5t8.5 -0.5h15v27q0 15 2 45q2 14 2 22q0 4 0.5 12t0.5 13l-3 35l-2 34
q0 1 -0.5 3.5t-0.5 3.5l-71 -6q-12 -2 -21 -2h-2v-1l-3 -7h1q-5 -11 -8 -24l-4 -13q-3 -10 -11 -55v1q-8 -40 -24 -87q14 2 19 -2t3 -21q-3 -25 -17 -29q-7 -2 -11 0q-2 0 -4 2q-2 1 -3 1q-5 0 -8 -1q-4 -1 -16 -1q-10 2 -40 2q-6 3 -6 16t3 21q4 14 11.5 16t14.5 -2l3 -2
q2 9 9.5 28t8.5 23q14 38 15 64q2 18 8 36q9 18 9 27q9 41 17 58l14 46q28 78 39 116q7 20 23 90q4 13 10 37.5t9 35.5l9 26q12 39 14 52v5h-5q-5 0 -14 3zM251 516l-17 -63q-12 -45 -24 -82q-4 -14 -12 -39.5t-12 -42.5q8 1 22 3t21 2q20 2 33 4h2l2 1q0 11 2 33q0 7 2 25
q0 3 -0.5 7.5t-0.5 6.5q-2 30 -2 44q2 32 2 45l3 72v65l-10 -36t-11 -45z" />
    <glyph glyph-name="ccedilla" unicode="&#xe7;" horiz-adv-x="337" 
d="M183 -72q7 -12 12 2q3 8 0 15q-3 4 -11 9q-11 8 -13 12q-11 13 -9 39q-18 5 -25 12q-27 21 -41 64q-11 28 -21 85l-12 58q-12 69 -14 95q0 5 -0.5 14.5t-0.5 13.5q-1 58 7 120l3 31l3 42q5 20 8 28q6 18 10 36q7 40 22 65l4 9q10 23 34 42t48 17h12q27 -2 43 -16
q7 19 32 11q19 -6 14 -32q-1 -4 -1 -7q0 -4 2 -14q1 -6 1 -17q0 -15 -2 -20l-4 -13l-1 -4q-10 -9 -20.5 -7t-16.5 9q-1 1 -13 22q-6 8 -6 12q-11 27 -19 32q-5 5 -8 -18q-1 -2 -1 -4q0 -1 -1 -3l-1 -3l-6 -29q-2 -18 -4 -27v1q-6 -50 -8 -114q0 -8 -1.5 -23t-1.5 -23
q-1 -25 5 -73l2 -18q1 -20 -1 -61q0 -3 -0.5 -12t-0.5 -12q0 -57 3 -86l2 -34q0 -22 4 -46q0 -2 6 -29l4 -15q4 -13 9 -16q3 0 20 33l1 2q5 12 15.5 22t21.5 7q11 -4 12 -17.5t-3 -24t-8 -17.5q-26 -43 -48 -51l-4 -2q-1 -2 -1 -3q-4 -6 -2 -9q-1 2 8 -7h-1q14 -16 15 -20
q6 -19 1 -40q-6 -19 -24.5 -31.5t-38.5 -5.5q-13 4 -26.5 24.5t-5.5 34.5q11 7 24.5 1t17.5 -16z" />
    <glyph glyph-name="egrave" unicode="&#xe8;" horiz-adv-x="373" 
d="M74 694q-15 0 -23 13t-1 27q11 15 50 13h-1q25 -2 106 1q34 2 56 2q16 0 38 -2q7 0 11 -4q4 -3 4 -10q2 -16 2 -28q0 -2 0.5 -5.5t0.5 -6.5q3 -27 -14 -32q-15 -4 -25.5 4t-8.5 26q1 3 1 7q-2 -1 -4 -1q-19 0 -25 1q-24 0 -30 -1h1l-2 -2v-7q-1 -3 -1 -10q-2 -17 0 -52
q0 -2 0.5 -6.5t0.5 -7.5q0 -6 -0.5 -18.5t-0.5 -18.5q-2 -19 0 -34q0 -14 5 -24h13h14.5h10.5q5 0 14 -4q4 -3 4 -16q0 -2 -0.5 -4t-0.5 -3v-8q0 -4 -3 -10q-3 -3 -11 -3h-22q-4 0 -13 0.5t-12 0.5q-1 -4 -0.5 -14t1.5 -23v-6q-2 -48 -4 -71q0 -1 -0.5 -5t-0.5 -6
q-2 -27 0 -42q0 -18 -1 -25q-2 -20 0 -29q2 -17 2 -55q0 -13 2 -45v1q2 -24 2 -40q0 -34 -4 -62h20q38 -2 47 -2q0 25 8 31q7 5 24 2q19 -4 22 -26t-5 -35q-8 -19 -58 -16h-7q-11 1 -33 -1q-12 -2 -19 -2q-12 -1 -39 1q-10 1 -45 1q-1 0 -5.5 -0.5t-7.5 -0.5q-41 -2 -50 9
q-14 14 -8 23.5t17.5 13.5t23.5 4h5v13q0 12 -2 17q-2 18 -1 25q0 24 -1 37q-2 35 -1 51q2 52 5 79q0 28 -2 36q-2 29 0 43q4 32 -1 73q-2 24 -2 34q0 26 3 47q2 7 -1 38q-3 29 -2 36q6 52 5 79l-3 36q0 2 -7 0q-3 -1 -11 -1zM183 784l-15 20q-26 39 -32 51q-3 22 8 28
q18 8 27 1q27 -20 37 -55l4 -12v-2q1 -1 1 -2q7 -22 -3 -31q-13 -6 -27 2z" />
    <glyph glyph-name="eacute" unicode="&#xe9;" horiz-adv-x="391" 
d="M61 696h-1q-20 12 -10 33v-1q9 14 32 14h10.5t5.5 1t10 1q26 2 63 2q58 0 84 -1l21 -3q4 -2 9 -2q17 -6 15 -23v-5q0 -2 0.5 -4.5t0.5 -3.5q3 -16 -7 -36q-5 -6 -16 -5t-17 7h1q-9 7 -9 22v3h-45q-2 0 0 -3v-29q0 -3 -0.5 -9.5t-0.5 -8.5v-28q1 -15 -1 -43q-1 -8 1 -22
q1 -6 1 -8q49 3 61 -7v1q15 -17 1 -29t-31 -13l-25 -3h-6q-1 0 -1 -2q-2 -15 -2 -45v-15v-18.5v-16.5q0 -5 0.5 -16.5t0.5 -17.5q0 -27 -1 -41v1q-2 -24 0 -49v-78q0 -3 0.5 -9t0.5 -10q3 -36 3 -73q0 -39 -3 -58q22 0 62 2q3 0 3 10q2 23 17 24q40 0 33 -38q0 -1 -0.5 -4
t-0.5 -4q-1 -10 -2 -15.5t-7 -10.5t-17 -5h-1q-3 0 -13 -2q-3 -1 -10 -1h-74q-44 2 -86 2q-7 0 -23 -0.5t-24 -0.5q-11 0 -17.5 11.5t-3 23.5t16.5 12q2 0 7.5 -0.5t8.5 -0.5h15v8q0 16 5 41q0 1 0.5 5t0.5 6q1 40 -4 94l-2 34q-1 40 2 89q0 3 2 23t2 31q0 12 0.5 37.5
t0.5 37.5q0 13 -0.5 38.5t-0.5 39.5v148q0 10 1 13h-6h-7h-6h-3q-5 0 -14 3zM219 887q28 12 33 -14q1 -16 -17 -34q-3 -3 -12 -24q-17 -32 -24 -37q-11 -8 -19.5 -4.5t-7.5 16.5q2 14 8 24l2 2q1 3 2 8l4 13q10 39 31 50z" />
    <glyph glyph-name="ecircumflex" unicode="&#xea;" horiz-adv-x="373" 
d="M74 694q-15 0 -23 13t-1 27q11 15 50 13h-1q25 -2 106 1q34 2 56 2q16 0 38 -2q7 0 11 -4q4 -3 4 -10q2 -16 2 -28q0 -2 0.5 -5.5t0.5 -6.5q3 -27 -14 -32q-15 -4 -25.5 4t-8.5 26q1 3 1 7q-2 -1 -4 -1q-19 0 -25 1q-24 0 -30 -1h1l-2 -2v-7q-1 -3 -1 -10q-2 -17 0 -52
q0 -2 0.5 -6.5t0.5 -7.5q0 -6 -0.5 -18.5t-0.5 -18.5q-2 -19 0 -34q0 -14 5 -24h13h14.5h10.5q5 0 14 -4q4 -3 4 -16q0 -2 -0.5 -4t-0.5 -3v-8q0 -4 -3 -10q-3 -3 -11 -3h-22q-4 0 -13 0.5t-12 0.5q-1 -4 -0.5 -14t1.5 -23v-6q-2 -48 -4 -71q0 -1 -0.5 -5t-0.5 -6
q-2 -27 0 -42q0 -18 -1 -25q-2 -20 0 -29q2 -17 2 -55q0 -13 2 -45v1q2 -24 2 -40q0 -34 -4 -62h20q38 -2 47 -2q0 25 8 31q7 5 24 2q19 -4 22 -26t-5 -35q-8 -19 -58 -16h-7q-11 1 -33 -1q-12 -2 -19 -2q-12 -1 -39 1q-10 1 -45 1q-1 0 -5.5 -0.5t-7.5 -0.5q-41 -2 -50 9
q-14 14 -8 23.5t17.5 13.5t23.5 4h5v13q0 12 -2 17q-2 18 -1 25q0 24 -1 37q-2 35 -1 51q2 52 5 79q0 28 -2 36q-2 29 0 43q4 32 -1 73q-2 24 -2 34q0 26 3 47q2 7 -1 38q-3 29 -2 36q6 52 5 79l-3 36q0 2 -7 0q-3 -1 -11 -1zM195 906q21 9 50 -20q42 -42 62 -78
q11 -22 -4 -31.5t-32 4.5q-12 12 -25 30l-12 12h1q-3 0 -26.5 -19t-32.5 -21q-30 -11 -48 -11q-24 0 -38 17q-12 20 42 64l4 3v-1l29 25q15 18 30 26z" />
    <glyph glyph-name="edieresis" unicode="&#xeb;" horiz-adv-x="356" 
d="M293 89q16 -4 14 -31q0 -2 -0.5 -6t-0.5 -6q0 -13 -2 -27q0 -6 -5 -11q-4 -4 -11 -4l-53 -2q-3 0 -7 -0.5t-5 -0.5q-10 -1 -27 0q-29 6 -68 4q-3 0 -6.5 -0.5t-5.5 -0.5q-28 -2 -44 -1q-10 2 -16 10t-2 18q4 18 28 20q-1 8 2 36q1 8 1 23v20q0 53 -2 78q0 27 1 35
q0 1 0.5 5t0.5 5q0 10 -2 42q-1 18 1 50q1 9 1 48q-3 51 -2 95q0 5 0.5 21.5t0.5 22.5t-0.5 20t-0.5 22v24q0 2 0.5 8t0.5 10t2 16q0 2 1 6t1.5 6.5t0.5 4.5q-2 5 -4 28q-1 27 -4 29q-1 1 -4 0q-3 0 -8 -0.5t-6 -0.5q-16 2 -16 30q2 20 29 22q45 3 48 3t10 -1t9 -1
q4 -1 22 -1t24 1q4 1 23 -2q3 -1 6 -1t7.5 0.5t6.5 0.5h20q5 -1 16 -1q2 0 4.5 0.5t3.5 0.5q6 2 12 2q8 0 18 -7q3 -3 3 -9q-1 -6 -1 -29q4 -18 -4 -34q-6 -8 -20 -5t-19 12q-3 8 -3 20v3q-22 -2 -31 -2h-11q-4 0 -4 -5q-1 -10 -1 -48q3 -21 3 -51q0 -16 -2 -44q50 0 57 -22
q3 -13 -1.5 -20.5t-16.5 -9t-19.5 -1.5t-21.5 1q-2 0 -4 0.5t-3 0.5q4 0 4 -46q0 -13 2 -41q0 -3 0.5 -9t0.5 -10q0 -16 -2 -52q-3 -67 -4 -80v1q-4 -75 -3 -114v-8q0 -69 10 -96q17 0 20 1q6 1 20 1q1 0 2 -0.5t2 -0.5q0 5 -1 9q-2 16 8.5 23.5t26.5 2.5zM263 876
q39 -3 39 -43q0 -22 -15 -39.5t-39 -13.5q-19 1 -28.5 13.5t-9.5 29.5q0 23 15 39.5t38 13.5zM140 780q-21 0 -31.5 14t-10.5 34q0 21 11 35.5t31 14.5q22 0 33.5 -14t11.5 -34t-12 -35t-33 -15z" />
    <glyph glyph-name="igrave" unicode="&#xec;" horiz-adv-x="273" 
d="M61 716h1q-14 4 -14 23.5t11 26.5q13 5 36 3q1 0 3 -1h1q2 0 7 -0.5t7 -0.5q20 -2 48 -2h9q10 0 19.5 0.5t19 -3t14.5 -12.5q1 -10 3 -15t-5 -8.5t-11 -4t-14 -1.5q1 -14 -3 -29v1q-3 -16 -3 -48q-2 -154 -2 -227v-83q0 -68 5 -151q1 -33 6 -68v-7q0 -4 2 -14
q2 -16 2 -21q0 -7 -2 -13q-1 -3 -1 -5q22 -9 24 -28q4 -17 -2 -21.5t-25 -4.5q-14 0 -28 2q-22 2 -53 2q-7 0 -15 -2q-37 -7 -48 3q-8 7 -5.5 23t12.5 19q1 0 2 1h2q1 1 2 1q-2 0 -2 -1q0 10 1 13q0 8 4 26q3 16 1 36q0 2 -0.5 9t-0.5 10q-1 8 -1 32v32q-1 28 -1 99
q0 54 2 162v134q-1 11 1 36q1 9 1 30q0 7 -2 21q0 2 -0.5 6t-0.5 5q-1 3 -1 13q-2 0 -6 2zM140 787l-15 20q-26 39 -32 51q-3 22 8 28q18 8 27 1q27 -20 37 -55l4 -12q0 -1 1 -4q7 -22 -3 -31q-13 -6 -27 2z" />
    <glyph glyph-name="iacute" unicode="&#xed;" horiz-adv-x="278" 
d="M56 716l1 -1q-10 3 -9.5 25.5t10.5 22.5q26 0 37 -1h-2q60 -3 75 0q1 0 2.5 0.5t2.5 0.5q50 9 57 -15q4 -11 -4 -33q-6 -8 -25 -6q1 -32 -2 -69q0 -42 1 -54v1q2 -18 2 -29q0 -13 -2 -35q-2 -42 -1 -50q0 -1 0.5 -5t0.5 -6q4 -22 3 -36l-3 -36q0 -3 -0.5 -13.5
t-0.5 -14.5q-2 -24 -2 -71t3 -70q1 -22 -1 -62q0 -3 -1 -12t-1 -13q-1 -18 2 -44v1q2 -18 2 -30q8 0 13 -4q7 -4 7 -15v-22q0 -11 -4 -15q-11 -11 -41 -3l-2 1q-1 0 -5.5 0.5t-6.5 0.5q-37 3 -56 0q-15 0 -36 3t-21 8v11q0 2 0.5 7t0.5 7q0 6 4 9q1 0 3 1.5t4 2.5l17 3
q-3 42 -3 92q0 11 0.5 33t0.5 34q0 11 0.5 34.5t0.5 35.5q0 11 -2 35v1q-1 10 -1 45q2 82 2 134v48q0 9 -2 35q-3 27 -3 57q0 2 -0.5 6t-0.5 6q0 5 -0.5 15t-0.5 16q0 20 1 29zM183 893q28 12 33 -14q1 -16 -17 -34q-3 -3 -12 -24q-17 -32 -24 -37q-11 -8 -19.5 -4.5
t-7.5 16.5q2 14 8 24l2 2q1 3 2 8l4 13q10 39 31 50z" />
    <glyph glyph-name="icircumflex" unicode="&#xee;" horiz-adv-x="318" 
d="M89 3q-15 4 -17 28q-1 11 2.5 14t12.5 4q1 0 2 0.5t2 0.5h-1q9 2 9 12v160q0 17 -0.5 52t-0.5 54q-1 18 -2.5 53t-2.5 52q-1 44 7 103q2 9 2 31q0 15 -2 49q0 2 -0.5 5t-0.5 5q-3 16 -3 48v35q-10 3 -23 3q-3 23 -1 41v3q1 3 1 4q6 5 11 5q19 1 43 -2q41 -6 62 -3h3l3 1
q53 8 60 -14q3 -11 -3 -27q-4 -14 -31 -12q0 -3 -0.5 -9t-0.5 -9q-2 -12 -2 -17q0 -28 -1 -40q0 -27 -2 -55q0 -4 -0.5 -14.5t-0.5 -14.5q0 -59 2 -181q0 -56 -4 -162q-2 -26 -2 -79q-1 -9 4 -41q3 -27 3 -33q26 -5 31 -27q1 -14 -10.5 -18t-25.5 -3q-50 0 -75 -4
q-31 -2 -48 2zM154 927q21 9 50 -20q42 -42 62 -78q11 -22 -4 -31.5t-32 4.5q-12 12 -25 30l-12 12h1q-3 0 -26.5 -19t-32.5 -21q-30 -11 -48 -11q-24 0 -38 17q-12 20 42 64l4 3v-1l29 25q15 18 30 26z" />
    <glyph glyph-name="idieresis" unicode="&#xef;" horiz-adv-x="301" 
d="M61 716h1q-14 4 -14 23.5t11 26.5q13 5 36 3q1 0 3 -1h1q2 0 7 -0.5t7 -0.5q20 -2 48 -2h9q10 0 19.5 0.5t19 -3t14.5 -12.5q1 -10 3 -15t-5 -8.5t-11 -4t-14 -1.5q1 -14 -3 -29v1q-3 -16 -3 -48q-2 -154 -2 -227v-83q0 -68 5 -151q1 -33 6 -68v-7q0 -4 2 -14
q2 -16 2 -21q0 -7 -2 -13q-1 -3 -1 -5q22 -9 24 -28q4 -17 -2 -21.5t-25 -4.5q-14 0 -28 2q-22 2 -53 2q-7 0 -15 -2q-37 -7 -48 3q-8 7 -5.5 23t12.5 19q1 0 2 1h2q1 1 2 1q-2 0 -2 -1q0 10 1 13q0 8 4 26q3 16 1 36q0 2 -0.5 9t-0.5 10q-1 8 -1 32v32q-1 28 -1 99
q0 54 2 162v134q-1 11 1 36q1 9 1 30q0 7 -2 21q0 2 -0.5 6t-0.5 5q-1 3 -1 13q-2 0 -6 2zM215 899q39 -3 39 -43q0 -22 -15 -39.5t-39 -13.5q-19 1 -28.5 13.5t-9.5 29.5q0 23 15 39.5t38 13.5zM92 803q-21 0 -31.5 14t-10.5 34q0 21 11 35.5t31 14.5q22 0 33.5 -14
t11.5 -34t-12 -35t-33 -15z" />
    <glyph glyph-name="eth" unicode="&#xf0;" horiz-adv-x="404" 
d="M62 342q-12 8 -8.5 27t15.5 22q6 0 9 -2h7v77q0 52 -2 78q0 4 -0.5 14.5t-0.5 15.5l-3 75q0 24 1 37q-4 0 -8 1q-10 2 -14 2q-7 0 -9 14.5t-1 21.5q6 26 68 6h3l10 -3q4 -1 19 -4t28.5 -7t20.5 -8q11 -6 29 -22l11 -12q35 -33 73 -95q34 -56 44 -135q3 -21 3 -49
q0 -41 -5 -84q0 -1 -0.5 -6t-0.5 -7q-7 -69 -38 -123l-28 -56q-7 -14 -29 -38h1l-10 -13q-14 -16 -53 -42q-13 -7 -46 -15.5t-66.5 -8.5t-33.5 19q0 33 34 31q-2 16 -2 48q0 9 0.5 24.5t0.5 23.5q1 16 1 46q0 39 1 58q0 12 1 39.5t1 41.5q-12 0 -23 8zM243 605
q-11 13 -29 28v-16q0 -8 -2 -16v1q-2 -10 -2 -19q1 -9 1 -33q0 -28 -1 -41q0 -5 3 -35q2 -30 2 -41q0 -13 -1 -18l-3 -28q11 -1 23 2q9 1 16 -1t12 -10.5t2 -23.5q-5 -25 -41 -17q-3 2 -6 2h-4v-25q0 -5 0.5 -15t0.5 -14q1 -25 -3 -70q-1 -11 1 -31q2 -12 2 -26
q0 -6 0.5 -18t0.5 -17q0 -7 -0.5 -11t-0.5 -9q40 38 69 108l7 27q0 2 1 5t1 4q4 14 6 20l7 19v-1q2 9 2 29q0 24 2 34q5 21 0 50l-1 16l-3 24l-7 44v-1q-12 45 -26 66q-1 2 -3.5 6t-4 7.5t-2.5 6.5q-12 28 -19 38z" />
    <glyph glyph-name="ntilde" unicode="&#xf1;" horiz-adv-x="438" 
d="M328 752h18q20 2 34 -4q9 -6 10 -8v-8q2 -27 -16 -27q-11 0 -14 1q0 -4 -0.5 -8.5t-1.5 -10t-1 -8.5q-2 -8 -2 -9q-5 -28 -5 -50q0 -14 2 -30q3 -20 3 -42q0 -14 -2 -40v-84q0 -14 -2 -36v1q-2 -31 -1 -44q0 -30 -1 -44v2q-1 -25 0 -50v1q2 -18 2 -53v-31q1 -15 1 -48
q0 -27 -1 -39q0 -1 -1 -4v-3q-2 -15 0 -20q7 -18 -5 -31q-22 -20 -37 -5q-9 8 -13 22q-31 112 -54 274q-12 69 -16 86l-19 81v-14q0 -23 -3 -43q-6 -44 -6 -67q0 -10 1.5 -28t1.5 -22q0 -2 0.5 -6.5t0.5 -6.5q1 -26 -1 -74q0 -3 -1.5 -23.5t-1.5 -30.5q0 -11 2 -31t2 -27
q3 -25 3 -53q18 0 28.5 -8.5t2.5 -27.5q-9 -23 -54 -21h-47q-9 -1 -29 1q-6 1 -19 1q-24 -2 -35 15q-6 16 -2 27q1 8 9.5 9.5t16.5 -0.5q0 29 3 57q1 11 -1 34q-2 14 -2 29q2 52 2 77q0 13 -0.5 39.5t-0.5 40.5q0 26 -1 41q-1 20 -1 63t3 62q2 25 0 49q-1 12 -1 39
q2 55 1 81q0 6 -2 18q-9 37 5 50q7 9 27 11h13q5 0 8 1q50 0 58 -8q6 -6 15 -28q0 -1 1 -3q6 -15 9 -36l5 -24l7 -29q8 -34 9 -53q1 -13 10 -34l7 -30q4 -27 13 -55l5 -23l22 -113q3 -20 7 -53q8 -55 11 -68q2 25 2 75q0 17 -3 32q0 1 -0.5 3t-0.5 3q-2 14 0 30q1 4 1 20
q-2 32 -2 50q0 25 3 44q4 28 3 45v2l-1 2q-2 19 0 31q3 15 -1 42q-2 24 -2 35q0 14 4 36q4 26 3 45v8v5v6v5q-2 -1 -14 -1h-14q-6 22 -6 41q13 4 27 4h11q2 0 5.5 0.5t5.5 0.5zM163 893q37 6 72 -10l5 -4l11.5 -9t9.5 -8q21 -19 39 -25q13 -5 21 10q18 30 37 15
q20 -14 0.5 -43t-39.5 -39q-31 -15 -64 -6q-10 2 -39 22v-1l-14 11q-12 5 -29 15q-20 7 -30 -3l-3 -8q-3 -16 -16 -20q-10 -1 -16.5 8t-6.5 18q0 13 12 32l8 11q19 30 42 34z" />
    <glyph glyph-name="ograve" unicode="&#xf2;" horiz-adv-x="362" 
d="M297 161l-9 -44q-2 -8 -2 -11q-5 -19 -17 -51q-27 -60 -77 -55q-23 2 -48.5 19t-37.5 36l-6 11v-1q-19 29 -30 80q0 2 -1 9.5t-2 12.5q-7 35 -11 63q-9 57 -9 136q0 31 1 47q2 72 23 185q10 39 30 81l-1 -1l3 6q8 19 49 56q5 4 11.5 6t11.5 2.5t12.5 -1.5l11.5 -3t12 -4
t10 -4l24 -14q3 -3 7.5 -12t6.5 -12l8 -13v1q7 -12 17 -46q8 -36 10 -41l10 -41l3 -15q9 -77 9 -155q0 -112 -18 -218v-1q-1 -1 -1 -2v-6zM241 622l-5 16q-7 26 -10 31q-5 13 -17 21l-7 -6q-11 -13 -18 -59q0 -1 -0.5 -2.5t-0.5 -2.5q-2 -26 -9 -56l-4 -24q-7 -53 -7 -133
v-34q0 -14 2 -42q0 -2 1.5 -18t1.5 -25v-15q0 -40 4 -55q4 -18 2 -44q-1 -10 2 -26l1 -2q1 -3 1 -4l3 -15q9 -54 13 -63q6 -15 11 -15q12 10 19 21q7 14 18 56l3 15q18 88 22 148q3 48 2 88q-1 0 -1 29l1 28v27q-2 24 -6 46q0 3 -3.5 14t-3.5 26q-3 28 -11 57l-4 19v-1z
M186 776l-15 20q-26 39 -32 51q-3 22 8 28q18 8 27 1q27 -20 37 -55l4 -12q0 -1 0.5 -2t0.5 -2q7 -22 -3 -31q-13 -6 -27 2z" />
    <glyph glyph-name="oacute" unicode="&#xf3;" horiz-adv-x="362" 
d="M48 494q-1 13 1 40q0 4 2 14t2 13q-1 11 6 43q0 1 1 4l1 4l16 52l3 9q11 29 22 40q16 18 54 27t60 1h-1q38 -15 64 -82q8 -15 12 -44q1 -3 2 -9.5t2 -11.5t2 -9q3 -13 3 -49v-23q0 -8 1.5 -17t4 -20t3.5 -18q5 -28 5 -32q2 -26 2 -39q0 -7 -0.5 -20.5t-0.5 -19.5
q0 -102 -3 -155q-6 -94 -39 -148q-30 -44 -80 -44q-24 0 -42 14q-26 20 -47.5 54t-27.5 66l-5 21q-17 77 -20 171q0 11 -2 35q0 9 -1 26.5t-1 26.5q0 21 1 30v-1q2 25 0 51zM237 643l-6 14q-14 33 -25 35q-4 1 -9 -1l-7 -2h2q-13 -6 -16 -11q-4 -10 -9 -39q-3 -23 -3 -47
q0 -14 -2 -40q-1 -9 -1 -30q0 -31 -2 -46q-2 -18 0 -46v-35q0 -18 2 -50q0 -4 0.5 -12t0.5 -13l3 -32q4 -34 4 -51q0 -4 -0.5 -14.5t-0.5 -15.5q-1 -25 0 -50q0 -1 0.5 -4t0.5 -5q1 -15 3 -29t5.5 -33.5t10 -29.5t15.5 -8q22 5 39 45l5 24l15 44q4 14 4 41q0 24 1 33
q2 20 0 57q-1 6 -1 24q0 24 3 43q4 31 3 45q-1 21 -7 59l-4 22l-4 20q-6 46 -8 66q-2 53 -12 72zM216 878q28 12 33 -14q1 -16 -17 -34q-3 -3 -12 -24q-17 -32 -24 -37q-11 -8 -19.5 -4.5t-7.5 16.5q2 14 8 24l1 3q2 2 3 7l4 13q10 39 31 50z" />
    <glyph glyph-name="ocircumflex" unicode="&#xf4;" horiz-adv-x="360" 
d="M288 682q25 -75 22 -118q-1 -9 1 -20q2 -6 2 -17q1 -15 1 -50q0 -31 -2 -97l-3 -82q0 -13 -2 -27v1q-1 -11 -1 -52q5 -62 -24 -145q-39 -93 -117 -72q-35 9 -65 48.5t-34 74.5l-2 15q-15 97 -16 143q-1 73 7 162q6 69 22 144q0 2 1 5.5t1 4.5l3 15q11 45 21 64l3 7
q5 13 21 28t31 23q10 6 39 6t55 -17.5t36 -43.5zM267 365l3 83q1 14 1 44q0 20 -1 29l-4 25l-3 18l-2 21v-1q-3 24 -4.5 33t-6.5 29t-13.5 30t-20.5 15q-21 7 -24 1q-5 -9 -9 -27q-1 -5 -7 -49q0 -18 -1 -24q-8 -87 -11 -168q-1 -14 -1 -44q0 -40 1 -60t1 -59q0 -5 -0.5 -13
t-0.5 -12q0 -7 -0.5 -23t-0.5 -25q0 -51 6 -85q7 -41 23 -48q4 -2 8 -2l7 -3q15 10 22 22q15 25 25 100q9 71 10 125zM188 888q21 9 50 -20q42 -42 62 -78q11 -22 -4 -31.5t-32 4.5q-12 12 -25 30l-12 12h1q-3 0 -26.5 -19t-32.5 -21q-30 -11 -48 -11q-24 0 -38 17
q-12 20 42 64l4 3v-1l29 25q15 18 30 26z" />
    <glyph glyph-name="otilde" unicode="&#xf5;" horiz-adv-x="384" 
d="M297 161l-9 -44q-2 -8 -2 -11q-5 -19 -17 -51q-27 -60 -77 -55q-23 2 -48.5 19t-37.5 36l-6 11v-1q-19 29 -30 80q0 2 -1 9.5t-2 12.5q-7 35 -11 63q-9 57 -9 136q0 31 1 47q2 72 23 185q10 39 30 81l-1 -1l3 6q8 19 49 56q5 4 11.5 6t11.5 2.5t12.5 -1.5l11.5 -3t12 -4
t10 -4l24 -14q3 -3 7.5 -12t6.5 -12l8 -13v1q7 -12 17 -46q8 -36 10 -41l10 -41l3 -15q9 -77 9 -155q0 -112 -18 -218v-1q-1 -1 -1 -2v-6zM241 622l-5 16q-7 26 -10 31q-5 13 -17 21l-7 -6q-11 -13 -18 -59q0 -1 -0.5 -2.5t-0.5 -2.5q-2 -26 -9 -56l-4 -24q-7 -53 -7 -133
v-34q0 -14 2 -42q0 -2 1.5 -18t1.5 -25v-15q0 -40 4 -55q4 -18 2 -44q-1 -10 2 -26l1 -2q1 -3 1 -4l3 -15q9 -54 13 -63q6 -15 11 -15q12 10 19 21q7 14 18 56l3 15q18 88 22 148q3 48 2 88q-1 0 -1 29l1 28v27q-2 24 -6 46q0 3 -3.5 14t-3.5 26q-3 28 -11 57l-4 19v-1z
M134 907q37 6 72 -10l5 -4l11.5 -9t9.5 -8q21 -19 39 -25q13 -5 21 10q18 30 37 15q20 -14 0.5 -43t-39.5 -39q-31 -15 -64 -6q-10 2 -39 22v-1l-14 11q-12 5 -29 15q-20 7 -30 -3l-3 -8q-3 -16 -16 -20q-10 -1 -16.5 8t-6.5 18q0 13 12 32l8 11q19 30 42 34z" />
    <glyph glyph-name="odieresis" unicode="&#xf6;" horiz-adv-x="362" 
d="M48 494q-1 13 1 40q0 4 2 14t2 13q-1 11 6 43q0 1 1 4l1 4l16 52l3 9q11 29 22 40q16 18 54 27t60 1h-1q38 -15 64 -82q8 -15 12 -44q1 -3 2 -9.5t2 -11.5t2 -9q3 -13 3 -49v-23q0 -8 1.5 -17t4 -20t3.5 -18q5 -28 5 -32q2 -26 2 -39q0 -7 -0.5 -20.5t-0.5 -19.5
q0 -102 -3 -155q-6 -94 -39 -148q-30 -44 -80 -44q-24 0 -42 14q-26 20 -47.5 54t-27.5 66l-5 21q-17 77 -20 171q0 11 -2 35q0 9 -1 26.5t-1 26.5q0 21 1 30v-1q2 25 0 51zM237 643l-6 14q-14 33 -25 35q-4 1 -9 -1l-7 -2h2q-13 -6 -16 -11q-4 -10 -9 -39q-3 -23 -3 -47
q0 -14 -2 -40q-1 -9 -1 -30q0 -31 -2 -46q-2 -18 0 -46v-35q0 -18 2 -50q0 -4 0.5 -12t0.5 -13l3 -32q4 -34 4 -51q0 -4 -0.5 -14.5t-0.5 -15.5q-1 -25 0 -50q0 -1 0.5 -4t0.5 -5q1 -15 3 -29t5.5 -33.5t10 -29.5t15.5 -8q22 5 39 45l5 24l15 44q4 14 4 41q0 24 1 33
q2 20 0 57q-1 6 -1 24q0 24 3 43q4 31 3 45q-1 21 -7 59l-4 22l-4 20q-6 46 -8 66q-2 53 -12 72zM258 864q39 -3 39 -43q0 -22 -15 -39.5t-39 -13.5q-19 1 -28.5 13.5t-9.5 29.5q0 23 15 39.5t38 13.5zM135 768q-21 0 -31.5 14t-10.5 34q0 21 11 35.5t31 14.5q22 0 33.5 -14
t11.5 -34t-12 -35t-33 -15z" />
    <glyph glyph-name="divide" unicode="&#xf7;" horiz-adv-x="379" 
d="M218 498q0 -17 -10 -27t-24 -10t-23.5 10t-9.5 27q0 15 9.5 23t23.5 8t24 -8t10 -23zM218 324q0 -18 -10 -27.5t-24 -9.5t-23.5 9.5t-9.5 27.5q0 30 33 30q14 0 24 -7.5t10 -22.5zM60 393q-16 8 -11.5 24.5t21.5 19.5q8 0 12 -2q10 0 27 0.5t25 0.5h91q2 0 7.5 -0.5
t8.5 -0.5q28 -4 50 0q18 1 31.5 -5.5t8.5 -25.5q-7 -23 -55 -15q-4 1 -9 1q-12 1 -39 -1h1q-11 -1 -34 -1q-6 0 -17.5 -0.5t-17.5 -0.5q-12 -1 -38 -1h-11q-36 0 -51 7z" />
    <glyph glyph-name="oslash" unicode="&#xf8;" horiz-adv-x="376" 
d="M197 743q35 0 65 -25q6 51 28 65q18 13 26.5 3t10.5 -20.5t1 -21.5q-13 -61 -20 -83q-6 -17 -7 -21q11 -45 9 -76q-1 -9 1 -20q2 -6 2 -17q1 -15 1 -50q0 -31 -2 -97l-3 -82q0 -13 -2 -27v1q-1 -11 -1 -52q5 -62 -24 -145q-39 -93 -117 -72q-18 4 -36 19l-1 -7
q-4 -41 -16 -58q-14 -22 -30 -16t-17 30q-3 34 19 103q-17 30 -18 52l-2 15q-15 97 -16 143q-1 73 7 162q6 69 22 144q0 2 1 5.5t1 4.5l3 15q11 45 21 64l3 7q5 13 21 28t31 23q10 6 39 6zM267 365l3 83q1 14 1 44q0 15 -1 24q-21 -75 -35 -117q-36 -104 -48 -184
q-5 -27 -23 -78q1 -13 5 -34q7 -41 23 -48q4 -2 8 -2l7 -3q15 10 22 22q15 25 25 100q9 71 10 125zM163 380v-30q13 38 13 42l4 22q2 23 5 32q0 10 5 17q-1 0 1 5l5 12.5t5 11.5q0 2 1 5v3q1 20 10 36v-1q0 1 14 50q1 3 3.5 12.5t7.5 25.5l10 33q-12 27 -31 35q-21 7 -24 1
q-5 -9 -9 -27q-1 -5 -7 -49q0 -18 -1 -24q-8 -87 -11 -168q-1 -14 -1 -44z" />
    <glyph glyph-name="ugrave" unicode="&#xf9;" 
d="M92 197q0 7 -4 25q-4 16 -4 37v46q-1 5 -1 21q-1 10 -1 35q0 15 1 44t1 43q1 12 1 38q0 30 -2 94q-1 18 1 58v39v23q-29 -2 -35 10q-8 24 10 34q7 5 39 7q1 0 4 0.5t4 0.5q7 1 21 -1q10 -2 16 -1h3l2 1q14 4 42.5 1t33.5 -16q7 -21 0 -32q-8 -12 -27 -6v-14v-23l3 -84
q0 -26 -3 -41l-3 -42v-176q0 -4 -0.5 -12.5t-0.5 -12.5q-2 -36 3 -58q4 -12 4 -32q0 -21 -3 -38q0 -1 -0.5 -3t-0.5 -3q-1 -24 16 -79l-2 3q-1 1 2 -3q1 -2 1 -3q12 -28 25 -28q25 7 35 44q12 50 17 76q3 15 3 45q0 24 3 41q3 21 3 42t-1 31q0 39 1 48q2 28 2 42t-1 21
q-2 42 0 58q5 22 1 50v-1q-1 12 -1 35q1 19 1 62v19q0 11 -1 19h-3q-19 8 -21 29q-1 18 17.5 23t32.5 0l2 -1h2h6q30 0 37 -9q11 -17 5 -31l1 1q-4 -12 -28 -9h-4h-1v-4v-3q-1 -3 -1 -4q-2 -3 -2 -7q0 -3 3 -18t3 -20q0 -9 -2 -21q-1 -6 -1 -17q0 -35 1 -51q0 -5 0.5 -13.5
t0.5 -12.5q1 -48 -2 -108q0 -9 -1.5 -33t-1.5 -34q-1 -74 -8 -175q-6 -106 -57 -146q-20 -17 -44 -17q-25 0 -55.5 15t-41.5 34q-29 42 -33 78l-5 24q-7 35 -7 46zM240 791l-15 20q-26 39 -32 51q-3 22 8 28q18 8 27 1q27 -20 37 -55l4 -12l1 -2v-2q7 -22 -3 -31
q-13 -6 -27 2z" />
    <glyph glyph-name="uacute" unicode="&#xfa;" horiz-adv-x="426" 
d="M54 735q7 11 43 11h26h24q17 7 46.5 1t33.5 -28v-4.5v-5t-0.5 -5t-2 -5.5t-4.5 -4t-7 -4q-2 -1 -12 1h-3q-2 1 -3 1v-8q0 -10 4 -32q4 -38 1 -58q-7 -49 -7 -100q0 -39 3 -70q7 -43 5 -87q0 -3 -0.5 -14.5t-0.5 -15.5q0 -14 2 -42v1q2 -20 2 -63q0 -61 6 -99q2 -15 7 -27
l5 -15l7 -14q13 -4 32 27q19 37 27 111q6 45 6 47q5 24 5 60q0 22 -2 56q-2 26 -2 46q0 29 -2 87v-1q-2 19 0 60q0 1 0.5 7t0.5 9v55q0 17 -1 25q-7 33 -6 62q-12 -2 -18 7q-5 8 -3 23q3 19 47 12h5q3 -1 16 1q40 9 44 -19q2 -22 -11 -26.5t-28 1.5q2 -26 2 -38
q0 -16 -2 -52q-2 -42 -1 -64q2 -119 8 -178q0 -7 0.5 -19t0.5 -18q0 -23 -2 -53q-3 -15 -3 -33q0 -23 -3 -44q-3 -16 -11 -48l-10 -34q-2 -9 -4 -23q-2 -35 -11 -49q-27 -36 -61 -45q-14 -3 -42.5 3.5t-38.5 15.5q-19 15 -35 48l-6 12q-18 33 -25 73q-2 9 -5 41
q0 4 -0.5 13.5t-1 16.5t-1.5 12q0 3 -2 11q-4 42 -3 68q0 13 -2 41q-2 30 -1 43q1 26 -3 78q-3 48 5 92q3 18 1 37q0 36 1 41q0 1 0.5 2.5t0.5 2.5q2 24 1 31q0 3 -1 5l-2 7h-8q-17 0 -24 10q-7 12 4 30zM268 887q28 12 33 -14q1 -16 -17 -34q-3 -3 -12 -24q-17 -32 -24 -37
q-11 -8 -19.5 -4.5t-7.5 16.5q2 14 8 24l1 2q2 3 3 8l4 13q10 39 31 50z" />
    <glyph glyph-name="ucircumflex" unicode="&#xfb;" horiz-adv-x="410" 
d="M80 304q0 10 -1 15q-4 18 -3 28q0 4 2 18q1 6 1 30q-2 14 -2 45q0 17 2 57q1 19 1 63q0 32 -1 47v-1q-2 14 -4 53l3 24q2 6 2 8q-18 4 -28.5 16t-0.5 29q7 11 47 6q4 -1 6 -1q28 0 43 2l12 1h13q51 12 58 -18q5 -34 -35 -36q1 -30 1 -87q1 -29 -1 -88q-1 -16 1 -48v2
q1 -11 1 -31v-165q2 -17 2 -55q0 -67 7 -109l2 -14q6 -37 18 -50l17 8q9 6 14 23q6 11 12 45l7 33q8 31 14 76q2 24 2 42q0 31 2 44q1 11 1 33q0 27 -2 41q-5 48 -5 87q0 7 0.5 19.5t0.5 19.5q0 8 0.5 22.5t0.5 22.5q2 57 1 85q-2 28 -2 50q-33 -2 -35 14q-2 21 7 33
q8 11 27 3l-1 1q7 -2 22 -2q2 0 16 2h-1q17 4 29 2q10 -5 8 -23.5t-8 -24.5q-4 -5 -16 -5q0 -19 -1 -29v1q-1 -15 -1 -43v-34q-1 -22 2 -48q2 -18 2 -30q0 -26 -1 -38v1q-2 -32 -1 -47q1 -23 0 -42q-2 -27 0 -40q0 -2 0.5 -6t0.5 -5q4 -51 1 -78q-1 -6 -1 -17q-2 -45 -8 -60
q-7 -23 -10 -51q-6 -67 -29 -92l-6 -8v1l-17 -17v1q-7 -7 -18 -9q-1 0 -2.5 -0.5t-2.5 -0.5q-41 -9 -63 3q-27 16 -49 48t-28 64v-1l-6 25q-15 57 -19 160zM217 908q21 9 50 -20q42 -42 62 -78q11 -22 -4 -31.5t-32 4.5q-12 12 -25 30l-12 12h1q-3 0 -26.5 -19t-32.5 -21
q-30 -11 -48 -11q-24 0 -38 17q-12 20 42 64l4 3v-1l29 25q15 18 30 26z" />
    <glyph glyph-name="udieresis" unicode="&#xfc;" 
d="M92 197q0 7 -4 25q-4 16 -4 37v46q-1 5 -1 21q-1 10 -1 35q0 15 1 44t1 43q1 12 1 38q0 30 -2 94q-1 18 1 58v39v23q-29 -2 -35 10q-8 24 10 34q7 5 39 7q1 0 4 0.5t4 0.5q7 1 21 -1q10 -2 16 -1h3l2 1q14 4 42.5 1t33.5 -16q7 -21 0 -32q-8 -12 -27 -6v-14v-23l3 -84
q0 -26 -3 -41l-3 -42v-176q0 -4 -0.5 -12.5t-0.5 -12.5q-2 -36 3 -58q4 -12 4 -32q0 -21 -3 -38q0 -1 -0.5 -3t-0.5 -3q-1 -24 16 -79l-2 3q-1 1 2 -3q1 -2 1 -3q12 -28 25 -28q25 7 35 44q12 50 17 76q3 15 3 45q0 24 3 41q3 21 3 42t-1 31q0 39 1 48q2 28 2 42t-1 21
q-2 42 0 58q5 22 1 50v-1q-1 12 -1 35q1 19 1 62v19q0 11 -1 19h-3q-19 8 -21 29q-1 18 17.5 23t32.5 0l2 -1h2h6q30 0 37 -9q11 -17 5 -31l1 1q-4 -12 -28 -9h-4h-1v-4v-3q-1 -3 -1 -4q-2 -3 -2 -7q0 -3 3 -18t3 -20q0 -9 -2 -21q-1 -6 -1 -17q0 -35 1 -51q0 -5 0.5 -13.5
t0.5 -12.5q1 -48 -2 -108q0 -9 -1.5 -33t-1.5 -34q-1 -74 -8 -175q-6 -106 -57 -146q-20 -17 -44 -17q-25 0 -55.5 15t-41.5 34q-29 42 -33 78l-5 24q-7 35 -7 46zM292 883q39 -3 39 -43q0 -22 -15 -39.5t-39 -13.5q-19 1 -28.5 13.5t-9.5 29.5q0 23 15 39.5t38 13.5z
M169 787q-21 0 -31.5 14t-10.5 34q0 21 11 35.5t31 14.5q22 0 33.5 -14t11.5 -34t-12 -35t-33 -15z" />
    <glyph glyph-name="yacute" unicode="&#xfd;" horiz-adv-x="414" 
d="M258 719q-1 12 7 18.5t22 5.5h7q64 -2 70 -21q3 -8 -3 -20q-6 -14 -31 -9h-2q-2 -7 -15 -42q-3 -8 -7 -13q-3 -3 -9 -18l-5 -21l-5 -22q-8 -27 -20 -47q-10 -15 -10 -40q0 -14 4 -42q3 -35 2 -68q-4 -42 -4 -59l3 -45v1q2 -22 0 -65q-2 -41 -1 -52q2 -44 2 -65
q0 -8 -0.5 -20.5t-0.5 -19.5q14 -1 20.5 -7t8.5 -22q2 -20 -6 -24t-29 -1q-44 4 -66 2q-3 0 -4 -1q-14 -6 -42.5 -2.5t-31.5 21.5q-2 27 23 29h9q1 0 3 0.5t3 0.5v7q1 13 -1 40q-1 11 -1 33q0 60 4 170q1 14 1 39q0 36 -1 53q-1 24 -1 69q2 55 -5 75q-4 8 -9 30l-6 21
q-12 33 -18 42q-2 4 -7.5 16t-7.5 17q-2 3 -6 11l-6 17h-3q-15 0 -23 4q-19 10 -10.5 27t26.5 19q11 1 43 1h73h20q16 0 16 -22q1 -24 -26 -26l8 -27q3 -11 8 -26l-1 1l11 -23l11 -24l4 4l15 38q13 22 18 42l4 10q-21 1 -22 30zM252 878q28 12 33 -14q1 -16 -17 -34
q-3 -3 -12 -24q-17 -32 -24 -37q-11 -8 -19.5 -4.5t-7.5 16.5q2 14 8 24l1 3q2 2 3 7l4 13q10 39 31 50z" />
    <glyph glyph-name="thorn" unicode="&#xfe;" horiz-adv-x="325" 
d="M208 701q-6 -2 -20 -2q1 -11 1 -32q0 -20 -2 -21q42 -13 67.5 -58.5t22.5 -86.5q-10 -58 -21 -97q-18 -38 -70 -58q1 0 1 -1q2 -11 1 -14v1q-2 -13 0 -26q0 -10 2 -36q0 -3 0.5 -10t0.5 -11q1 -5 -2 -36q-1 -6 -1 -19q-1 -10 -1 -29v-23q-1 -22 2 -45q4 -20 0 -47
q13 -3 20.5 -14t0.5 -23q-8 -15 -29 -10q-1 0 -3 1l-4 2q-10 -4 -60 -4q-15 0 -18 -1q-12 -3 -29 1h2q-23 5 -25 32q0 10 2 12t10 3q2 0 3 1h-1q5 3 18 3q0 -3 1 -4v4h2h-2l3 16q5 23 4 29q0 29 -5 62q-2 15 0 49q0 1 0.5 6t0.5 8q2 42 2 63q0 42 1 62q0 75 -1 94
q0 4 -0.5 14t-0.5 16q0 54 -5 124q-1 16 1 53q2 32 1 47q-28 0 -34 13q-4 15 0 25q9 23 52 12l1 1q1 1 2 1q7 1 55 1q14 0 18 1q10 3 27 -1h-1q14 -3 19 -10.5t6 -22.5q0 -9 -2 -11t-11 -3h-1q-1 -1 -2 -1h1zM77 53h-1h1zM96 747q1 1 3 1zM184 497q3 -40 4 -52q1 -10 3 -21
t2 -17q38 40 38 101q0 65 -42 92q0 -28 -3 -55v1q-2 -28 -2 -49z" />
    <glyph glyph-name="ydieresis" unicode="&#xff;" 
d="M288 698q-14 -4 -18 8.5t1 22.5q6 15 54 12q2 0 5 -0.5t4 -0.5q2 0 4 1q34 2 40 -7q4 -6 1 -19q-4 -22 -25 -22h-3q-2 -6 -3 -8q-2 -9 -33 -56l1 1q0 -1 -1 -2t-2 -2.5t-2 -2.5q-13 -25 -19 -38l-15 -25l-16 -30h1q-8 -15 -5 -30q2 -26 2 -37q0 -6 -0.5 -18t-0.5 -17
q0 -30 -3 -60q-4 -64 -2 -95v1q1 -26 1 -79q0 -25 2 -67q2 -31 -1 -56q0 -2 -0.5 -5t-0.5 -4t-1 -4.5t-1 -5.5l-1 -2q0 -2 6 -2q13 1 22 -0.5t17 -8.5t8 -21q0 -19 -47 -16q-1 0 -2.5 0.5t-2.5 0.5q-11 0 -29 -2q-38 -3 -64 -1q-24 2 -28 19q-4 18 4 26l15 3h7v7q0 13 1 19
q0 3 0.5 9t0.5 8q0 20 -1 31q-2 29 0 41q2 11 -1 27q0 1 -1 3.5t-1 4.5q-2 16 0 32q0 1 1 3t1 3q0 20 -2 32q-1 20 0 42q2 10 2 35q0 30 2 44q3 27 -1 67q0 1 -0.5 5.5t-0.5 7.5q-2 10 1 43q-2 15 -10 30l-6 16q-16 30 -22 50l1 -1q-2 6 -8.5 17.5t-8.5 17.5q-10 17 -17 36
l1 -1l-6 20q0 -2 -1 -2h-6q-20 0 -26 15q-2 17 0 26q4 12 22 10h5q11 0 15 -1q50 -5 79 -2q1 0 3 0.5t3 0.5q48 10 51 -18q0 -15 -1 -17q-8 -18 -30 -18q9 -26 21 -46q10 -20 22 -50l27 42q15 35 32 61q-6 0 -10 -1zM281 866q39 -3 39 -43q0 -22 -15 -39.5t-39 -13.5
q-19 1 -28.5 13.5t-9.5 29.5q0 23 15 39.5t38 13.5zM158 770q-21 0 -31.5 14t-10.5 34q0 21 11 35.5t31 14.5q22 0 33.5 -14t11.5 -34t-12 -35t-33 -15z" />
    <glyph glyph-name="Amacron" unicode="&#x100;" horiz-adv-x="479" 
d="M181 1q-26 -2 -63 1q-16 2 -20 2l-7 -2q-31 -4 -40 5q-4 7 -4 18.5t3 18.5q4 7 20 7h7q4 0 5 7q0 4 1 11t1 10q2 23 5 32q9 29 9 52q0 40 13 96l6 21q8 54 11 79l3 29q2 33 6 46q15 74 20 164l6 60l3 28q0 2 0.5 5t0.5 4q5 45 28 56q18 8 43 6q26 0 34 -2q6 3 15 -1
q18 -8 18 -44v-10l23 -154q18 -107 25 -169q2 -24 8 -53l2 -14v1l7 -37v-6q0 -1 1 -2q0 -1 1 -5v-4q3 -13 2 -15q0 -7 2 -17q0 -1 0.5 -4t0.5 -4q6 -36 14 -92q0 -5 9 -65q11 2 18.5 1.5t11 -8t1.5 -22.5q-3 -15 -12 -21q-8 -5 -22 -1l-3 1q-2 0 -5.5 -0.5t-5.5 -0.5h-9
q-1 0 -4 -0.5t-5 -0.5q-34 -2 -38 2q-8 9 -3 26q2 14 7 22h-1q3 4 6 6t4.5 2t5 -1.5t4.5 -1.5l-10 68l-3 32q-5 42 -8 55l-2 13l-6 25l-20 -3l-16 -2l-42 -2q-2 0 -6 0.5t-5 -0.5q-1 -2 -1 -8q-13 -54 -15 -90q0 -4 -3 -22q-2 -14 -2 -22q0 -28 -3 -41l-2 -6t-2 -7
q1 0 2.5 -1t2.5 -1t3 -0.5l2 -0.5q14 -3 14 -24q0 -13 -6 -18.5t-12 -6.5t-18 0h-11zM300 435q-3 42 -17 121q-1 7 -1.5 6.5t0.5 -1.5q0 -3 -1 0q0 2 -1 6l-6 -31q-2 -10 -4 -28.5t-2 -21.5q-3 -32 -4 -36q0 -4 -2.5 -13.5t-3.5 -14.5q-5 -33 -10 -57q-2 -17 -4 -23
q-9 -27 -10 -48q30 2 46 6l34 7l1 1h2q3 0 2 3q-13 54 -19 124zM277 825q11 -1 38 3q30 4 43 2h6q25 0 31 -15l-1 1q8 -20 -9 -29h1q-13 -9 -31 -1q-2 0 -5 5q-7 0 -19 -3h1q-3 -1 -15 -1h-17q-14 0 -21 -1l-43 -3q-8 0 -29 3q-36 4 -49 -1q-26 -13 -42 19q-5 8 9 19l-2 -1
q8 13 33 8h4q2 0 5.5 -0.5t4.5 -0.5h28q54 -2 79 -4zM352 789q-1 0 -1 2h-1z" />
    <glyph glyph-name="amacron" unicode="&#x101;" horiz-adv-x="480" 
d="M74 1q-22 4 -25 25q-3 4 -0.5 14t11.5 10h18l2 16q3 24 9 45q12 39 14 96q0 23 3 42l4 20q2 7 4 23q6 62 11 94q1 5 5 22q4 12 5 23q4 11 4 21q0 14 1 21l6 25l3 19q2 10 2 30v9q0 14 4 42l6 42q0 12 6 32q7 28 6 35q-2 36 23 39l11 2q54 9 78 0q14 -6 16 -32q0 -7 2 -11
q5 -22 12 -80q1 -9 1 -27q0 -17 3 -35l9 -57l6 -30l9 -82q5 -36 19 -108v1q7 -24 12 -56l15 -102l6 -51l1 -3v-5q0 -16 -2 -17h5q15 0 25 -5q7 -6 9 -22q2 -12 -2 -15t-15 -3h-6q-3 0 -11 -2q-2 0 -7.5 -1.5t-8.5 -2l-9 -1.5t-9.5 -1h-8.5t-8.5 1t-7 2.5t-6 4t-4.5 6.5
q-5 10 -1 23.5t16 18.5q-3 11 -5 37l-3 23t-2 22q-4 21 -8 69l-1 22h-13q-64 2 -95 5v-11q1 -11 1 -32.5t-3 -41.5q-2 -16 -4.5 -40l-4 -37.5t-2.5 -17.5q18 -10 21 -13q5 -18 -9 -33q-13 -12 -39 -7q-12 2 -58 2h-11q-7 0 -11 -1q-17 -2 -24 -1zM313 279l-9 61
q-24 150 -32 220v-3l-4 -19q0 -7 -1 -19.5t-1 -18.5q-2 -36 -4 -48q-2 -15 -7.5 -47l-8.5 -49q-13 -62 -14 -69l25 -3l22 -5q6 -1 18 -4t18 -3q-2 4 -2 7zM267 817q11 -1 38 3q30 4 43 2h6q25 0 31 -15l-1 1q8 -20 -9 -29h1q-13 -9 -31 -1q-2 0 -5 5q-7 0 -19 -3h1
q-3 -1 -15 -1h-17q-14 0 -21 -1l-43 -3q-8 0 -29 3q-36 4 -49 -1q-26 -13 -42 19q-5 8 9 19l-2 -1q8 13 33 8h4q2 0 5.5 -0.5t4.5 -0.5h28q54 -2 79 -4zM342 781q-1 0 -1 2h-1z" />
    <glyph glyph-name="Abreve" unicode="&#x102;" horiz-adv-x="479" 
d="M181 1q-26 -2 -63 1q-16 2 -20 2l-7 -2q-31 -4 -40 5q-4 7 -4 18.5t3 18.5q4 7 20 7h7q4 0 5 7q0 4 1 11t1 10q2 23 5 32q9 29 9 52q0 40 13 96l6 21q8 54 11 79l3 29q2 33 6 46q15 74 20 164l6 60l3 28q0 2 0.5 5t0.5 4q5 45 28 56q18 8 43 6q26 0 34 -2q6 3 15 -1
q18 -8 18 -44v-10l23 -154q18 -107 25 -169q2 -24 8 -53l2 -14v1l7 -37v-6q0 -1 1 -2q0 -1 1 -5v-4q3 -13 2 -15q0 -7 2 -17q0 -1 0.5 -4t0.5 -4q6 -36 14 -92q0 -5 9 -65q11 2 18.5 1.5t11 -8t1.5 -22.5q-3 -15 -12 -21q-8 -5 -22 -1l-3 1q-2 0 -5.5 -0.5t-5.5 -0.5h-9
q-1 0 -4 -0.5t-5 -0.5q-34 -2 -38 2q-8 9 -3 26q2 14 7 22h-1q3 4 6 6t4.5 2t5 -1.5t4.5 -1.5l-10 68l-3 32q-5 42 -8 55l-2 13l-6 25l-20 -3l-16 -2l-42 -2q-2 0 -6 0.5t-5 -0.5q-1 -2 -1 -8q-13 -54 -15 -90q0 -4 -3 -22q-2 -14 -2 -22q0 -28 -3 -41l-2 -6t-2 -7
q1 0 2.5 -1t2.5 -1t3 -0.5l2 -0.5q14 -3 14 -24q0 -13 -6 -18.5t-12 -6.5t-18 0h-11zM300 435q-3 42 -17 121q-1 7 -1.5 6.5t0.5 -1.5q0 -3 -1 0q0 2 -1 6l-6 -31q-2 -10 -4 -28.5t-2 -21.5q-3 -32 -4 -36q0 -4 -2.5 -13.5t-3.5 -14.5q-5 -33 -10 -57q-2 -17 -4 -23
q-9 -27 -10 -48q30 2 46 6l34 7l1 1h2q3 0 2 3q-13 54 -19 124zM235 879q1 -5 2.5 -13.5t3 -14t3.5 -11.5t4 -9t5 -3q17 3 28 43l6 19q5 12 18.5 18.5t24.5 1.5t9 -23q-1 -9 -11 -34l1 1l-3 -6l-6 -12l2 1q-8 -18 -14 -27q-24 -31 -58 -31q-25 0 -48.5 16.5t-36.5 40.5
q-3 3 -3 5q-6 14 -8.5 21t-4 18t5.5 17.5t21 7.5q5 1 14 2.5t12 2.5l17 3q5 0 11 -3q3 -3 3 -9q0 -3 0.5 -11t1.5 -11z" />
    <glyph glyph-name="abreve" unicode="&#x103;" horiz-adv-x="480" 
d="M74 1q-22 4 -25 25q-3 4 -0.5 14t11.5 10h18l2 16q3 24 9 45q12 39 14 96q0 23 3 42l4 20q2 7 4 23q6 62 11 94q1 5 5 22q4 12 5 23q4 11 4 21q0 14 1 21l6 25l3 19q2 10 2 30v9q0 14 4 42l6 42q0 12 6 32q7 28 6 35q-2 36 23 39l11 2q54 9 78 0q14 -6 16 -32q0 -7 2 -11
q5 -22 12 -80q1 -9 1 -27q0 -17 3 -35l9 -57l6 -30l9 -82q5 -36 19 -108v1q7 -24 12 -56l15 -102l6 -51l1 -3v-5q0 -16 -2 -17h5q15 0 25 -5q7 -6 9 -22q2 -12 -2 -15t-15 -3h-6q-3 0 -11 -2q-2 0 -7.5 -1.5t-8.5 -2l-9 -1.5t-9.5 -1h-8.5t-8.5 1t-7 2.5t-6 4t-4.5 6.5
q-5 10 -1 23.5t16 18.5q-3 11 -5 37l-3 23t-2 22q-4 21 -8 69l-1 22h-13q-64 2 -95 5v-11q1 -11 1 -32.5t-3 -41.5q-2 -16 -4.5 -40l-4 -37.5t-2.5 -17.5q18 -10 21 -13q5 -18 -9 -33q-13 -12 -39 -7q-12 2 -58 2h-11q-7 0 -11 -1q-17 -2 -24 -1zM313 279l-9 61
q-24 150 -32 220v-3l-4 -19q0 -7 -1 -19.5t-1 -18.5q-2 -36 -4 -48q-2 -15 -7.5 -47l-8.5 -49q-13 -62 -14 -69l25 -3l22 -5q6 -1 18 -4t18 -3q-2 4 -2 7zM240 859q1 -5 2.5 -13.5t3 -14t3.5 -11.5t4 -9t5 -3q17 3 28 43l6 19q5 12 18.5 18.5t24.5 1.5t9 -23q-1 -9 -11 -34
l1 1l-3 -6l-6 -12l2 1q-8 -18 -14 -27q-24 -31 -58 -31q-25 0 -48.5 16.5t-36.5 40.5q-3 3 -3 5q-6 14 -8.5 21t-4 18t5.5 17.5t21 7.5q5 1 14 2.5t12 2.5l17 3q5 0 11 -3q3 -3 3 -9q0 -3 0.5 -11t1.5 -11z" />
    <glyph glyph-name="Aogonek" unicode="&#x104;" horiz-adv-x="479" 
d="M354 -2q4 3 6 9q-29 -2 -33 3q-8 9 -3 26q2 14 7 22h-1q3 4 6 6t4.5 2t5 -1.5t4.5 -1.5l-10 68l-3 32q-5 42 -8 55l-2 13l-6 25l-20 -3l-16 -2l-42 -2q-2 0 -6 0.5t-5 -0.5q-1 -2 -1 -8q-13 -54 -15 -90q0 -4 -3 -22q-2 -14 -2 -22q0 -28 -3 -41l-2 -6t-2 -7q1 0 2.5 -1
t2.5 -1t3 -0.5l2 -0.5q14 -3 14 -24q0 -13 -6 -18.5t-12 -6.5t-18 0h-11q-26 -2 -63 1q-16 2 -20 2l-7 -2q-31 -4 -40 5q-4 7 -4 18.5t3 18.5q4 7 20 7h7q4 0 5 7q0 4 1 11t1 10q2 23 5 32q9 29 9 52q0 40 13 96l6 21l11 79l3 29q2 33 6 46q15 74 20 164l6 60l3 28
q0 2 0.5 5t0.5 4q5 45 28 56q18 8 43 6q26 0 34 -2q6 3 15 -1q18 -8 18 -44v-10l23 -154q18 -107 25 -169q2 -24 8 -53l2 -14v1l7 -37v-6q0 -1 1 -2q0 -1 1 -5v-4q3 -13 2 -15q0 -7 2 -17q0 -1 0.5 -4t0.5 -4l14 -92q0 -5 9 -65q11 2 18.5 1.5t11 -8t1.5 -22.5
q-3 -15 -12 -21q-6 -3 -12 -3q-3 -14 -12 -26v1q-10 -18 -10 -30q1 -6 5 -2q12 15 26 13q16 -7 14 -29q-7 -33 -36 -40q-27 -6 -44.5 12.5t-17.5 45.5q0 30 22 46zM300 435q-3 42 -17 121q-1 7 -1.5 6.5t0.5 -1.5q0 -3 -1 0q0 2 -1 6l-6 -31q-2 -10 -4 -28.5t-2 -21.5
q-3 -32 -4 -36q0 -4 -2.5 -13.5t-3.5 -14.5q-5 -33 -10 -57q-2 -17 -4 -23q-9 -27 -10 -48q30 2 46 6l34 7l1 1h2q3 0 2 3q-13 54 -19 124z" />
    <glyph glyph-name="aogonek" unicode="&#x105;" horiz-adv-x="480" 
d="M338 -15q7 6 7 17q-24 7 -28 16q-12 28 10 38q-2 6 5.5 18.5t7.5 18.5l-3 23t-2 22q-4 21 -8 69l-1 22h-13q-64 2 -95 5v-11q1 -11 1 -32.5t-3 -41.5q-2 -16 -4.5 -40l-4 -37.5t-2.5 -17.5q18 -10 21 -13q5 -18 -9 -33q-13 -12 -39 -7q-12 2 -58 2h-11q-7 0 -11 -1
q-17 -2 -24 -1q-22 4 -25 25q-3 4 -0.5 14t11.5 10h18l2 16q3 24 9 45q12 39 14 96q0 23 3 42l4 20q2 7 4 23q6 62 11 94q1 5 5 22q4 12 5 23q4 11 4 21q0 14 1 21l6 25l3 19q2 10 2 30v9q0 14 4 42l6 42q0 12 6 32q7 28 6 35q-2 36 23 39l11 2q54 9 78 0q14 -6 16 -32
q0 -7 2 -11q5 -22 12 -80q1 -9 1 -27q0 -17 3 -35l9 -57l6 -30l9 -82q5 -36 19 -108v1q7 -24 12 -56l15 -102l6 -51l1 -3v-5q0 -16 -2 -17h5q15 0 25 -5q7 -6 9 -22q2 -12 -2 -15t-15 -3h-6q-3 0 -11 -2q-6 -2 -9 -2q1 -4 1 -10q-3 -14 -12 -26v1q-10 -18 -10 -30q1 -6 5 -2
q12 15 26 13q16 -7 14 -29q-7 -33 -36 -40q-27 -6 -44.5 12.5t-17.5 45.5q0 30 22 46zM313 279l-9 61q-24 150 -32 220v-3l-4 -19q0 -7 -1 -19.5t-1 -18.5q-2 -36 -4 -48l-16 -96q-13 -62 -14 -69l25 -3l22 -5q6 -1 18 -4t18 -3q-2 4 -2 7z" />
    <glyph glyph-name="Cacute" unicode="&#x106;" horiz-adv-x="352" 
d="M51 229q-2 10 -2 35t1 35v11q0 5 -0.5 16t-0.5 15q-2 29 -1 46q3 42 3 86q0 18 9 65l3 10q4 23 17 63l6 19q16 49 32 71q10 13 40 28.5t46 10.5q32 0 51 -21q6 36 39 15q14 -9 9 -50q-4 -14 -2 -21q0 -1 1 -2.5t1 -2.5q6 -24 -10 -28l1 1q-11 -5 -25 -3q-19 2 -27 31
l-3 6v-2q-5 15 -17 24.5t-25 4.5q-8 -3 -10 -40q0 -2 -0.5 -6t-0.5 -5q-13 -86 -14 -114q0 -1 -0.5 -4t-0.5 -5q-2 -26 1 -44q3 -16 0 -39q0 -1 -0.5 -5t-0.5 -5l-2 -83q-2 -33 4 -103q5 -58 5 -69v-19q0 -16 1 -23q0 -7 2 -17l5 -20q0 -1 0.5 -5t0.5 -5q3 -32 12 -37
q11 -1 23.5 10t16.5 23q4 9 6 34q0 12 1 16q1 11 3 19t9.5 15t19.5 4q23 -7 13 -63q-2 -4 -2 -11q-6 -38 -19 -54q-25 -31 -55 -36q-34 -5 -64 14t-46 49l-13 21v-1q-5 7 -8.5 15t-6.5 14t-6 16l-4.5 15t-3.5 17t-2.5 15.5t-3 16.5t-2.5 16zM219 876q28 12 33 -14
q1 -16 -17 -34q-3 -3 -12 -24q-17 -32 -24 -37q-11 -8 -19.5 -4.5t-7.5 16.5q2 14 8 24l2 3q1 2 2 7l4 13q10 39 31 50z" />
    <glyph glyph-name="cacute" unicode="&#x107;" horiz-adv-x="337" 
d="M63 224q-12 69 -14 95q0 5 -0.5 14.5t-0.5 13.5q-1 58 7 120l3 31l3 42q5 20 8 28q6 18 10 36q7 40 22 65l4 9q10 23 34 42t48 17h12q27 -2 43 -16q7 19 32 11q19 -6 14 -32q-1 -4 -1 -7q0 -4 2 -14q1 -6 1 -17q0 -15 -2 -20l-4 -13l-1 -4q-10 -9 -20.5 -7t-16.5 9
q-1 1 -13 22q-6 8 -6 12q-11 27 -19 32q-5 5 -8 -18q-1 -2 -1 -4q0 -1 -1 -3l-1 -3l-6 -29q-2 -18 -4 -27v1q-6 -50 -8 -114q0 -8 -1.5 -23t-1.5 -23q-1 -25 5 -73l2 -18q1 -20 -1 -61q0 -3 -0.5 -12t-0.5 -12q0 -57 3 -86l2 -34q0 -22 4 -46q0 -2 6 -29l4 -15q4 -13 9 -16
q3 0 20 33l1 2q5 12 15.5 22t21.5 7q11 -4 12 -17.5t-3 -24t-8 -17.5q-26 -43 -48 -51q-15 -5 -44 0t-39 15q-27 21 -41 64q-11 28 -21 85zM229 872q28 12 33 -14q1 -16 -17 -34q-3 -3 -12 -24q-17 -32 -24 -37q-11 -8 -19.5 -4.5t-7.5 16.5q2 14 8 24q0 1 1.5 3t2.5 7l4 13
q10 39 31 50z" />
    <glyph glyph-name="Ccircumflex" unicode="&#x108;" horiz-adv-x="370" 
d="M51 229q-2 10 -2 35t1 35v11q0 5 -0.5 16t-0.5 15q-2 29 -1 46q3 42 3 86q0 18 9 65l3 10q4 23 17 63l6 19q16 49 32 71q10 13 40 28.5t46 10.5q32 0 51 -21q6 36 39 15q14 -9 9 -50q-4 -14 -2 -21q0 -1 1 -2.5t1 -2.5q6 -24 -10 -28l1 1q-11 -5 -25 -3q-19 2 -27 31
l-3 6v-2q-5 15 -17 24.5t-25 4.5q-8 -3 -10 -40q0 -2 -0.5 -6t-0.5 -5q-13 -86 -14 -114q0 -1 -0.5 -4t-0.5 -5q-2 -26 1 -44q3 -16 0 -39q0 -1 -0.5 -5t-0.5 -5l-2 -83q-2 -33 4 -103q5 -58 5 -69v-19q0 -16 1 -23q0 -7 2 -17l5 -20q0 -1 0.5 -5t0.5 -5q3 -32 12 -37
q11 -1 23.5 10t16.5 23q4 9 6 34q0 12 1 16q1 11 3 19t9.5 15t19.5 4q23 -7 13 -63q-2 -4 -2 -11q-6 -38 -19 -54q-25 -31 -55 -36q-34 -5 -64 14t-46 49l-13 21v-1q-5 7 -8.5 15t-6.5 14t-6 16l-4.5 15t-3.5 17t-2.5 15.5t-3 16.5t-2.5 16zM205 901q21 9 50 -20
q42 -42 62 -78q11 -22 -4 -31.5t-32 4.5q-12 12 -25 30l-12 12h1q-3 0 -26.5 -19t-32.5 -21q-30 -11 -48 -11q-24 0 -38 17q-12 20 42 64l4 3v-1l29 25q15 18 30 26z" />
    <glyph glyph-name="ccircumflex" unicode="&#x109;" horiz-adv-x="358" 
d="M63 224q-12 69 -14 95q0 5 -0.5 14.5t-0.5 13.5q-1 58 7 120l3 31l3 42q5 20 8 28q6 18 10 36q7 40 22 65l4 9q10 23 34 42t48 17h12q27 -2 43 -16q7 19 32 11q19 -6 14 -32q-1 -4 -1 -7q0 -4 2 -14q1 -6 1 -17q0 -15 -2 -20l-4 -13l-1 -4q-10 -9 -20.5 -7t-16.5 9
q-1 1 -13 22q-6 8 -6 12q-11 27 -19 32q-5 5 -8 -18q-1 -2 -1 -4q0 -1 -1 -3l-1 -3l-6 -29q-2 -18 -4 -27v1q-6 -50 -8 -114q0 -8 -1.5 -23t-1.5 -23q-1 -25 5 -73l2 -18q1 -20 -1 -61q0 -3 -0.5 -12t-0.5 -12q0 -57 3 -86l2 -34q0 -22 4 -46q0 -2 6 -29l4 -15q4 -13 9 -16
q3 0 20 33l1 2q5 12 15.5 22t21.5 7q11 -4 12 -17.5t-3 -24t-8 -17.5q-26 -43 -48 -51q-15 -5 -44 0t-39 15q-27 21 -41 64q-11 28 -21 85zM195 891q21 9 50 -20q42 -42 62 -78q11 -22 -4 -31.5t-32 4.5q-12 12 -25 30l-12 12h1q-3 0 -26.5 -19t-32.5 -21q-30 -11 -48 -11
q-24 0 -38 17q-12 20 42 64l4 3v-1l29 25q15 18 30 26z" />
    <glyph glyph-name="Cdotaccent" unicode="&#x10a;" horiz-adv-x="357" 
d="M72 148l-5 12l1 -1q-8 23 -9 28q-13 52 -11 124q0 5 0.5 14.5t0.5 13.5q0 56 2 85q3 29 5 89q1 19 14 70q6 14 9 25q11 49 34 81q11 17 39 35t51 22q33 7 61 -17q0 11 9 15q20 12 32 -15q6 -21 6 -43q0 -45 -27 -42q-24 2 -39 31q-13 24 -23 27q-18 -11 -22 -38l-4 -16
q-20 -98 -24 -181q-2 -38 4 -119l5 -56v-15q0 -3 0.5 -8t0.5 -7q1 -29 7 -89l2 -34q2 -28 4 -44q3 -22 13 -41q0 -5 4 -5h2q8 0 10 -1l-3 1q25 1 35 29q0 1 2.5 5.5t3.5 7t3.5 7t4 6.5t4.5 5.5t5.5 4t6 0.5t6.5 -2t7 -6q20 -20 -4 -57q-17 -24 -58 -45q-19 -7 -43 -2.5
t-39 15.5q-46 37 -66 87l-10 26zM221 865q39 -3 39 -43q0 -22 -15.5 -39.5t-40.5 -13.5q-18 1 -28 14t-10 29q0 23 15 39.5t40 13.5z" />
    <glyph glyph-name="cdotaccent" unicode="&#x10b;" horiz-adv-x="337" 
d="M63 224q-12 69 -14 95q0 5 -0.5 14.5t-0.5 13.5q-1 58 7 120l3 31l3 42q5 20 8 28q6 18 10 36q7 40 22 65l4 9q10 23 34 42t48 17h12q27 -2 43 -16q7 19 32 11q19 -6 14 -32q-1 -4 -1 -7q0 -4 2 -14q1 -6 1 -17q0 -15 -2 -20l-4 -13l-1 -4q-10 -9 -20.5 -7t-16.5 9
q-1 1 -13 22q-6 8 -6 12q-11 27 -19 32q-5 5 -8 -18q-1 -2 -1 -4q0 -1 -1 -3l-1 -3l-6 -29q-2 -18 -4 -27v1q-6 -50 -8 -114q0 -8 -1.5 -23t-1.5 -23q-1 -25 5 -73l2 -18q1 -20 -1 -61q0 -3 -0.5 -12t-0.5 -12q0 -57 3 -86l2 -34q0 -22 4 -46q0 -2 6 -29l4 -15q4 -13 9 -16
q3 0 20 33l1 2q5 12 15.5 22t21.5 7q11 -4 12 -17.5t-3 -24t-8 -17.5q-26 -43 -48 -51q-15 -5 -44 0t-39 15q-27 21 -41 64q-11 28 -21 85zM207 865q39 -3 39 -43q0 -22 -15.5 -39.5t-40.5 -13.5q-18 1 -28 14t-10 29q0 23 15 39.5t40 13.5z" />
    <glyph glyph-name="Ccaron" unicode="&#x10c;" horiz-adv-x="365" 
d="M51 229q-2 10 -2 35t1 35v11q0 5 -0.5 16t-0.5 15q-2 29 -1 46q3 42 3 86q0 18 9 65l3 10q4 23 17 63l6 19q16 49 32 71q10 13 40 28.5t46 10.5q32 0 51 -21q6 36 39 15q14 -9 9 -50q-4 -14 -2 -21q0 -1 1 -2.5t1 -2.5q6 -24 -10 -28l1 1q-11 -5 -25 -3q-19 2 -27 31
l-3 6v-2q-5 15 -17 24.5t-25 4.5q-8 -3 -10 -40q0 -2 -0.5 -6t-0.5 -5q-13 -86 -14 -114q0 -1 -0.5 -4t-0.5 -5q-2 -26 1 -44q3 -16 0 -39q0 -1 -0.5 -5t-0.5 -5l-2 -83q-2 -33 4 -103q5 -58 5 -69v-19q0 -16 1 -23q0 -7 2 -17l5 -20q0 -1 0.5 -5t0.5 -5q3 -32 12 -37
q11 -1 23.5 10t16.5 23q4 9 6 34q0 12 1 16q1 11 3 19t9.5 15t19.5 4q23 -7 13 -63q-2 -4 -2 -11q-6 -38 -19 -54q-25 -31 -55 -36q-34 -5 -64 14t-46 49l-13 21v-1q-5 7 -8.5 15t-6.5 14t-6 16l-4.5 15t-3.5 17t-2.5 15.5t-3 16.5t-2.5 16zM233 859l2 -2l20 18l8 7
q17 19 28 22q11 4 19 -5t8 -21q0 -10 -7 -16.5t-30 -22.5l-11 -11v1q-9 -12 -15 -15h1q-12 -9 -36 -25l-21 -15q-9 0 -10 3q-14 8 -28 22q-8 8 -11 14l-9 12l-20 18h1q-24 20 -29 29v-1q-13 24 6 31t40 4h-1q43 -1 95 -47z" />
    <glyph glyph-name="ccaron" unicode="&#x10d;" horiz-adv-x="359" 
d="M63 224q-12 69 -14 95q0 5 -0.5 14.5t-0.5 13.5q-1 58 7 120l3 31l3 42q5 20 8 28q6 18 10 36q7 40 22 65l4 9q10 23 34 42t48 17h12q27 -2 43 -16q7 19 32 11q19 -6 14 -32q-1 -4 -1 -7q0 -4 2 -14q1 -6 1 -17q0 -15 -2 -20l-4 -13l-1 -4q-10 -9 -20.5 -7t-16.5 9
q-1 1 -13 22q-6 8 -6 12q-11 27 -19 32q-5 5 -8 -18q-1 -2 -1 -4q0 -1 -1 -3l-1 -3l-6 -29q-2 -18 -4 -27v1q-6 -50 -8 -114q0 -8 -1.5 -23t-1.5 -23q-1 -25 5 -73l2 -18q1 -20 -1 -61q0 -3 -0.5 -12t-0.5 -12q0 -57 3 -86l2 -34q0 -22 4 -46q0 -2 6 -29l4 -15q4 -13 9 -16
q3 0 20 33l1 2q5 12 15.5 22t21.5 7q11 -4 12 -17.5t-3 -24t-8 -17.5q-26 -43 -48 -51q-15 -5 -44 0t-39 15q-27 21 -41 64q-11 28 -21 85zM228 848l2 -2l20 18l8 7q17 19 28 22q11 4 19 -5t8 -21q0 -10 -7 -16.5t-30 -22.5l-11 -11v1q-9 -12 -15 -15h1q-12 -9 -36 -25
l-21 -15q-8 0 -10 3q-14 8 -28 22q-8 8 -11 14l-9 12l-20 18h1q-24 20 -29 29v-1q-13 24 6 31t40 4h-1q43 -1 95 -47z" />
    <glyph glyph-name="Dcaron" unicode="&#x10e;" horiz-adv-x="419" 
d="M51 0q-3 0 -3.5 12.5t3 25t10.5 12.5t18 4v16v32q1 16 1 46q0 33 -1 48q0 37 1 54q1 7 1 34q-1 26 -1 90v90q-1 32 1 92v89l-3 40v1h-8q-10 2 -14 2q-8 0 -8.5 21t5.5 25h-2q8 8 28 6q2 -2 3 -2q12 -1 34 -7q3 -1 14.5 -3t22.5 -5t18 -7l21 -8h3l2 -1q25 -8 38 -20v1
q44 -35 77 -89q41 -63 56 -148q4 -20 4 -53q0 -50 -15 -110l-4 -18q-8 -38 -18 -61q-6 -14 -37 -64q-5 -10 -13 -18q-6 -9 -12 -17h1q-13 -18 -27 -35q-28 -37 -67 -57l-6 -3l-39 -9h2l-15 -3q-19 -3 -59 -3h-12zM292 545q-2 7 -28 43l-11 16q-9 14 -33 38v-13q0 -10 -2 -28
t-2 -24q-2 -36 -2 -51l2 -145q0 -52 -4 -80q-3 -13 -1 -51q0 -2 0.5 -8t0.5 -9q0 -24 -2 -68q-4 -50 -3 -61l7 13v-1q5 8 9 13.5t5 7.5q6 6 41 49q32 42 43 113q4 22 7 33l8 28q2 22 -3 56q0 2 -1 5t-1 5t-0.5 5t-0.5 4q-6 45 -9 56q-4 8 -4 10q-6 26 -16 44zM199 858l2 -2
l20 18l8 7q17 19 28 22q11 4 19 -5t8 -21q0 -10 -7 -16.5t-30 -22.5l-11 -11v1q-9 -12 -15 -15h1q-12 -9 -36 -25l-21 -15q-9 0 -10 3q-14 8 -28 22q-8 8 -11 14l-9 12l-20 18h1q-24 20 -29 29v-1q-13 24 6 31t40 4h-1q43 -1 95 -47z" />
    <glyph glyph-name="dcaron" unicode="&#x10f;" horiz-adv-x="404" 
d="M58 689q-7 0 -9 14.5t-1 21.5q6 26 68 6h3l10 -3q4 -1 19 -4t28.5 -7t20.5 -8q11 -6 29 -22l11 -12q35 -33 73 -95q34 -56 44 -135q3 -21 3 -49q0 -41 -5 -84q0 -1 -0.5 -6t-0.5 -7q-7 -69 -38 -123l-28 -56q-7 -14 -29 -38h1l-10 -13q-14 -16 -53 -42q-13 -7 -46 -15.5
t-66.5 -8.5t-33.5 19q0 33 34 31q-2 16 -2 48q0 9 0.5 24.5t0.5 23.5q1 16 1 46q0 39 1 58q3 96 2 118v95q0 52 -2 78q0 4 -0.5 14.5t-0.5 15.5l-3 75q0 24 1 37q-4 0 -8 1q-10 2 -14 2zM243 605q-11 13 -29 28v-16q0 -8 -2 -16v1q-2 -10 -2 -19q1 -9 1 -33q0 -28 -1 -41
q0 -5 3 -35q2 -30 2 -41q0 -13 -1 -18q-4 -39 -2 -58q1 -14 1 -43q0 -5 0.5 -15t0.5 -14q1 -25 -3 -70q-1 -11 1 -31q2 -12 2 -26q0 -6 0.5 -18t0.5 -17q0 -7 -0.5 -11t-0.5 -9q40 38 69 108l7 27q0 2 1 5t1 4q4 14 6 20l7 19v-1q2 9 2 29q0 24 2 34q5 21 0 50l-1 16l-3 24
q-4 28 -7 44v-1q-12 45 -26 66q-1 2 -3.5 6t-4 7.5t-2.5 6.5q-12 28 -19 38zM204 858l2 -2l20 18l8 7q17 19 28 22q11 4 19 -5t8 -21q0 -10 -7 -16.5t-30 -22.5l-11 -11v1q-9 -12 -15 -15h1q-12 -9 -36 -25l-21 -15q-8 0 -10 3q-14 8 -28 22q-8 8 -11 14l-9 12l-20 18h1
q-24 20 -29 29v-1q-13 24 6 31t40 4h-1q43 -1 95 -47z" />
    <glyph glyph-name="Dcroat" unicode="&#x110;" horiz-adv-x="431" 
d="M80 0q-13 0 -10 34v5q2 17 38 12q-3 36 -1 78q0 15 2 29q3 33 3 36q-1 11 -1 35v54q0 18 2 52q-23 2 -35 0q-8 -2 -15.5 0.5t-12.5 15t-2 33.5q3 23 17 26.5t26 -3.5q4 -2 7 -2h20v17q2 75 -6 147q0 16 -1 25q-3 40 -2 46q0 18 1 27v-1q1 12 1 34q-19 2 -31.5 11.5
t-2.5 26.5q6 9 22 9h6q14 0 19 -1q60 -6 121 -46q26 -19 71 -83l27 -37q9 -11 19 -42l7 -24q8 -24 12 -77q2 -28 2 -43q0 -57 -15 -114l-7 -25q-5 -22 -6 -23l-18 -39q-1 -1 -2.5 -5.5t-2.5 -5.5q-20 -44 -59 -87q-25 -30 -60 -55q-10 -10 -30 -19l-17 -5h1l-11 -3
q-46 -13 -76 -13zM266 404q14 -14 10 -41.5t-18 -32.5q-7 0 -11 5q-6 0 -16.5 -2t-13.5 -2q-2 -57 -6 -107q0 -31 1 -44q1 -7 1 -21q0 -6 0.5 -16t0.5 -15q0 -20 -1 -29q14 10 40 47q8 12 16 28q11 26 20 36q38 53 44 144q2 30 2 43q0 66 -20 126q-36 91 -89 129l-5 4
q1 -7 1 -19q0 -27 -3 -40q-3 -43 -2 -77v-26v-50q-1 -10 -1 -32h9q31 0 41 -8z" />
    <glyph glyph-name="dcroat" unicode="&#x111;" horiz-adv-x="426" 
d="M80 689q-7 0 -9 14.5t-1 21.5q6 26 68 6h3l10 -3q4 -1 19 -4t28.5 -7t20.5 -8q11 -6 29 -22l11 -12q35 -33 73 -95q34 -56 44 -135q3 -21 3 -49q0 -41 -5 -84q0 -1 -0.5 -6t-0.5 -7q-7 -69 -38 -123l-28 -56q-7 -14 -29 -38h1l-10 -13q-14 -16 -53 -42q-13 -7 -46 -15.5
t-66.5 -8.5t-33.5 19q0 33 34 31q-2 16 -2 48q0 9 0.5 24.5t0.5 23.5q1 16 1 46q0 39 1 58q0 11 1 36.5t1 38.5q-17 0 -26 -2q-15 -3 -26.5 7t-6.5 38q6 32 46 20q4 -1 7 -1h6v76q0 52 -2 78q0 4 -0.5 14.5t-0.5 15.5l-3 75q0 24 1 37q-4 0 -8 1q-10 2 -14 2zM280 388
q14 -12 10 -36.5t-19 -29.5q-7 0 -11 4q-9 0 -25 -2v-10q0 -5 0.5 -15t0.5 -14q1 -25 -3 -70q-1 -11 1 -31q2 -12 2 -26q0 -6 0.5 -18t0.5 -17q0 -7 -0.5 -11t-0.5 -9q40 38 69 108l7 27q0 2 1 5t1 4q4 14 6 20l7 19v-1q2 9 2 29q0 24 2 34q5 21 0 50l-1 16l-3 24l-7 44v-1
q-12 45 -26 66q-1 2 -3.5 6t-4 7.5t-2.5 6.5q-12 28 -19 38q-11 13 -29 28v-16q0 -8 -2 -16v1q-2 -10 -2 -19q1 -9 1 -33q0 -28 -1 -41q0 -5 3 -35q2 -30 2 -41q0 -13 -1 -18q-2 -12 -2 -19h2q32 0 44 -8z" />
    <glyph glyph-name="Emacron" unicode="&#x112;" horiz-adv-x="391" 
d="M61 696h-1q-20 12 -10 33v-1q9 14 32 14h10.5t5.5 1t10 1q26 2 63 2q58 0 84 -1l21 -3q4 -2 9 -2q17 -6 15 -23v-5q0 -2 0.5 -4.5t0.5 -3.5q3 -16 -7 -36q-5 -6 -16 -5t-17 7h1q-9 7 -9 22v3h-45q-2 0 0 -3v-29q0 -3 -0.5 -9.5t-0.5 -8.5v-28q1 -15 -1 -43q-1 -8 1 -22
q1 -6 1 -8q49 3 61 -7v1q15 -17 1 -29t-31 -13l-25 -3h-6q-1 0 -1 -2q-2 -15 -2 -45v-15v-18.5v-16.5q0 -5 0.5 -16.5t0.5 -17.5q0 -27 -1 -41v1q-2 -24 0 -49v-78q0 -3 0.5 -9t0.5 -10q3 -36 3 -73q0 -39 -3 -58q22 0 62 2q3 0 3 10q2 23 17 24q40 0 33 -38q0 -1 -0.5 -4
t-0.5 -4q-1 -10 -2 -15.5t-7 -10.5t-17 -5h-1q-3 0 -13 -2q-3 -1 -10 -1h-74q-44 2 -86 2q-7 0 -23 -0.5t-24 -0.5q-11 0 -17.5 11.5t-3 23.5t16.5 12q2 0 7.5 -0.5t8.5 -0.5h15v8q0 16 5 41q0 1 0.5 5t0.5 6q1 40 -4 94l-2 34q-1 40 2 89q0 3 2 23t2 31q0 12 0.5 37.5
t0.5 37.5q0 13 -0.5 38.5t-0.5 39.5v148q0 10 1 13h-6h-7h-6h-3q-5 0 -14 3zM222 814q11 -1 38 3q30 4 43 2h6q25 0 31 -15l-1 1q8 -20 -9 -29h1q-13 -9 -31 -1q-2 0 -5 5q-7 0 -19 -3h1q-3 -1 -15 -1h-17q-14 0 -21 -1l-43 -3q-8 0 -29 3q-36 4 -49 -1q-26 -13 -42 19
q-5 8 9 19l-2 -1q8 13 33 8h4q2 0 5.5 -0.5t4.5 -0.5h28q54 -2 79 -4zM297 778q-1 0 -1 2h-1z" />
    <glyph glyph-name="emacron" unicode="&#x113;" horiz-adv-x="374" 
d="M75 694q-15 0 -23 13t-1 27q11 15 50 13h-1q25 -2 106 1q34 2 56 2q16 0 38 -2q7 0 11 -4q4 -3 4 -10q2 -16 2 -28q0 -2 0.5 -5.5t0.5 -6.5q3 -27 -14 -32q-15 -4 -25.5 4t-8.5 26q1 3 1 7q-2 -1 -4 -1q-19 0 -25 1q-24 0 -30 -1h1l-2 -2v-7q-1 -3 -1 -10q-2 -17 0 -52
q0 -2 0.5 -6.5t0.5 -7.5q0 -6 -0.5 -18.5t-0.5 -18.5q-2 -19 0 -34q0 -14 5 -24h13h14.5h10.5q5 0 14 -4q4 -3 4 -16q0 -2 -0.5 -4t-0.5 -3v-8q0 -4 -3 -10q-3 -3 -11 -3h-22q-4 0 -13 0.5t-12 0.5q-1 -4 -0.5 -14t1.5 -23v-6q-2 -48 -4 -71q0 -1 -0.5 -5t-0.5 -6
q-2 -27 0 -42q0 -18 -1 -25q-2 -20 0 -29q2 -17 2 -55q0 -13 2 -45v1q2 -24 2 -40q0 -34 -4 -62h20q38 -2 47 -2q0 25 8 31q7 5 24 2q19 -4 22 -26t-5 -35q-8 -19 -58 -16h-7q-11 1 -33 -1q-12 -2 -19 -2q-12 -1 -39 1q-10 1 -45 1q-1 0 -5.5 -0.5t-7.5 -0.5q-41 -2 -50 9
q-14 14 -8 23.5t17.5 13.5t23.5 4h5v13q0 12 -2 17q-2 18 -1 25q0 24 -1 37q-2 35 -1 51q2 52 5 79q0 28 -2 36q-2 29 0 43q4 32 -1 73q-2 24 -2 34q0 26 3 47q2 7 -1 38q-3 29 -2 36q6 52 5 79l-3 36q0 2 -7 0q-3 -1 -11 -1zM209 809q11 -1 38 3q30 4 43 2h6q25 0 31 -15
l-1 1q8 -20 -9 -29h1q-13 -9 -31 -1q-2 0 -5 5q-7 0 -19 -3h1q-3 -1 -15 -1h-17q-14 0 -21 -1l-43 -3q-8 0 -29 3q-36 4 -49 -1q-26 -13 -42 19q-5 8 9 19l-2 -1q8 13 33 8h4q2 0 5.5 -0.5t4.5 -0.5h28q54 -2 79 -4zM284 773q-1 0 -1 2h-1z" />
    <glyph glyph-name="Ebreve" unicode="&#x114;" horiz-adv-x="391" 
d="M61 696h-1q-20 12 -10 33v-1q9 14 32 14h10.5t5.5 1t10 1q26 2 63 2q58 0 84 -1l21 -3q4 -2 9 -2q17 -6 15 -23v-5q0 -2 0.5 -4.5t0.5 -3.5q3 -16 -7 -36q-5 -6 -16 -5t-17 7h1q-9 7 -9 22v3h-45q-2 0 0 -3v-29q0 -3 -0.5 -9.5t-0.5 -8.5v-28q1 -15 -1 -43q-1 -8 1 -22
q1 -6 1 -8q49 3 61 -7v1q15 -17 1 -29t-31 -13l-25 -3h-6q-1 0 -1 -2q-2 -15 -2 -45v-15v-18.5v-16.5q0 -5 0.5 -16.5t0.5 -17.5q0 -27 -1 -41v1q-2 -24 0 -49v-78q0 -3 0.5 -9t0.5 -10q3 -36 3 -73q0 -39 -3 -58q22 0 62 2q3 0 3 10q2 23 17 24q40 0 33 -38q0 -1 -0.5 -4
t-0.5 -4q-1 -10 -2 -15.5t-7 -10.5t-17 -5h-1q-3 0 -13 -2q-3 -1 -10 -1h-74q-44 2 -86 2q-7 0 -23 -0.5t-24 -0.5q-11 0 -17.5 11.5t-3 23.5t16.5 12q2 0 7.5 -0.5t8.5 -0.5h15v8q0 16 5 41q0 1 0.5 5t0.5 6q1 40 -4 94l-2 34q-1 40 2 89q0 3 2 23t2 31q0 12 0.5 37.5
t0.5 37.5q0 13 -0.5 38.5t-0.5 39.5v148q0 10 1 13h-6h-7h-6h-3q-5 0 -14 3zM177 869q1 -5 2.5 -13.5t3 -14t3.5 -11.5t4 -9t5 -3q17 3 28 43l6 19q5 12 18.5 18.5t24.5 1.5t9 -23q-1 -9 -11 -34l1 1l-3 -6l-6 -12l2 1q-8 -18 -14 -27q-24 -31 -58 -31q-25 0 -48.5 16.5
t-36.5 40.5q-3 3 -3 5q-6 14 -8.5 21t-4 18t5.5 17.5t21 7.5q5 1 14 2.5t12 2.5l17 3q5 0 11 -3q3 -3 3 -9q0 -3 0.5 -11t1.5 -11z" />
    <glyph glyph-name="ebreve" unicode="&#x115;" horiz-adv-x="373" 
d="M74 694q-15 0 -23 13t-1 27q11 15 50 13h-1q25 -2 106 1q34 2 56 2q16 0 38 -2q7 0 11 -4q4 -3 4 -10q2 -16 2 -28q0 -2 0.5 -5.5t0.5 -6.5q3 -27 -14 -32q-15 -4 -25.5 4t-8.5 26q1 3 1 7q-2 -1 -4 -1q-19 0 -25 1q-24 0 -30 -1h1l-2 -2v-7q-1 -3 -1 -10q-2 -17 0 -52
q0 -2 0.5 -6.5t0.5 -7.5q0 -6 -0.5 -18.5t-0.5 -18.5q-2 -19 0 -34q0 -14 5 -24h13h14.5h10.5q5 0 14 -4q4 -3 4 -16q0 -2 -0.5 -4t-0.5 -3v-8q0 -4 -3 -10q-3 -3 -11 -3h-22q-4 0 -13 0.5t-12 0.5q-1 -4 -0.5 -14t1.5 -23v-6q-2 -48 -4 -71q0 -1 -0.5 -5t-0.5 -6
q-2 -27 0 -42q0 -18 -1 -25q-2 -20 0 -29q2 -17 2 -55q0 -13 2 -45v1q2 -24 2 -40q0 -34 -4 -62h20q38 -2 47 -2q0 25 8 31q7 5 24 2q19 -4 22 -26t-5 -35q-8 -19 -58 -16h-7q-11 1 -33 -1q-12 -2 -19 -2q-12 -1 -39 1q-10 1 -45 1q-1 0 -5.5 -0.5t-7.5 -0.5q-41 -2 -50 9
q-14 14 -8 23.5t17.5 13.5t23.5 4h5v13q0 12 -2 17q-2 18 -1 25q0 24 -1 37q-2 35 -1 51q2 52 5 79q0 28 -2 36q-2 29 0 43q4 32 -1 73q-2 24 -2 34q0 26 3 47q2 7 -1 38q-3 29 -2 36q6 52 5 79l-3 36q0 2 -7 0q-3 -1 -11 -1zM182 859q1 -5 2.5 -13.5t3 -14t3.5 -11.5t4 -9
t5 -3q17 3 28 43l6 19q5 12 18.5 18.5t24.5 1.5t9 -23q-1 -9 -11 -34l1 1l-3 -6l-6 -12l2 1q-8 -18 -14 -27q-24 -31 -58 -31q-25 0 -48.5 16.5t-36.5 40.5q-3 3 -3 5q-6 14 -8.5 21t-4 18t5.5 17.5t21 7.5q5 1 14 2.5t12 2.5l17 3q5 0 11 -3q3 -3 3 -9q0 -3 0.5 -11
t1.5 -11z" />
    <glyph glyph-name="Edotaccent" unicode="&#x116;" horiz-adv-x="356" 
d="M293 89q16 -4 14 -31q0 -2 -0.5 -6t-0.5 -6q0 -13 -2 -27q0 -6 -5 -11q-4 -4 -11 -4l-53 -2q-3 0 -7 -0.5t-5 -0.5q-10 -1 -27 0q-29 6 -68 4q-3 0 -6.5 -0.5t-5.5 -0.5q-28 -2 -44 -1q-10 2 -16 10t-2 18q4 18 28 20q-1 8 2 36q1 8 1 23v20q0 53 -2 78q0 27 1 35
q0 1 0.5 5t0.5 5q0 10 -2 42q-1 18 1 50q1 9 1 48q-3 51 -2 95q0 5 0.5 21.5t0.5 22.5t-0.5 20t-0.5 22v24q0 2 0.5 8t0.5 10t2 16q0 2 1 6t1.5 6.5t0.5 4.5q-2 5 -4 28q-1 27 -4 29q-1 1 -4 0q-3 0 -8 -0.5t-6 -0.5q-16 2 -16 30q2 20 29 22q45 3 48 3t10 -1t9 -1
q4 -1 22 -1t24 1q4 1 23 -2q3 -1 6 -1t7.5 0.5t6.5 0.5h20q5 -1 16 -1q2 0 4.5 0.5t3.5 0.5q6 2 12 2q8 0 18 -7q3 -3 3 -9q-1 -6 -1 -29q4 -18 -4 -34q-6 -8 -20 -5t-19 12q-3 8 -3 20v3q-22 -2 -31 -2h-11q-4 0 -4 -5q-1 -10 -1 -48q3 -21 3 -51q0 -16 -2 -44q50 0 57 -22
q3 -13 -1.5 -20.5t-16.5 -9t-19.5 -1.5t-21.5 1q-2 0 -4 0.5t-3 0.5q4 0 4 -46q0 -13 2 -41q0 -3 0.5 -9t0.5 -10q0 -16 -2 -52q-3 -67 -4 -80v1q-4 -75 -3 -114v-8q0 -69 10 -96q17 0 20 1q6 1 20 1q1 0 2 -0.5t2 -0.5q0 5 -1 9q-2 16 8.5 23.5t26.5 2.5zM199 872
q39 -3 39 -43q0 -22 -15.5 -39.5t-40.5 -13.5q-18 1 -28 14t-10 29q0 23 15 39.5t40 13.5z" />
    <glyph glyph-name="edotaccent" unicode="&#x117;" horiz-adv-x="356" 
d="M293 89q16 -4 14 -31q0 -2 -0.5 -6t-0.5 -6q0 -13 -2 -27q0 -6 -5 -11q-4 -4 -11 -4l-53 -2q-3 0 -7 -0.5t-5 -0.5q-10 -1 -27 0q-29 6 -68 4q-3 0 -6.5 -0.5t-5.5 -0.5q-28 -2 -44 -1q-10 2 -16 10t-2 18q4 18 28 20q-1 8 2 36q1 8 1 23v20q0 53 -2 78q0 27 1 35
q0 1 0.5 5t0.5 5q0 10 -2 42q-1 18 1 50q1 9 1 48q-3 51 -2 95q0 5 0.5 21.5t0.5 22.5t-0.5 20t-0.5 22v24q0 2 0.5 8t0.5 10t2 16q0 2 1 6t1.5 6.5t0.5 4.5q-2 5 -4 28q-1 27 -4 29q-1 1 -4 0q-3 0 -8 -0.5t-6 -0.5q-16 2 -16 30q2 20 29 22q45 3 48 3t10 -1t9 -1
q4 -1 22 -1t24 1q4 1 23 -2q3 -1 6 -1t7.5 0.5t6.5 0.5h20q5 -1 16 -1q2 0 4.5 0.5t3.5 0.5q6 2 12 2q8 0 18 -7q3 -3 3 -9q-1 -6 -1 -29q4 -18 -4 -34q-6 -8 -20 -5t-19 12q-3 8 -3 20v3q-22 -2 -31 -2h-11q-4 0 -4 -5q-1 -10 -1 -48q3 -21 3 -51q0 -16 -2 -44q50 0 57 -22
q3 -13 -1.5 -20.5t-16.5 -9t-19.5 -1.5t-21.5 1q-2 0 -4 0.5t-3 0.5q4 0 4 -46q0 -13 2 -41q0 -3 0.5 -9t0.5 -10q0 -16 -2 -52q-3 -67 -4 -80v1q-4 -75 -3 -114v-8q0 -69 10 -96q17 0 20 1q6 1 20 1q1 0 2 -0.5t2 -0.5q0 5 -1 9q-2 16 8.5 23.5t26.5 2.5zM195 866
q39 -3 39 -43q0 -22 -15.5 -39.5t-40.5 -13.5q-18 1 -28 14t-10 29q0 23 15 39.5t40 13.5z" />
    <glyph glyph-name="Eogonek" unicode="&#x118;" horiz-adv-x="391" 
d="M175 -10q6 5 6 11q-46 2 -71 2q-7 0 -23 -0.5t-24 -0.5q-11 0 -17.5 11.5t-3 23.5t16.5 12q2 0 7.5 -0.5t8.5 -0.5h15v8q0 16 5 41q0 1 0.5 5t0.5 6q1 40 -4 94l-2 34q-1 40 2 89q0 3 2 23t2 31q0 12 0.5 37.5t0.5 37.5q0 13 -0.5 38.5t-0.5 39.5v148q0 10 1 13h-6h-7h-6
h-3q-5 0 -14 3h-1q-20 12 -10 33v-1q9 14 32 14h10.5t5.5 1t10 1q26 2 63 2q58 0 84 -1l21 -3q4 -2 9 -2q17 -6 15 -23v-5q0 -2 0.5 -4.5t0.5 -3.5q3 -16 -7 -36q-5 -6 -16 -5t-17 7h1q-9 7 -9 22v3h-45q-2 0 0 -3v-29q0 -3 -0.5 -9.5t-0.5 -8.5v-28q1 -15 -1 -43
q-1 -8 1 -22q1 -6 1 -8q49 3 61 -7v1q15 -17 1 -29t-31 -13l-25 -3h-6q-1 0 -1 -2q-2 -15 -2 -45v-15v-18.5v-16.5q0 -5 0.5 -16.5t0.5 -17.5q0 -27 -1 -41v1q-2 -24 0 -49v-78q0 -3 0.5 -9t0.5 -10q3 -36 3 -73t-3 -55q6 0 9 -3q19 0 53 2q3 0 3 10q2 23 17 24q40 0 33 -38
q0 -1 -0.5 -4t-0.5 -4q-1 -10 -2 -15.5t-7 -10.5t-17 -5h-1q-3 0 -13 -2q-3 -1 -10 -1h-42v-2q-3 -14 -12 -26v1q-10 -18 -10 -30q1 -6 5 -2q12 15 26 13q16 -7 14 -29q-7 -33 -36 -40q-27 -6 -44.5 12.5t-17.5 45.5q0 30 22 46z" />
    <glyph glyph-name="eogonek" unicode="&#x119;" horiz-adv-x="373" 
d="M74 694q-15 0 -23 13t-1 27q11 15 50 13h-1q25 -2 106 1q34 2 56 2q16 0 38 -2q7 0 11 -4q4 -3 4 -10q2 -16 2 -28q0 -2 0.5 -5.5t0.5 -6.5q3 -27 -14 -32q-15 -4 -25.5 4t-8.5 26q1 3 1 7q-2 -1 -4 -1q-19 0 -25 1q-24 0 -30 -1h1l-2 -2v-7q-1 -3 -1 -10q-2 -17 0 -52
q0 -2 0.5 -6.5t0.5 -7.5q0 -6 -0.5 -18.5t-0.5 -18.5q-2 -19 0 -34q0 -14 5 -24h13h14.5h10.5q5 0 14 -4q4 -3 4 -16q0 -2 -0.5 -4t-0.5 -3v-8q0 -4 -3 -10q-3 -3 -11 -3h-22q-4 0 -13 0.5t-12 0.5q-1 -4 -0.5 -14t1.5 -23v-6q-2 -48 -4 -71q0 -1 -0.5 -5t-0.5 -6
q-2 -27 0 -42q0 -18 -1 -25q-2 -20 0 -29q2 -17 2 -55q0 -14 2 -44q2 -24 2 -40q0 -34 -4 -62h20q38 -2 47 -2q0 25 8 31q7 5 24 2q19 -4 22 -26t-5 -35q-8 -19 -58 -16h-7q-11 1 -33 -1q-10 -2 -16 -2q-1 -2 -8 -14v1q-10 -18 -10 -30q1 -6 5 -2q12 15 26 13q16 -7 14 -29
q-7 -33 -36 -40q-27 -6 -44.5 12.5t-17.5 45.5q0 30 20 44q-13 1 -36 1q-1 0 -5.5 -0.5t-7.5 -0.5q-41 -2 -50 9q-14 14 -8 23.5t17.5 13.5t23.5 4h5v13q0 12 -2 17q-2 18 -1 25q0 24 -1 37q-2 35 -1 51q2 52 5 79q0 28 -2 36q-2 29 0 43q4 32 -1 73q-2 24 -2 34q0 26 3 47
q2 7 -1 38q-3 29 -2 36q6 52 5 79l-3 36q0 2 -7 0q-3 -1 -11 -1z" />
    <glyph glyph-name="Ecaron" unicode="&#x11a;" horiz-adv-x="391" 
d="M61 696h-1q-20 12 -10 33v-1q9 14 32 14h10.5t5.5 1t10 1q26 2 63 2q58 0 84 -1l21 -3q4 -2 9 -2q17 -6 15 -23v-5q0 -2 0.5 -4.5t0.5 -3.5q3 -16 -7 -36q-5 -6 -16 -5t-17 7h1q-9 7 -9 22v3h-45q-2 0 0 -3v-29q0 -3 -0.5 -9.5t-0.5 -8.5v-28q1 -15 -1 -43q-1 -8 1 -22
q1 -6 1 -8q49 3 61 -7v1q15 -17 1 -29t-31 -13l-25 -3h-6q-1 0 -1 -2q-2 -15 -2 -45v-15v-18.5v-16.5q0 -5 0.5 -16.5t0.5 -17.5q0 -27 -1 -41v1q-2 -24 0 -49v-78q0 -3 0.5 -9t0.5 -10q3 -36 3 -73q0 -39 -3 -58q22 0 62 2q3 0 3 10q2 23 17 24q40 0 33 -38q0 -1 -0.5 -4
t-0.5 -4q-1 -10 -2 -15.5t-7 -10.5t-17 -5h-1q-3 0 -13 -2q-3 -1 -10 -1h-74q-44 2 -86 2q-7 0 -23 -0.5t-24 -0.5q-11 0 -17.5 11.5t-3 23.5t16.5 12q2 0 7.5 -0.5t8.5 -0.5h15v8q0 16 5 41q0 1 0.5 5t0.5 6q1 40 -4 94l-2 34q-1 40 2 89q0 3 2 23t2 31q0 12 0.5 37.5
t0.5 37.5q0 13 -0.5 38.5t-0.5 39.5v148q0 10 1 13h-6h-7h-6h-3q-5 0 -14 3zM213 856l2 -2l20 18l8 7q17 19 28 22q11 4 19 -5t8 -21q0 -10 -7 -16.5t-30 -22.5l-11 -11v1q-9 -12 -15 -15h1q-12 -9 -36 -25l-21 -15q-9 0 -10 3q-14 8 -28 22q-8 8 -11 14l-9 12l-20 18h1
q-24 20 -29 29v-1q-13 24 6 31t40 4h-1q43 -1 95 -47z" />
    <glyph glyph-name="ecaron" unicode="&#x11b;" horiz-adv-x="373" 
d="M74 694q-15 0 -23 13t-1 27q11 15 50 13h-1q25 -2 106 1q34 2 56 2q16 0 38 -2q7 0 11 -4q4 -3 4 -10q2 -16 2 -28q0 -2 0.5 -5.5t0.5 -6.5q3 -27 -14 -32q-15 -4 -25.5 4t-8.5 26q1 3 1 7q-2 -1 -4 -1q-19 0 -25 1q-24 0 -30 -1h1l-2 -2v-7q-1 -3 -1 -10q-2 -17 0 -52
q0 -2 0.5 -6.5t0.5 -7.5q0 -6 -0.5 -18.5t-0.5 -18.5q-2 -19 0 -34q0 -14 5 -24h13h14.5h10.5q5 0 14 -4q4 -3 4 -16q0 -2 -0.5 -4t-0.5 -3v-8q0 -4 -3 -10q-3 -3 -11 -3h-22q-4 0 -13 0.5t-12 0.5q-1 -4 -0.5 -14t1.5 -23v-6q-2 -48 -4 -71q0 -1 -0.5 -5t-0.5 -6
q-2 -27 0 -42q0 -18 -1 -25q-2 -20 0 -29q2 -17 2 -55q0 -13 2 -45v1q2 -24 2 -40q0 -34 -4 -62h20q38 -2 47 -2q0 25 8 31q7 5 24 2q19 -4 22 -26t-5 -35q-8 -19 -58 -16h-7q-11 1 -33 -1q-12 -2 -19 -2q-12 -1 -39 1q-10 1 -45 1q-1 0 -5.5 -0.5t-7.5 -0.5q-41 -2 -50 9
q-14 14 -8 23.5t17.5 13.5t23.5 4h5v13q0 12 -2 17q-2 18 -1 25q0 24 -1 37q-2 35 -1 51q2 52 5 79q0 28 -2 36q-2 29 0 43q4 32 -1 73q-2 24 -2 34q0 26 3 47q2 7 -1 38q-3 29 -2 36q6 52 5 79l-3 36q0 2 -7 0q-3 -1 -11 -1zM226 858l2 -2l20 18l8 7q17 19 28 22
q11 4 19 -5t8 -21q0 -10 -7 -16.5t-30 -22.5l-11 -11v1q-9 -12 -15 -15h1q-12 -9 -36 -25l-21 -15q-8 0 -10 3q-14 8 -28 22q-8 8 -11 14l-9 12l-20 18h1q-24 20 -29 29v-1q-13 24 6 31t40 4h-1q43 -1 95 -47z" />
    <glyph glyph-name="Gcircumflex" unicode="&#x11c;" horiz-adv-x="409" 
d="M72 170q-3 30 -11 68q-15 78 -13 112q1 12 1 37q3 48 4 54l1 1v3q6 41 9 80q1 22 9 55l8 29q6 42 24 78q10 19 33.5 37t40.5 18q42 0 56 -8q-3 15 1.5 25t20.5 9q26 -2 20 -26q-2 -12 -1 -16q0 -2 1 -5q8 -50 -3 -60q-13 -7 -26 -2.5t-21 13.5l-6 9q-10 14 -15 14
q-9 -4 -15 -38q0 -2 -1 -6t-1 -5q-12 -54 -15 -81q0 -6 -1 -18t-1 -18q0 -13 -3 -25l-3 -11q-3 -19 -1 -53q0 -3 0.5 -9t0.5 -10v-23q0 -46 1 -55q2 -11 2 -39q0 -14 2 -40l2 -22q4 -32 4 -54v-8q0 -39 6 -59q2 -6 4 -24q5 -34 9 -39q4 -6 9 -8t9.5 1.5t9 8t9 12t7 12.5
l5.5 11q9 23 14 67q0 2 1.5 6t1.5 5q7 36 12 72q1 13 1 46v4q0 11 -1 13v-1l-10 -1h-6h-4q-2 0 -18 -2q-20 -6 -38 -1.5t-17 25.5q0 18 8 23h1q3 2 11.5 2.5t14.5 -0.5q1 0 4 -0.5t4 -0.5q36 2 60 2l38 2q3 0 6 1q19 5 26 0q10 -7 7.5 -25t-13.5 -21l1 1q-8 -3 -19 -1h-3
q2 -16 0 -28v-84q0 -15 0.5 -42.5t0.5 -40.5v-28v-51v1v-18t-5.5 -15t-17.5 -5q-27 2 -27 47v8q-12 -20 -24 -31q-20 -23 -48 -23q-38 0 -54 13q-36 19 -56 68q-17 38 -23 88zM199 898q21 9 50 -20q42 -42 62 -78q11 -22 -4 -31.5t-32 4.5q-12 12 -25 30l-12 12h1
q-3 0 -26.5 -19t-32.5 -21q-30 -11 -48 -11q-24 0 -38 17q-12 20 42 64l4 3v-1l29 25q15 18 30 26z" />
    </font>
</defs>
</svg>
